<mxfile host="65bd71144e">
    <diagram name="Page-1" id="TDLcVvQHtRzkRE2Xttn2">
        <mxGraphModel dx="2583" dy="1453" grid="0" gridSize="10" guides="1" tooltips="1" connect="1" arrows="1" fold="1" page="0" pageScale="1" pageWidth="850" pageHeight="1100" math="0" shadow="0">
            <root>
                <mxCell id="0"/>
                <mxCell id="1" parent="0"/>
                <mxCell id="175" value="Cafetería Virtual - Productos" style="swimlane;whiteSpace=wrap;html=1;strokeColor=#3333FF;fillColor=none;fontColor=#18141D;" parent="1" vertex="1">
                    <mxGeometry x="-831" y="614" width="708" height="445" as="geometry">
                        <mxRectangle x="110" y="30" width="200" height="30" as="alternateBounds"/>
                    </mxGeometry>
                </mxCell>
                <mxCell id="180" value="Google Firebase" style="swimlane;whiteSpace=wrap;html=1;strokeColor=#FF8000;fillColor=none;fontColor=#18141D;" parent="1" vertex="1">
                    <mxGeometry x="-1343" y="582" width="308" height="423" as="geometry"/>
                </mxCell>
                <mxCell id="182" value="" style="sketch=0;dashed=0;connectable=0;html=1;fillColor=#5184F3;strokeColor=none;shape=mxgraph.gcp2.firebase;part=1;labelPosition=right;verticalLabelPosition=middle;align=left;verticalAlign=middle;spacingLeft=5;fontColor=#18141D;fontSize=12;" parent="180" vertex="1">
                    <mxGeometry x="3" y="26" width="32.4" height="45" as="geometry">
                        <mxPoint x="5" y="7" as="offset"/>
                    </mxGeometry>
                </mxCell>
                <mxCell id="241" value="&lt;span style=&quot;color: rgb(24, 20, 29); font-size: 14px; font-weight: 700;&quot;&gt;fb-auth&lt;/span&gt;" style="html=1;dropTarget=0;fillColor=#ffe6cc;strokeColor=#d79b00;" parent="180" vertex="1">
                    <mxGeometry x="38" y="76" width="231" height="90" as="geometry"/>
                </mxCell>
                <mxCell id="242" value="" style="shape=module;jettyWidth=8;jettyHeight=4;" parent="241" vertex="1">
                    <mxGeometry x="1" width="20" height="20" relative="1" as="geometry">
                        <mxPoint x="-27" y="7" as="offset"/>
                    </mxGeometry>
                </mxCell>
                <mxCell id="278" value="fb-firestore" style="sketch=0;html=1;verticalAlign=top;labelPosition=center;verticalLabelPosition=bottom;align=center;spacingTop=-6;fontSize=11;fontStyle=1;fontColor=#18141D;shape=image;aspect=fixed;imageAspect=0;image=data:image/svg+xml,PHN2ZyB4bWxucz0iaHR0cDovL3d3dy53My5vcmcvMjAwMC9zdmciIHhtbG5zOnY9Imh0dHBzOi8vdmVjdGEuaW8vbmFubyIgd2lkdGg9IjMyMy45MDU2MTAzOTg2NzUxNSIgaGVpZ2h0PSIzNzYuNDIyMjk0OTYzNjg0MDciIHZpZXdCb3g9Ii0wLjA5NzAwMDAwMjg2MTAyMjk1IDAuMjg3OTk5OTg3NjAyMjMzOSA4NS42OTk5OTY5NDgyNDIxOSA5OS41OTUwMDEyMjA3MDMxMiI+JiN4YTs8c3R5bGUgdHlwZT0idGV4dC9jc3MiPiYjeGE7CS5zdDB7ZmlsbDojYWVjYmZhO30mI3hhOwkuc3Qxe2ZpbGw6IzY2OWRmNjt9JiN4YTsJLnN0MntmaWxsOiM0Mjg1ZjQ7fSYjeGE7PC9zdHlsZT4mI3hhOwk8cGF0aCBjbGFzcz0ic3QwIiBkPSJNLS4wOTcgNzUuODE1VjU1Ljg3NGw0Mi44NS0yMC4xODN2MTkuMDd6bTAtMzUuNDAzVjIwLjQ3MUw0Mi43NTMuMjg4djE5LjA3eiIvPiYjeGE7CTxwYXRoIGNsYXNzPSJzdDEiIGQ9Ik04NS42MDMgNzUuODE1VjU1Ljg3NGwtNDIuODUtMjAuMTgzdjE5LjA3em0wLTM1LjQwM1YyMC40NzFMNDIuNzUzLjI4OHYxOS4wN3oiLz4mI3hhOwk8cGF0aCBjbGFzcz0ic3QyIiBkPSJNNDIuNzUzIDgwLjMxNGwxNi4yMTctNy41MjUgMjEuMDg0IDkuNzE3LTM3LjMwMSAxNy4zNzd6Ii8+JiN4YTs8L3N2Zz4=;" parent="180" vertex="1">
                    <mxGeometry x="116.3599999999999" y="228" width="70.28" height="82" as="geometry"/>
                </mxCell>
                <mxCell id="234" style="edgeStyle=orthogonalEdgeStyle;html=1;entryX=0.25;entryY=0;entryDx=0;entryDy=0;strokeColor=#00FFFF;fontColor=#18141D;startArrow=none;exitX=1;exitY=0.5;exitDx=0;exitDy=0;exitPerimeter=0;endArrow=none;endFill=0;" parent="1" source="505" target="241" edge="1">
                    <mxGeometry relative="1" as="geometry">
                        <mxPoint x="-1247" y="442" as="sourcePoint"/>
                        <mxPoint x="-1188" y="55.5" as="targetPoint"/>
                    </mxGeometry>
                </mxCell>
                <mxCell id="235" value="Cafetería Virtual - Back-End" style="swimlane;whiteSpace=wrap;html=1;strokeColor=default;fontColor=#18141D;" parent="1" vertex="1">
                    <mxGeometry x="-1004" y="-379" width="3159" height="1501" as="geometry"/>
                </mxCell>
                <mxCell id="472" value="&lt;font color=&quot;#18141d&quot;&gt;&lt;span style=&quot;font-size: 14px;&quot;&gt;&lt;b&gt;mb-cv-broker&lt;/b&gt;&lt;/span&gt;&lt;/font&gt;" style="html=1;dropTarget=0;" parent="235" vertex="1">
                    <mxGeometry x="1434" y="683" width="1020" height="138" as="geometry"/>
                </mxCell>
                <mxCell id="473" value="" style="shape=module;jettyWidth=8;jettyHeight=4;" parent="472" vertex="1">
                    <mxGeometry x="1" width="20" height="20" relative="1" as="geometry">
                        <mxPoint x="-27" y="7" as="offset"/>
                    </mxGeometry>
                </mxCell>
                <mxCell id="237" value="" style="shape=image;verticalLabelPosition=bottom;labelBackgroundColor=default;verticalAlign=top;aspect=fixed;imageAspect=0;image=data:image/png,iVBORw0KGgoAAAANSUhEUgAABAAAAAJlCAYAAABE9IBQAAAAAXNSR0IArs4c6QAAIABJREFUeJzs3Xt4VOd1P/rvemckCMYYY0IIoVSFGUkZYEYgDA6gYRsc32q7dtpcmnvya5Pe4t7TpjnJTzlteuqkaY/bpmmaX9unOb/k58RxsI3jOL7QbQljQyyQZCODJIhCbUoowZgQLEYz7zp/SHawzUWX2bP2++71eR4/yWPD6AuImb3XXmu9gFJKKaWUUkoppZRSSimllFJKKaWUUkoppZRSSimlHEDSAZRSSimllFLKRw0twewZdZg+MlyewUSzAQAmNYsI6Qv9XAMcr1QqlpiPm/Trhk/zyKmG2TgZhmE58uDKW1oAUDXX0BBMn3bpyJxypW6OSdk5bDEdxswysDPY0nQQZjNjOsFe9LOfRbMAmHO/Kh9/+f+BLBE9T2xPgTFsU6njhu0pshiugI8T1x/nGSePDu7YcSLCX6ZSSimllPJMEATpgz8ZWZAu1y0CYyEbuxCMnwNjLghzjaG5tsJzQZgLYEZEMYYBHGPgGIGPAnQMwFEGPUdkD4JSz1IZz5Yuw9BQGA5HlEE5SgsAqlpM04q3zmc7vNAamm8sL7KENwK0kCwvgDHzwDwHwBxE92Y4UWUCjjJwFIxjMHQEzIeY+Aeg1LPM9lCapg3t+6V1h9HebqXDKqWUUkqp2mhuCRpGLJoNuJHBTQRuBFEGwCKc96FU7BwFeC+T2UuW94HMXpvC3p+bhSHtJEgmLQCocQuCIH3ox8iwQYapkgFjCTEtZqIMgRsA1EtnjEgZwLMA+hncb8g8w0T9FZPuP9D18EHpcEoppZRSatJMZkVbMyxWAlgBUIsBVjIwWzpYxEpgHGCivQTbD0o9Q1zpS4+k+vr6wpPS4VR0tACgziq7fP1iJrPMEHLMWA5Dy8DcDH9v8ifrFICnAewCaLcxtOv0JXha262UUkoppeKnIQim1/3Yriai9QxeR4S1CbjZnwgL4ACIusliNwx3W2t6B3vDZ6WDqerQAoBC04q3LmAeXm2By8liNRGt0jfCKSkD2MvMTxhQpzGmY293OCQdSimllFIqibItQQvAV4PtdQCthT7QmjjGMSZ0A9xtmHpQZ3b2d4V7pWOpidMCQPKYppVty2zZBCDeAOAKAAukQyXAIQa2GXBnJZV6YP+ucFA6kFJKKaWUjxa0ts64qHzRtUz4JWJcC2CedCZPHSLQVib7SCVltx7oekxHYx2gBQD/mUy+rQUGRQJdCcZ6jC7iU5KIDzDT/Ybw3ZOpn4aHurpOSUdSSimllHJVQ0swO82VGwDzywS+GvFZOp0kgwC2MvCISZut/V3hUelA6rW0AOChJflgmQFvZMKVBhxoO3/sDYOxlVL4RonNvUPd4fEL/xSllFJKqWTL5XL15frLrrdsPkDg66Gt/fFC1Au2DxBSW/pvCbbrqVrxoAUADzTkgvl19ZVrweYagDdC25xcVgLoQWK+077uorsHd3z3hHSgpGpoCWanrS0aooxlexkR0tKZACqB6CcMnATzsCEc5ordO/DUtiGMLu1R6qyyyzctZhpZBuJZIDMLzLMIfGktMxAwzGR+CsZxMjzMMIe4gr26WEqN15L82nlE6RbDPIfJzAJhNsNeQiz3/syEMll6HoQDIyNm+1BfeFgqS5I0rQhWVaz9ADHeDdLOVkccZcL9sLylvpx6QE8akKMFAAcFQZB+7sd2LRtcR8C1AFqkM6lIDIPxbTbmK4PdYSgdJimaVrx1gbWlzwL8XiAON/3jcgrAXgaHBqnN/T3hNulASlZjoW01E72dGWsJWAZglnSm8zgBRh8b3pqi1OZ9u8MnpQOpeGhsDeaiXHkXw1wD8Eq4sLOIcT+M+eRAd9gtHcU3DQ3B9LrZlXexpd8mwirpPGpKSgBCAm8pp6fdq8dq15YWAByRywUzS9NwLVXsLUS4Xtv6k4WBfiJ8xdryV/f3bj8incdXTcva8pyi7zEwXzrLFHUbxh/u6+3YKh1E1c7o/CvfSmQ/AKbF0nkmixlPUsp8YmB3+LB0FiUjszK4gsr2UyBcDXcKsWcqgfChge6Or0sH8cHi1nWLUiOpjwH4sD7t91Y3CF9ja+7QrrDoaQEgxpbkr55n6PTNBHsLgzZC55rU6IjA19nYzw/u7uyTDuOTzJo1s+h0/W6Xb5xejYG/Guzp+IR0DhW9TKHtvQS6HX4tef3XkUvNbw+F4bB0EFUbja3BXDtiv0CE90tnqYISgdv6ezp3SgdxVWNr0GxH7CeI8G64WQhSE2dB2Aamr/H04TsGd+zQUdgIaAEgZpYuvWbOSN3pt1m2v0pAAMBIZ1Ixxbifjfm8jgdUR7al+EdgfF46R9Uxvj7wto3v08U7/soU2r5AoD+QzhEFAraXyPyiLkf1X+7yYH6pZB8loFE6S7UwsHWwp2OTdA7XNK0IVllrPwHgZuh1cJKdAnAHgb+shbTq0gJADLS23jjjhfJP3kZsf9XhdjclZycDnxrs6XhQOojLsvniMyA0S+eIAoP/ZrCn8w+lc6jqy7Zs+DiYb5POESUGti681FwThmFZOouKRi6Xqx+pm9sJYLV0lmpLkfmFvd3hkHQOF2RWtOXI0p8DeJt0FhU7u4jN5xfMwbf0s2DqtAAgKLu8WIThDwH0KwBmSudRruOQOfWJwd7wCekkrmlsDeZy2f63dI4oGcYm3Qngl0y+bSUR7UAyisafGujp+AvpECoajfkNf8bEn5XOEQUy+ED/7o6vSueIs8WtVy1KlUc+A/D7oU/81fkNEfgL6ZH5/9zXd2dJOoyrtABQY00r3rqgYku/RuAPAPBm1ljFCONeqjN/0t8V7pWO4orGQttqBu2QzhGxwTddat6slXN/ZAvFHfDwiek5lGDr3jzw1CMHpIOo6mpuCRoqbPcAmCGdJSJ/MdDT8SnpEHHU2nrjjBcqxz9JTH8E3XOlJmYIhE8OdHfcAT0GecK0ylYj2RXBVZnChs3Wnv4hgT8DvflXUSHcxGX7VDZf/Hxr642+XlBVlQUl4VSNzHPP84elQ6jqyOSLNyE5N/8AUA9T9vIJcdKVmf8W/t78g9mrxZxVkykU33Gi/MI+Yvoz6M2/mrgGML6WyRd3NK0I9EjICdICQIQya66b1VjY8AfZQnEA1j5E4JuRjFZNJS8Nwh+dKL+wL1so6izdhZBJSBsZ/zH0fd8LBP6YdIba43dk8sFC6RSqejIr2nJj10beotHzztWY5sL6xmyh7T8I+AYA/fuspoQIq6y1OzKF4t9n1lw3SzqPK/RCMAKLW69alM0X/5aGf/qfDP4CgIx0JpVYCwHc1Vho+65eOJ8HVY5IR6iRTFM+uFo6hJqa7PJNi0F0lXQOAQakXSw+IUveLyclwo+kM8RCe7vJthT/qALTA1AgHUd5xRDwOzT802ea8sWN0mFcoAWAKsrk21ZmCsVvpMql/SD8HgCtRKlYYNC1huxTjfngXdJZ4uiUOTWEhMyQWdgEPjn2jCl9VDqCFAL/Otrb9drFA0vyV88D8G7pHFFjMoelM0jLrGjLZTdvfXzsqN3p0nmUtxZYwkPZQvHPgyDQjuvz0A/RKsjkgyuy+eJ3iKiLgHdA2/xVDDEwm8n+n0yh+I2lS9+iM4lnONTVdQpAMpYmEq7NLl+vO0jcZQj0fukQghY2fTvULhYPGBr+CBJwM2hh+6UzSMq0tP0eWdqNZO0sUXIMgP/ruecrD2XWrNEHseegBYApaCwE67OF4veI7OMgXC+dR6nxIOAdpXTdU0taimuls8QKo1s6Qo0YopR2gjiqaUWwkoH50jkkWbLXSWdQ1UC/Kp2gFiowfdIZJDS2BnOzhQ1biOlvoUv+VM1RkCpN/4/G1mCudJI40gLAJCzJB8uy+eJ3GLYTgD6JUC5aYBj/kWnZ8FvSQWKDuFM6Qq2w4XdKZ1CTY629VjpDDCRx/4FXluSDZQDnpHNEjnFwqDs8Lh2j1jItQcBl2wPwDdJZVHJZyyt5xHY2tARJOOlpQrQAMAFL8lfPyxaK/2LI9ugTf+WBemL+Yraw4d8aGgLv2zAvyNY/KB2hZhj5zIo2/y++/fSL0gFiINe04q0LpEOoyTNkE1GEZMIT0hlqrTG/4c+I7SMA9O+okkdormP7Dd0d80r6mzFOTYXiOwwN7wHwYejvm/IKfzA9y3aOLWRKrIGnHjkA4gPSOWrFWCTiAtwnS5deMwc6RwsAYJzWLgCH8ei+JO8R02PSGWqloSWYnS1s2MLEn4VeJ6t4uTrz7Uf+XDpEnOhf0Atobb1xRqZQ/IYdPa9U50iUl4iwypgXH1+yMkj2kZVMiekCIGO0NdMxpfSLAfRzGwDAlq+UzqAmp7mwvpGARukctUBkE9EBkG0JWurYdmnLv4orIvr46OiRAvRC4rxylwfzT9oTnZSQSrVKOKbFpmIfy+TbVkpHEfSQdIBasZZbdC7OMYw26QjxQeulE6jJqYCSck73kf5bNj0pHSJqjS3F68G2E4CeLqPiLG2o8vfSIeJCCwDnkLs8mD9Sso9by0m+GVLJM4+IHm3KF5NygfYKI2S2AihL56gRk7a2KB1CjR8DetP7M5mGXJDo0xCcRWaTdIRaYOZ70d5upXNEKVto+w1m3ANgpnQWpS6MgoQ/5HqZFgDOorX1xhml03YLgAbpLEoJmGkJW7LLi4m7ORzqDo+D4f0Tm5cQoG3UjsjlgplEaJHOESfpdEULIi5iDqQj1AIjdZd0hihlC223AfQlAGnpLEqNFxF9QDpDHGgB4CxeKL9wGxFWSedQStAMGGxpLLQlbuEYESdmDwBMYlpxnTcyDVdAL7RfgYh0JMIxTSvb8kjGPqXj08pHtkqHiIjJ5Nu+AtDHpYMoNVE61j1KCwCvkskHCwn4DekcSsXALIC+N3bBlhgVou9JZ6gZ5mVjm+VVzJGt6M3uqxijewBcU7FIRNGRQPf19fWVpHNUXXu7ybQU/42Ifk06ilKTwcB8PUZWCwCvRfa90KcsSgEAGJhtK/TQ4tarFklnqZX9N298AsAR6Rw1YsY2y6uYs7r07jWs5XwuF+jssUOIEzL/D94snaHagiBIZzf/x9eI8X7pLEpNhbUvJn4PgBYAXuut0gGUipl5plz6TmIutNvbLcD3S8eoFdY9ALEXBEGagCukc8RQulRn10qHUOMTBEEa4CTslhmuGzG+jZKZ547Zfwf4XdJBlJoySuWkI0jTAsAZFrS2ziDdsqzUaxCwbCRtv4H29kS8ZxCl7pHOUCuUnCO5nHXo+cpKADOkc8SRAa+TzqDGZ+z7eJZ0jujRw3194UnpFNWUKbTdDsK7pXMoVRVsL5OOIC0RF/PjdfHpGRkA9dI5lIolwvXZb2/9gnSMWrg4dfGDAIalc9QG55bk186TTqHOx2hh+hwYSMITZU8ko9hIbL0qIGcKGz5NoN+RzqFU9VACCpHnpwWAM1TqSI/9U+p8CL/XmG/zvgWwq2vLKTB83eD8GkRp3QMQYxbQBYDnRKtHW8tV3DFzEub/bQWVe6VDVEu2sOEjBP6MdA6lqoqT0Il0floAOBPzYukISsUdE32lubC+UTpH5Ii3SEeoFQLrHoAYI7DOuZ/bjLHWchVjuVyuHkQJ+D7m7ft7t3uxRLaxEKwH+O+lcyhVbUS67F0LAK/0eukASjlgZoXMnQ0NwXTpIFEyxnrzFOfCSDsAYqpxedAMQEc0zktHJOKuVD9vLRKwx4JgvNj+39wSNDDsZuhYrFJe0gLAmRhe39AoVTWMfN0l9jbpGFHat/uxQ8x4UjpHjTQ3rViX+HNx48ga3XJ/IToiEX+GK4noMqqkyPnCcWbNdbMq1n4XwFzpLEqpaGgB4AyUgOq0UlV0a1O+6PdSJ6LEjAFYTmkXQAwRSG9uL4DA2gEQcwz4/VkBAKC+/bvCQekUUzZ86t9BaJaOoZSKjhYAXsFoB4BSE2AJX2ltvdHbwhmR+09zxotBiXhC5x69uR2HuY2tgd6wxNToZwStls4RNWZ7t3SGqcrmN9xK4JulcyiloqUFgDMwsf5+KDUxi0+MvPBZ6RBRGegOuwEMSeeoBWLWDoCYacgF8wFkpHM4oQItlMTUyZGfFJGAWfJUKuX0/H/TsrY8iL0e7VNKjdIbXqXU1BBuzeSDK6RjRIUZ90tnqJFMJh8slA6hfiY9TW9qx8vC6qhETFnYJBz/9+y+3aGzO2NyuWCmTdFdgO7CUioJtACglJoqQ4a/jPZ2P99PCPdIR6gVA5uAOV13kNWb2vEi1mJJXDHgfXcRMZweFxups1+AdhsplRh+XrArpWqLOd94d/hh6RhRqB85GgI4IZ2jFphY9wDEi97Ujt9i7WCJn4aWYDYRVkrniBqn3D3+b2yZ70ekcyilaictHUAp5Qdm+9nMmjXfHNyxw6ub5b6+vlK2ZcODYP4V6SzRI++f1LkilwtmjsC2SOdwSYrsWgDflM6hfqYelYBBvj9sOl53+kiHdIjJyOWCmSNk/0U6h+csgMMADgJ0lGCPW+C4AY5ZwvMEHGdKneQKTpoUygBAFsOWK6fOfJFUKmUsMBsA2FoDY2YBgKkgzcSzQJgNtpcxmTlgzCXmOUyYQ8AcjP6j4x3qZVoAULVwCsSHwXQUzKM3h0QnQGSJ7TCDTgGwAJ9x40izMNqhkgbRLACA5RkA14OQZtBcA8zl0XNq9fs4HubRcP0nAfyJdJBqY6Z7CEkoAKChuSVo2NsdJmLxYZyV6uxa0i69CamA26AFgFixjE0kHSJqjPv7+vpK0jEmo5y2twFokM7hgTJA/Qx+moCnGGaIrD2YSpmDpnTkUBy+PxpagtnTTGVRpUwNBGpgsj9PoAZmLCLCIgDzpDOq2tEbJzUVFsRDxOi3wCCBfsTAIYI5woyjaYPDJ1I/OXKoq+vUhV9q8pYufcucSjo11yI9D1SZy2zmMTCfmJsYaCRCI4BZUWZQL6HfW9x61RcPdD18UDpJNU0rT7u/lH7RIgE3ZGW2GwH8q3SOpCNA5/8niEA6MhEzBLMRYOkYkWJH98Rk8m0rmfAb0jkcVGZGN4g7iKjLGH46NfzjvXG4yT+foe7wOIDjAHrP9t9zuWBmKY1lRJxn2OUELANTHoQ5tU2qakELAOqCCDjM4L3MGCRD+5jQb8qmP105ciAOb3h79jx+DMAxAP3n+jFL8lfPM6nhZqpwI4OaAORAWI3RDgJVPfWpcumTAD4qHaSa9uz53rFsS3EbGEXpLFEz4CuhBYAY4PWA989Oqy2fWXPdrMEd3/VqDMlVo8dY2px0joiV6keMkyfFENEXkYCidhVYgLczowNEj9aPmO19feFJ6VDVNvZremLsn5flLg/mj5SxDBXbAsJbMLqbRrsFHKcFAPVqJxh4EsRPgGhHfdrs7Pt+eFg61FTt733wCIAjAF4xp9fcEjQw29UVcNvYkwrfL1Zq4YOLW9d99kDXY151AcBiC8j/AgDrHgBxQRCkn3verpbO4SDDL764FsAD0kEUUJ9G4Pezf4DBW128Gcy2BB8EW2+P762CMoCtAN1leeTu/b3bj0gHkjJ2D3AYwMMv/bslK4NMiu1aW+E2IloLQK+dHaMFgGQrM6PbADuRwg4Ys7O/K+zH6MKSRBibdR7C2NxoQy6YX1dvN4LpRoCvxdjCFTUh9amy+QSA35QOUk0psvdWYD4vnaMGFi5ZGWT27woHpYMk1aHnKysBmiGdw0WEShu0ABALFpVN5HkXC8G97f+ZNWtmYdjeJp0jpnYy8OVp5ZG7x7pL1VmMXR8MAvgqMDqKW0pPWwtUfpEZ1xPRItmE6kK0AJAsFkAvg7caokfSJdPhYuU6SkN94WEAXwfw9SAI0s+9gICZ30mjG+C1GDBu9OFMPvjsYG/4rHSSatnbs60/WyjuBdAsnSVqpsIbMfrhrgQwU9Hz+6bI6B6A+CCDjZ6P/9u6erpXOsSEDU//PYC1hftnSky4I0Xm7/ftDp+UDuOisWLJfWP/ILOiLUdsbgDb6zD6nhyr+83EPOU8j1j9gahI7CXGViY8Ul9+Xbhnz/e0ojlOYRiWMdry9HBDQ/Cx9CX2JmL+dRBdJZ3NAfWgyu8D+EPpIFXFuA/kfwEAsFcC+GfpFEnFROvI8zunyBBW53K5+jjsp0myxa1XLUK5tFg6R6QYzo1ILl16zZwSXvTrc3nyTgH4G0qb2we6wqPSYXwyuLuzD0AfgM81tASz04SrqGJvAeEmADOF44GAxD/81AKAf44z8KBhfIdSlYf37X7skHQgHwwNhcMYHRP4ZuPyoNka+9sEfBiAtumeA4E+3Np646e6urZEegpELRGZexj2j6RzRI10D4AoAutT7Mmbfrp+7ioA26WDJFmqUt4onSFyhpxr/y+lT/3J2DHLSVYG8K919eZ/ulbAcdHY6QPfAvCtBa2tM2aOXHwTE79nbMxW6j408QUA3f7phz4w/hoGG950qXn9YE/HO/t7O76qN//R6H8q3DvY0/ExSpufB/hz0DeSc5l9ovyT90uHqKb+W4LtALx/UsDA/MbWIAGdDvEz9vuup5NMgdExAHHEvEk6Q9RSXLlbOsNELMlfPQ+g35HOIYpxfwp26UBPx0f15r/2DnV1nervDe8Y6Hn0xvry694AmN8EeFvNgxD+s+ZfM2a0A8BNwwQOQWaLAd0/tsgOADAgmSph+kdbxv6ksTX4PJcrfw7QR6BFtVexHwPwT9Ipqqa93XK+eD8RvCpsnI0d3QOwVzpH4lSgN69TxWgD8DnpGEnGYN87APbu7dl2zqOH4yhFL/42J3e56Eki8/v9PeH/kg6iRo2NJP8TgH9a3HrVIjNy+qNE9GuowRGDxpqno/4acac3K+4YBvBtA7yzbsS8vr+n87r+7kf/8cybfyWjvys8OtDT+ZumwivArzxmUCGXXRF4tTOBCPdIZ6gFAq6UzpBEFrZNOoP7eK10giRrXB40A1ggnSNKBDj19D+Xe3v92EOKxCFgO2xdob9bb/7j6kDXwwcHezs/WTfyhp9j8PsA7Izwy1muQ+KXPWoB4AzEFLfFkKcwdtM/K33JZQM9Hb+8r6fjm7q5P572Pd3ZO9DbsYGIfhs6FvAytvbXpTNUU92IeRCA/wvGmHUPgABi7QCogjmZFW16LrUQNvD+vcOycaoQXKr773cwMF86R60x+B/6b9nYNvDUIweks6gL6+u7szTY0/m/B3o61hhjLmfGVzH6ALRqGAj7demjFgDOxMxxWFZ2CkTf4tGb/te/dNPv0yI13/V3P/qPsLbArBVGACDgpoaWwJsjFPv6wpME3iqdowbmvjkfLJMOkSRNK9YtAOD35vQaIWu0kCKF/J7/J+DwYG8Y5RPK6mP7u9IRao2ATwz2dH4M7e1xe7inxmHf7vDJwd6OD1Da/BwBnwBQnb1mBrdX5XUcpwWAMxCx4FNb3gYyH6obMW8Y6H707YN60++0gae2Hagvv2EdfJp/n7zp9cCvSIeoJkbKqac/k1WhivdP8uKkYlN601olBOgohQzje/cQA/fCoaPEm1a25YmwSjpHDZVB/KH+no6/kg6ipq6/Kzza39PxV2+61Pw8CO+ZysM1Aj8wuLvj3mrmc5UuATwDk/khcQ3PXmYcBOGrNmX+ff+ucLB2X1jVQl/fnSUAv5ktBD2A/SISXHCzbD8EwJv5O2bcR4QvSeeImoXZBOAfpHMkB7cBJB3CC6xHKYrItgR5sPX6FAvLxqnj/2wF75HOUEtk8D/6d3d+VTqHqq4wDMsAvg7g65l820oCvY8I7xrvaAsznuTXld4ZbUp3JPaG5GxSlmux8XoYjK/DmLcO9Hb8wkBPx6f05t9vAz3hPwF4O6o8x+QSAtZml2/yprV5sDd8FsAu6RxRI3AR+jlRM6TH11VTQyYfLJQOkTTE3m//PzGt/HqXRsAMQO+WDlErTPyX/bs79Obfc4O9nbsGejt+v/+WjW9i4Bow/l8Q9Z7txxJwGMCn6stH1w3u2HGixlFjSzsAzpAqm522zg4DmF7t1zaGdlmLL/P0GXcM7viufgMmzEBPx7eb8sEtluwWJPTvHZmRdwDwpiWPwPcxaKV0jojNybYE+YHusFs6iO8ya9bMwjDy0jl8YoD1AO6QzpEkzLzJ5yYWBh4Y6+5zQnZ5cT2AZBTCiL412N3xSekYqoba2+0g8CBG/0FDSzA7bSuLiVILiKwlw8/u29X5NBwa2amVRN6InEtfX3gyW9jwMMA3VOklTzLzHQC+tG93h/dPC9X57esNH2jMt72Pib6GBD5VZeAWeFQAsIx7iPBp6RxRY1QCAFoAiBi/+Lq1RDZx7wvRsm3QAkDNBEGQfu5563UXi3Gs/Z8J7/S4HvMyBvrLs+l90jmUrKHu8DhGuzP1nusC9GLjVThFn63Cy+wC6KN1I+aNg72dvz7Y26nfiAoA0N/beQeIPiGdQ8jqsS3nXhj7e/2sdI6oERuvN3rHhSG7TjqDb9jokYq19OwxrAIwSzpHhEr2da+7XzrERJDha6Uz1EKK8ZtDYZjYMUulJkoLAK8yuCt8gsGTWXo1SMBfgcyKgZ6O1oGeR/+5ry/Us+DVawx0P/o5Ar4pnUOCteYm6QzVxfdJJ4geF9Herp8VUWMUpSN4h7HMpyNI487A+/n/0KURziUrgwyYvNm9cy5M+Oq+3g6X9jIoJU4v6s5i8JZNvwvGX+P8MyMWo22xf2FSXBjo6cj293R8Qmdl1XhcnL7kQwzql85RawT8knSGajKciOMAZzXdE/q+60BULperB2G1dA4PmXrYtdIhksISe94t5Fb7f8ry1dIZIsc4ZlLmD6VjKOUa3QFwNu3tdgD44+bC+q9UYN4BxptBmMuMw0Q4CJgdI4RtY7MmSk1YV9eWU42Ftvcx6DEk6O8hgza2tt44o6tryynpLNWQKr9+q6370UkAM6WzRMmyDYDJn72rzq80fd5KqtiqL59VgGW0AXCqbdtFDQ3BdPK82GJMnVPnhzPjOumjtGYFAAAgAElEQVQMUSPif+jvCo9K51DKNYm58ZiMvT3b+gH8hXQO5af+ns6djYW2v2SQ94vkzlD/QvmF9Rjb2Oq6vr47S9lC8UEAb5POEiVm3gTgr6Vz+Iqs34vTJBFYf29rID0bV4Crf4JSjOzct/uhQ9IhJoLA61k6RLSGK1z5onQIpVykIwBKCUqP/PizSRsFIPjVJkoG3o8BEGh9EARaMI5Om3QAf9HqhobA5xvTWCC2Xr2vvxoBTrX/NxfWNzLg+/6Lr+7v3X5EOoRSLtICgFKC+vr6Ssz0u9I5aomZ/FoUZcz98P+M2ZljG75VFKxuq49Qff0l+r0bNQb8el9/FWvYqfb/Msj7nSJs+HbpDEq5SgsASgnb3xs+AE7OjCoRVvq0mXt0/pC3S+eImiEbSGfwUWZFWw6EOdI5fGahIxZRyuWCmQSvl1gODu7u7JMOMREEulw6Q7Soz7U/E6XiRAsASsWBMZ+UjlBDJk3WryPPiLwfAxjbA6CqjKzRm9OIEeuIRZQqaayHzzulGHdLR5gw9rogA8Am4AhepaKjBQClYmCgO+wG0bekc9QKWV4nnaGaqGL8vxghWpvL5eqlY/iGYJ26OSXAudNviLAWer0TGWv8nv9PGbfm/wEAhGbpCJGy9B3pCEq5TD8QlYoJU7Z/Lp2hhrx6OtH/VLiXAd+XOc6w9XN1lrrKGORYBwD/nXSCiWJg9pvzQU46h7fY6/n/I3u7O56QDjERja3BXHi8AJCA42+6zHg/dqdUlLQAoFRM7Hu6sxfgUDpHbdAqtLd79f5DBKeWRE1Gxe8L/ZprWvHWBQAapHNMwHBdecbtAMrSQSaqTLpoMQpLl75lDoAW6RwRuhuOLXmtVGyjdIYoMbAzDEPn3oOUihOvLsCVcl/qC9IJamRm5p5H/GpRrGCLdITo6R6AauLKsGO7MPiJPXu+d8wY6pVOMmHs1qiFK0bqphXh8bUkkXvHvKYIGekMkWLo8j+lpsjbN22lXDTQE94P4FnpHLVAnPJqDOBNl5ntYByTzhEtukLPVK8eC3LsppS2AYCtcId0kgkjOFZscYNlr+f/T5aOm63SISaKLbLSGSJF9Ix0BKVcpwUApeLFMvNXpUPUAlnr1TFFYRiWidj34xynp2fjCukQviDj2Py/MY8CAI39r2MWLm69apF0CN8QPB4LInpgaCgclo4xCQukA0SJQNoBoNQUaQFAqZjhdOrfpDPUAhPnpTNUmzUp59pFJ8pw5UrpDD7IrLluFpiXSeeYgHLdaYwuQ0thm3CWSUlVSm4VXGIud3kwH4C3yxWZrZvv54S50hEilcZe6QhKuU4LAErFzP5d4SCAndI5Isfk3YVj/Wk8AKAknSNKTBRIZ/CBOf3T9XDrM3hXX194EgD6u8KjYAcvwhmOjVzE28iI9ffpP1AuU8rN410Z86UjRGnBxe4dRapU3Lh08aFUchDdJR0hcoQ5S/JXz5OOUU1jN0h+n+TAuGJBa+sM6Rius+B10hkmgsGvfOpPcG8PAPQkgKpi+Dv/zxwOdYeu3mj63AFwSk8AUGrqtACgVBxV0t+SjlALaQy71AI9LkTkZtvo+NVfZC9eKx3CdQS35v8NofMV/4Lg4h6A3Nixdao6vO0AcHH7/xl8LgCclA6glA+0AKBUDA089cgBAE9L54gaE3s3BlBOld1sG50ArugegKnI5d5eD4Zbp2CkUq/oAKikKi7uATCl9DQtXlVBc0vQAKBBOkdULKfuls4wBf52aBFrAUCpKtACgFJxxXhYOkLUGFgqnaHaDnQ9dhBAt3SOKBndAzAltv5HqwC4dJxiX39XePTMfzH2fT4klGcKKroHoArK7O/8vzG0a7A3dPM43vZ2AyAtHSM6pAUApapACwBKxZSB+Z50hqiRp0+QCHyvdIYoMbA6lwtmSudwVcWx9n/g7PP+BHKuC4Dd+72PJfJ4/t9a3iydYbIWbNniUmFxwpjJ61+fUrWiBQClYmpm3cUd8H2jPMjPAoBJbZHOELH06bQuVJs017bRv3r+/+V/T87tASBgVUMQ6E3EFBH5O/+fZuNs+3995eJ66QxRIrAWnpWqAi0AKBVTXV1bTsHzVnJ42gGwb3f4JIBD0jmiZEj3AEySAdipOfRzzvtX4FwHAID6uh9bt/YvxExja9DM8PSoOeIDz/SG7u7fKTk1WjQZ/u43UKqGtACgVJwxtktHiNh0344CPIPnywB1D8BkLMkHOQDObKJn5oNj8/6v0f9UuBfAkRpHmjJK6RjAlFTY26f/zHD26T8A1L8Ovh+RN6uhQTt4lJoqLQAoFWOcMo9JZ4hail70sgvA8WOkxmNVQ0swWzqEawy5NTph6Ozz/2dwrgvAsnVrBCNmmNnb+X+DlLPz/wBwMS4+JZ0hYiZ9aWWxdAilXKcFAKVizJr0TukMUbOe7gEoHTdbAfh8MWbquOzUzWwsOHbzyTBnn/9/+Qe4uAeA1o5tS1cTZ8DwtfvnaP8tgdNdd11dW4alM0SuQhnpCEq5Tj8AlYqxA10PHwRwXDpHlIjJy1nSoaFwmEEPSueIEoN0D8AEMdipogml6fwdAOYC/z2eZmXvDvPSIVyUbQnyIHdGWCaG70N7u5VOMUUWgNdFADLULJ1BKddpAUCpuCP0SkeIEsO+QTpDVIjI6zEA0j0AE5LJBwuJaJF0jgk42t8V7j3fDxi4OegFcKJGeaqGuOJUISY2rL1KOkJ0UndJJ6gK9rrzDLC8QTqCUq7TAoBSMcfsdwEAgK9LAEEp3IfRJzK+atE9AONHxhalM0wEgy4839/ebhnsXNs0w6yTzuAoX7t+Tv00/ZOt0iGqgjwvABDW6wiPUlOjf4GUijmC2SOdIUpkyNsCQH9XeJSAJ6RzRMjUo6JdAONEFm7ddJId13y/gXt7AAB2qhgTB0EQpEHw8veNQQ8e6ury5MaZnOvImaBZTfeEK6VDKOUyLQAoFXcGg9IRImX97QAAAAtskc4QJWbdAzBe1rWbJ3vBEwDGGOdOAgCwoLkl8HIBaVT+87hdDWCmdI4oGGant/+fiWHPemynTyzbd0pnUMplWgBQKuZS7HkBgPwuAMDwvdIRIkXebgSvqoaWYDYBOekcE3By4ZzUuMaP0iOv3wkHF4+V2a0jGaUZxkbpDBGxqDP3S4eoFgKGpDNEjvFuHQNQavL0L49SMbf35uAggJJ0jgh5ulF61ODuzj7A4yIOI9/YGsyVjhF39bBr4dZn7vYwDMvj+YF9fXeWwHDuyFKCW0cySmNv5/+5o78rPCqdomrI/EA6Qg0syGze6vFCSqWi5dLFiFLJ1N5uQfysdIwIedlS+gqM+6QjRInLbi23E8Fw7Wazc0I/msY7LhAj7NhIhqCGhmA6AWulc0SCjTft/wDAzP53AAAg5j+WzqCUq7QAoJQDiOmwdIYIpRsagunSIaLExnh9HCAzNklniDsGu9VuPu75/1E80YJBHBCatXtlfKbNsmsBePk+nTLk1ZiWQTIKACC6aklL0c+ilFIR0wKAUg6woCPSGaKUmlWaJZ0hSgtnYxuAY9I5okK6B+C8crm31wO0WjrHBJRGLjMTaumvHzHbAYxrZCBOrLV6AzEOFbCvRb7uvd2hVzfMFa549es5H2L+lHQGpVykBQClHEBgrwsAho3XYwBhGJbBeEA6R4RyDblgvnSIuCrX/fdqAPXSOcaLgSeHwnBCS/36+sKTzOiOKlNUqOLcaIYIAnm5AJBBXrX/A8D+3u1HCPC5a/BlBLq2saXtZukcSrlGCwBKOYDAXn+YmzryugAAAIbg9RjAtDrdA3Bu1qn2f4NJzvMTu7cHgPQkgAvJ5YKZIKySzhGFVMreLZ0hCgx6UjpDrTDT3+dygffXEEpVkxYAlHIBmR9JR4gSV1JejwAAQGX6RQ/A49McLHQPwLmwawsAaZLz/IYerXKSWli5oLV1hnSIOCvX2yKAtHSOCAzt29U5rqMu3cM7pBPU0MKROvt56RBKuUQLAEo5wFrr9QgAsXWmPXqyBnd89wTYwSek48TQPQDnYEC4QjrEBNgSzPbJ/MRppZFtAGyV80StfkblYpf2M9ScZU/n/xlePv0HAIZ7x3JO0W9kW9o+KB1CKVdoAUApBxD7vQSwQl4+XXoN8ngMgIDGphVvXSCdI26alrUtAzBHOscE9A51h8cn8xP37Hn8GEB7qx0oasRujWjUmrfz/x6fzjKtPJKYEYCXMX0pk29bKR1DKRdoAUApBxCM1wUAk5ACgKHUfdIZomT5tHYBvEolbZy6uWTwtqm9gnWxy8WtEY0aWrr0mjkA8tI5qo5xbOx0Fi+NFuMwKJ2jxqYT0T2LW69aJB1EqbjTAoBSDijXj5ySzhAlm5ACwN7ucAgET2dOAbDuAXg1srxOOsOEmNSU5viJp/bzhaxFe7teD51FKf1iAA+vFRm4LwxD546tnCAXi3FTtTBVOf0fTSvWaTeaUufh3Zu6Uj6ikYsmdCSXa8gmowAAAGDcKx0hMsTaAfBqBKdOR6hPT+2pqIWTT1VnZr79SIt0iDgiT4t6xhjvjv97NSKzRTqDCKbF1qYe0pE0pc5NCwBKOaBiSt5ujwcA4+eG6bMisL8XZUyLtf3yZ8Z+LxZK55iAwb7vh1M6cnSwN3wWwFCV8tQMwa1RjVphgo/z/8MXpy5+UDpE1MZ+jV4/PDiPHNvTXboTQKmz0wKAUi6Y7feHeFJGAACgv6dzJwFTusmKs7QtaRfAmFSl5NpNZVVahpkdbD02ugfg1cbaqJulc1Qd4cGuri1ej9UBQFfXllMEDqVzSGFgPhE9mi0EN0hnUSputACglAOGwtDrDgBmTtR7EcPfMQC2dKV0hthgx24qiTur8zpwbg8AMbtWrIlcxRofn/4D8L/9/2VJHQP4mZmA3ZItFG/P5XLeHzes1Hgl6qJbKYdZAL4vLEoQ6+9FGbOnNw2TQU7N/6NSX5Un92lY5/YAMDA/u3zTYukccULwsphnKQWvT2M5UzlVTsyv9QJurUx7/ePNhfWN0kGUigMtACjlDq/HAJJk5NL0wwD8bEElLMouX5/4G6mlS98yB2CX2qcPDTz1yIFqvNDenm39To65pEpuFWyi518xj7Ctvys8Kh2jVg50PXbQGNolnSMOrOWVFZiubH7DrXrqh0o6/QuglCsYXo8BJMlQGA6D8bB0jqiwMYnfA1BKT1sLhz5jucrb+5nIwS4A49aRjREaK+I1SOeoNgYnp/1/DDP+RTpDjMwE8e3ZzVu7MvngCukwSklx5uJEqcQj7QDwCRPukc4QFV+PDpuYilPz/4aoqnP7xNa5PQBgt45sjBIR+ff0HwBV2Nv9K+dSAn0dvnacTV4LkX2sMV/84tKl18yRDqNUrWkBQClXsO4A8Alz+T6M7nbwDyHxHQAEcmqpHJWrO7fPlHKuA4DAjUvya+dJ54gDJg+LeITegae2VWXMxSVD3eFxJnxLOkcMGSb8Vin94g+zhbbbcrlgpnQgpWpFCwBKKSVgf+/2I2DslM4RkQVLVgYZ6RBScrm31zOwSjrHeBFwfN/TnU9X8zUHusNeAMer+Zq1kDL1a6UzxAGBvCviEfPd0hmkGDZfkc4QYzMB+vhInf1BtmXDx/W0AJUEWgBQSikh5PEYgKkk9zSAkdSPrgDgzEUkg7ah+t0oFoztVX7NyFl2a3QjCpkVbTkG5kvnqDbL/r7fXkh/T7gNjL3SOWJuLphvG6mbuy+b33BrQxBMlw6kVFS0AKCUUkIqbHw+osnHI8TGhcit9n8QOiN5XVPdvQK14NroRhSM9XD7P/DsYG9norfhs+EvS2dwRAOIb69/frQjILNmzSzpQEpVmxYAlFJKyP7e8GkAXs6kEti7FuLxsmSdeopswZHM67OhjiheN2IrW1tvnCEdQpKF8W7+n4HEtv+/5JLU7H8GkJgjEKeKgflgvo2Gp/0wW2i7rbkl8O5UDJVcWgBQSilJDC+3UjMwv7E1aJbOIcAQyKXjpYanlY4+GcULL5yFJ+He9vH0yZEXXPrzqzZDYO9OQ0gxEnf836t1dW05RcAXpHM4aDZAH6+w3Z/Ntz2ULQQ3SAdSaqq0AKCUUoIMsEU6Q2QSuAegaWXbMgCzpXOMHz/R19dXiuKVwzAsA+zcosuKayMcVZTJt7UA8OpYNAKOv3GOcbEbperSI+YfAByTzuEoA6KrALslU9iwL5vfcKseIahcpQUApZQS9MY5poMc3JY+HpzAPQBccesseQIivTGK+vWjQOzWCEc1kSEPi3Z832gxSvX1hScZdLt0DtcRuBHEt5fSL/5XtrBhS2ZF8CtBEKSlcyk1XloAUEopQWEYlhn8gHSOSHDy9gAwzDrpDBPBJhXNAsAxxO4tAgTRFUm9mGdm7+b/k7z9/2zKRH8H4IR0Dk/UA3wDWXvnoeftf2YKbV9Ykg+WSYdS6kK0AKCUUsLI3wvUuU3L2vLSIWqLXWofL9edxhNRfoGZdZc8AcC1p68z/+sFtEiHqLUgCNIenoIwXF9O+VlgnaSh7vA4g3QXQJUxMJ9Af2DIPpUtbNiTKWz4dOPyRO7BUQ7QAoBSSgmzr5t5P4BI5rClWWMS0wUwtiV6oXSOCdjV1xeejPILdHVtOQXAuePXKlzx7Ub4gg49jysAzJTOUV30cNTf4y4qX0qfAzAkncNfnCPwZ9jYZ7KF4p7GQttnmgvrG6VTKfUSLQAopZSwwR3fPcFAJEexSWNKzh6AMsOpm0aO6Pi/s3whB/cAUOL2AFj4t7STwYnf/n82Q2E4zMb8sXSOhMgx6NMVmH3ZQnFPttB2W2MhcOqzQvlHCwBKKRUDxOTlGACBA7S3J+KzhuDY8jhTo/l8Mu7tAYBbxZxqIFjfinW2PGLulw4RV4O7w28BeFA6R8LkAPo4w3ZmC8UfZAvF27MrgquSunNEyUnERZlSSsVdpa7ubukMEZmdvTtMyh4Ap24ajTHba/F1RgjbANhafK0qmrdkZZCRDlErDQ3BdICukM5RXbx9qC88LJ0iztjw78O9HR2+aABwK6x96Lnn7X81Ftr+v2whuCGXy9VLB1P+04qTqorG1mAugLmVip1jyMxgYDYxZhJXZlrQTAJf+vIPZqoHYcZrX4VfPgqNQM8zkQUAYnvKAscJqeOw9oSp4+NkUyeGgeND3aGXx6ep5DnQ9fDBbKH4NADvNggT80YA3dI5orR06TVzSngxJ51jAvr6u8KjtfhCQ93h8WxL8WkwnCoEUcUWAQxK56iFabPsWgtMl85RVeRnV1U1De7u7MsWiv8I4FbpLAk3l0HvBex7R+rmHs/mi/czePMldbPvH9ujolRVaQFAnVdDQzB9+iXlRWWYBkNmkbWVXzBkFjHsQoDmApgHYC6XrQHGWkrYgsZ+PoPG/j/97EUJ5/Cz/8AAwPyq17CAAWyFAFjUAcgWisDoGerHCThkQUfAfAhEPzJEh5hxmFA5Yjl1aOEcHNazgFWcMfG9xORdAYCBKwH8jXSOKJ1Ovbj+nG9t8VTTnRNssY3IsQIAuA3Av0rnqIWK4U3Ejn0HX4A1xteuqqri6Rd9Ci+evJmIFklnUQCA2SC8m0DvPlF+YTjbUnwQ4M31IzPu3bPne8ekwyk/aAFAARh9gm8rWEZcaQbozWDOgagZsAsrMCAAzBZEBAbjPHfxEmYDmM1AA4HHojH4zAICWTz3PGy2UDwE8BDBDFm2B41J/cCyPZiGHRp+IX1waCgclvyFqISzqS0g+2fSMaqPi2hvN2hvd60NfNwIcGv+n1DTufwU4VEL/FYtv+bUeXck3jkRk28LAPv27woT0b0xVYM7vnsi0xJ8AGwfgY4Gx810MG4C6KZS+sVyplDsMODNllN3D/aGz0qHU+6K1V2cqo3G1mBuZQSrDNlVYFwOwioAC6RzxcQhgPsB6mfiZ1I2tddyqn/gl9uGpG9esvniD0HwskLP4PcN9nT+b+kcMWAaC8XnGJgvHaTajDGX79sdPimdIyrZfPFxEJyZoa6kKz9/oOuxg7X6ek0r1i2wNvVcrb5etYyMmDf6PkeeWbNmFg1P+zE8eijExH852N35SekcLskU2r5AoD+QzqHGhxlPGsJdsObu/qfCvdJ5lFu8ebNX59bcEjRYskW2dCXIFrlsF5uXSj9aAnq1BQAtABAQEyxZgCyym7eWUCj2A+hnoN+w6bGpSu/CS1L9OlagqsgycD+AD0sHqTY7ugfAywJAQxBMx/N2pXSO8WLmg7W8+QeAfbsfO5QtFAcBOLVYL52urAfwLekcUaLhuiI8ux40DJ3/n6D6kfmfKNX96GrycA+Nj4iwioFVMPb/yRaKexm4O2XMXT4X2lX1ePWGr0Y1tASz6y2uBVV+kZmKFbaLxobqAc9m/GqoHqMfissIAJMFWcJzz9vhphUb+qzlbjD1sKHeMtCtywnVZDHjHiL/CgDE9koAn5POEYX0cVyB0fcIJxgyHTJfmbcB5FQBgIja4HkBAGw2efYw4FB/T+dO6RCu6eu7s9S0su09tkLfh0PvZwoA0EzAn1pr/zRbKD7L4LtTTJvfOMd06EMqdTZaAPBEZkVbjtjcAPAvgu1aJqQB0if80ZtuLa8EsBLEIObR5YT54kEYdIPxfcvmyVQdnqzVxm3ltlN1P334ovJFw/BsIzeD1gdBkPbxYoTYOjUrzkCnyBem1KNg+0GRrz1JxiRgDwAhkI5QXXyvdAJX7dvV2Ztt2fApMN8mnUVN2kIC/Y4l/M5zx+yxbGHDvcy8uTzHPDgU6p4rNUoLAA5rbgkaKuB3wPKHYNE8tjtfxQFhERiLANxkyILLQGOheJhBTxLsLkbq+/Xl09v37HlcN7qqVzjU1XUqW9jwMMA3SGepspnPnsAqAE9IB4mAUwsAyZJIB4A12GYqEl958qzlfC4XzOzrC09KZ4nC2PGVTp3OcEEmdZd0BJcNdD/6uUxhw1sIfLN0FjVFhDkAf5AIH6x73g5nCxseJuY7S8bcq52qyaYFAMdk8sFCkH0vAe+ssG0BoE/5HTG62I1vYNANgEUpXWez+WI/G+wkNo+bVGX7vps2PS29bFDJI6J7mL0rAMCUeSN8KwC0txts3urM8j8AR6UWRu3fFQ6OnsTi1NLZ9Mg0XAHgYekgUTidOrWRQD5tfj9Rd/qI0IiLP6aVS/+jlK5rAdAgnUVVzXSAb2DCDXVsS9lCMQTorpERutf3RafqtbQA4IL2dpPd/PD1QOqjgL0eekyLLwwIzcRoBuz7bYWQ3bz1JAptTzLoCTAeZ5Sf2N+7/Yh0UFVb6TrcN1KChWd/1xn2SgB/KZ2jmrJ3h3kAs6RzjBeDtsl+fWwj4B2SGSaKbKUNnhYAiLBJOkN18f19fX0l6RSu27Pn8WOZfNsvE9Fj8GwcTQEY3fFwNcBX19XxlxoLxSeYsRlc9+2Bpx45IB1ORc+ri0vfNOSC+Y2Fts9kN2/9IWC2jLUE65+Z32YCFBDwp0S4x1D6R9mWtv3ZfPFrIMyWDqdqo+/74WH4uDGfaG0u93avlksRV9yaESf7qOzXJ9mvPwkW/u4BYJiN0hmqyYA2S2fwxWBv5y4A7wGgXYl+MwysBeHzMCP7sy3FnsZC22eyLUGLdDAVHb2ZjKElK4NMtlC8va7O/oBBnwawUDqTEsS0GIR3w6GnjGrqiMjHY6xmlOv+e7V0iOoip+b/YSHaHp0qW9EOhMkg4IpcLudV4QoAmlasW0DgRukcVVSqTD/9gHQInwz0dHwbhD+RzqFqiJFn0KfBdncm3/bDbKF4e3ZFcFUQBNo17hEtAMRIdnmxmM0Xv2MqdgDArdC2K6USK2XJy03WFuzVE0cGXHo6fHLhnFSvZIB9T3c+DcC15aczynWXefc0rGLrvPq7SOCtgzt2nJDO4ZuB7o6/ZvA/SOdQtUdEiwDcCmsfeu55+1wmX/xiYyFw6TNPnYMWAGKgsdC2OlvYsAUGj4JwvXQepZS8Z3rDpwEMSeeoNhrdA+CF7PJNi+HWQrvtMTiG0QK0XTjDJBjvLnoJ7NX8P8No+39EBns6P8bM/0s6hxI1jwi/xbCd2ULxP7OF4u1aDHCXFgAEZVuClmxhwxYG7fDwyC+l1NR52AVAVzQ0BF50NxGNuHbx0ykdAADA7OAeALeOehwPZutTB4Ctq/ezayouBt+26aMEfFM6h4qFhQBuZdjOTGHDvsZC22eaC+t9GifynhYABGTywcJsvvg1sN2tN/5KqXMyZot0hAhMT8+GS8fmnZMFu3VTaGTn/19CxLHIMREEdq3Yc17Z5ZsWj7X3+mLn2PJUFZX2drvgUvMegO+QjqLig8CNDPp0BWZf04oNXdnCho/kcsFM6Vzq/LQAUEO5XK4+m99wK5F9Zmypm1JKndObLkEI4Lh0jmozXPFiDIDIqe3wpZFLzE7pEACw4NLULgAnpXNM0NzG5UGzdIiqMeWrpCNUFen2/1oIw7A80NP5HibScQD1GtbySoC/PFJn/ytbKH65aWVbXjqTOjstANRItlB820jd3H0gvh2AVsaUUhcUhmGZgQelc1QbA863Hje2BnMBOHNDyMCTQ2E4LJ0DGP2+BvMT0jkmLOXUwscL8aII9xKqaPt/DdnB7kd/ncF/Ix1ExdZMAB+xFerJFto6sy3Fd/t2BLDrtAAQsdzlwfxMYcNmAHcBaJDOo5RyCxE8PA6QVi9obZ0hnWJKKhWnbgYN4tH+/xImE499BBNgrXVr5OO8vDqNY2//U+Fe6RBJM9jT+Ydg+l0AVjqLijNaD8bXRup+9Fy20HZb04p1Li3O9ZYWACKUbWn7YLlknyHwzdJZlFJuGoG5H4D05vZqq7/IXrxWOsRUMGiddIYJoZgsAHwJUawKEuNB5EcHQGZFWw7APOkc1cP69F/IQO+jf8cGtwA4JZ1Fxd5cgD5ubeoH2ULxS80tgT4UFaQFgAg0rVi3IFsofp8I774AACAASURBVA9M/8bAbOk8Sil3DXWHxwHeJp2j2that48gYxSlI0yALcHE6ui9U6mf7ARQks4xQYt9eHplrPsjOGdiTun8v6DB3R33gsw6AAeksygn1AP4jQrbgUy++O9e7VZxiBYAqiy7IriKbaoLwNXSWZRSfmAPxwCIEUhnmKyx8YUW6RwT0DtaSIqPQ11dp8DYJZ1joio25XwXgIVxu/j2SkcGe8NYLLdMsoHusLu+PHI5PNxZoyKTJsL72dg92cKGLU0rglXSgZJECwBVksu9vT5bKN4Oax9iYL50HqWUP6hS71+LK2GVq0cFzahcvBqjTzGcwHHtIHHwOEC4dvTjq7W3GwN2tvh2FndDZ9BjYc+ex48N3LLxOgL/39A/EzV+BuAbrLXfzxaKd2WXr18sHSgJtABQBdnl6xeP1P1oB4BbpbMopfwz8NQjBwD0SeeosnQl7eZMNbF1K7dJPSod4WyIKJa5zofg1NGPr9F0T7jSp9FEw0bb/+Okvd3293T+T4LZAMZB6TjKOW+DMc9kC223ZdZcN0s6jM+0ADBFTfniRpD5PtxqB1VKOYYA77oALJzdA+DUU+D6NGLZATC2l8C1J4X5zJo1zl6YWvZq+/+JVPn1W6VDqNfq7wm3jRhTIOCb0lmUc+oB+jgN/3QgW9jwEbS3671qBPQ3dQqyhQ0fsYTvgTBHOotSym8VwhbpDNXGcHAPwOjFiEsnGAz2fT88LB3ibIa6w+Mgelo6xwQZDE+7QjrEpDG7WnR7DQYe6Ou707VFkokx1B0e7+/peCdgbwRwSDqPcs48gL+c/fbWPY0txeulw/hGCwCTkMvl6rOFDf8G8JcBpKXzKKX8t7+74wkAR6RzVBMRVrrW5pf59iMtAFzaXRDrOXtmG+t8Z0OOdYC8JJfL1QNujt2cjbb/u2GgZ9t9lDYFgO+QzqIcRGhmxneyhbb/s3TpNfrAtUq0ADBBuVwws1x32T0Af1A6i1IqUSyA+6RDVJmh4Z+4dJweCMatGyjiTukI5xXT/QTnx259D4wp181bDWCGdI4qKZcMHpAOocanvys8OtDT+atM5kow9krnUS6id5XSLz7T2BLcLJ3EB1oAmIDc5cH8kTrbyaBrpbMopZKHiD0cA6ArpTNMiHHs6W+lPtZP2Mun47mf4PzoirGn6U6x8Gr+f2vcjrZUFzbYHYZ15TcUAHwKwLB0HuWcecx2c6al+O8NLYE3y0wlaAFgnLLLNy0eKdlO6LI/pZSQk6lTDwI4JZ2jmgjk1E0JsTtPfwk4PHaCRGwN9YWHAQxK55ig6aXp81ZKh5go8mj+H9D2f1f19d1ZGujp+Atjpi0B8M9wbxGoEkaM99ezfSaTL94kncVVWgAYh8yKthzMyOMAMtJZlFLJdair6xQYoXSOKssvXfoWJ+b6lqwMMgzMl84xXjbm8/9ncCXny8i6dRTkgtbWGSC4u7zwVYyp8+5UlKTZt/uhQwM9HR9l5ssB9u1zTUWMgflEuKcxX/xiLvd25zqypGkB4AIalwfNxtIjAOZJZ1FKKRDdIx2hysxIXdqJPQDGurVAzRA5MV9PBk7kfBWnRkEushevBeDLRfLOfbsf+v/Zu/v4qO4yb/yf6zuTgJQCRaSIbI0lE3CgSSBtaSkMx9JSn6hWrevqVlfdJ3XV7e3teru+/BlvV91dd911Xffnro/rQ3Wt9onaB6R4mFCkLYHMFEbIDBhZylIaKSBNITPne91/JK19AjLJzFzne871fr3qQ0uTTwKZOec61/e6dKp8RJTyPduLuZ5XEcxKgKI250bVGRPeX2569Bepi1ZcKJ3FJVoAOIPWJSvTbOwml574KKWizZhK5C6QmB2ZA8DWqZs+qlgnztcbNs51AMCxYhBbG5n2f+LIFUEVgP6cv7mY27R2pBCA9dJ5lFOWwpiHWjsya6SDuEILAKexsGNFG1n6OfTJv1IqRPbsuP8gM7ZJ56glBpyYA8AgZ276CDi6Z2fPTukcY7G7zx8AcEA6R1UIM1uXrExLxxgrcuRnbCxswt4mnUHVz0ghIHsNgZeBcZd0HuWMmQT8tLVz1fulg7hACwAvYMGSK+YGMPdCb/6VUiFEhEg9ASNgcVuXN0s6x5nMb18+m8Bt0jnGikGb4dRwLXaiW+GZyLqxErJ12WumAXBuaOFplEo7egrSIVT99ed6Hizms69j5i4Q/RhARTqTCr0kMX+ltSPzZXR36z3uGeg35zlaly2bZm3ipwBapLMopdQLMQmO3AAsWw486QxnYijpxM3e0wg90hGqk3BuDgDBkSMhTz7hAUhKx6gNvkU6gWqsUr5ne7Fv0/Xlsvk9EH0MjP3SmVS4EfAXqVs23trS4k2WzhJWWgB4hnQ63UxPNv8EuupPKRVie7b35AEMSOeoJYOQzwFgt4a+sSGnztWzCZzKC7hzJISAcP9sVcFGbwiqGqOBgn+o2Lfp74v57CtgzNU6MFCdEeHapunB3em0N1U6ShhpAeAZhptnfQ1EV0nnUEqps2EgUhc/oZ8DQFguHaEKQ80nD2+XDlGN0bbuQekcVWppbffmSYc4KxPyn62xO7y3L7tVOoQSZ4s7/A3F3Ka1CdgFAP4FwFHpUCqMyBtusvdqEeD5tAAwKtW+6kPEeKd0DqWUGqN10gFqirCwJe2FcuNKV9faKXDqDDU/WCgUhqVTVI2xRTpCtQzCvQ2grcubBUa7dI5aYKI74NRcC1Vvu3Ob+4u57IfL55mXMvD7DLoNwEnpXCo8CFhebrY/HX0fV6O0AAAgtSSTAfE/SudQSqmxai4P+gCOS+eopeZkOOcAnCgfuwwOnaEmwLl2egAgIufmANiQzwGwFqH8mRoP4kDb/9ULGvD9k6Vc9kel3KbrePI555PBuwh8D3RwoAIARuZY5di6dPr6ZukoYeHMBU29tLZ782DtzdDvhaQhAIcBHAZjEIaGiO1JBg0BAAjHwWwZZIno8af+JYadTvzM3zeaDGAyExkCZhDbqQxMNcZMsZZnAJgKYMrofyvltEKhMJzqXLUezG+RzlIrTPQqAD+UzvFcAdEKAkvHGDM2CccGAI4gQ1m27nyfAYBMuOcAkLWrpTPUyInyseQG6RAq/EoP3H0cwHcAfKety5vFleAtYPoDEFZAH3zGFgFXVpoe/S6AP4B2EsX8pre729BtG78P1nV/dVQBMABGP4B+kNljGAMBgsNA4nBlJgYHfL+h7Vrp9PXNwaSDs1A2s2BoFoNngzALwEssaCZA88A8zxDmMRDKlmSlAIDZ3k6gyBQAENI5AMR2JYikY4xVpekUnDwn/dLp6HvkcZyAS0Va5sUtnd6MgT4/lGeQGbjSmT+5Z7Z+YKCx1wrKff29/iCArwL46oIlV8+1tnwtYK8D4AHQp8Exw8BbU+2Zg8V89kbpLNIi8r4wPm3tq/6aiT8rnSNCjgPYyqD7CcF2m0ju/r1pGPB939kWLM/zkvt/m5ybrFQuAGMew84D8XwwWkF0IUbWRWpFeYIYfEMp1/M96RyuWbTo8pnDyaZHEaFiLrP5vVLePyCd4yme5yUfedw+DkduSpmxrZTPXiKdY7xSHZl7AayRzlENIryuvy97l3SO52pt9+YR2f+WzlEL+h6haql12WummSdPvJbJvAHg1wKYJp1JNQ6R+ZP+Pv/r0jkkReaisVoLlngXW2s/LZ3DcQMA+QB+YZm27M37BTynrWavTK6aGS1e7B/963nS6XSzbZrZYsm0sqVWJk4BSBOwGNDOElVfu3b94kiqPbMFhIx0lpqhwAMQmgv9/zmGTjhy8w8AIHby/P8z9MCxAoAdWREZugKAgb3SrQMVp1WpUCJSW0+UrNFjAj8E8MN0Ot083DTLI/B1AF0LYK5wPFVnzPYrrUu9naXtvpPdcrUQywJAV9faKccrx36AmH79E9THoFsTCXvb6C7yWBudtN0/+teztHV5s2yAxYaDxQy6iIDFPFIY0Eqzqhkiup3BkSkAEOhVCFEBIOBgBbnULGfcG6T3LAZZ105nEjiUcwAssNqhP7mnxUA2rEcslPtGr+PWj/71vgVLvIuDILiOiK7FyDWbip5mE9hb57ev6dibX39YOoyEWN4AH6sc/QyBWqVzOGQrE/9XEonbdvf5A9JhXDF69swf/etp85d6rcnALrWMS5iwlICLoUUBNU5Bgu4wQaS2mIRqDgAxhXrK+3MZY5xbpfdM5cfNg03T7TCcOp9LF6fT1zcXCjeHavUiIRobAAz4VukMKj727PC3AdgG4BOpi1ZfSKbyRiZ+A1iHCEYJA3MMnfoGgLXSWSREoThclVSn1wm2DyGmxY8qHAXwHcvma3vz/k7pMFE3f6nXmqgEF1vCJcS0HISlcOoCeGL0fOfEpNozvwRhoXSOWkmQeUVYio2pjsyjcOc4T6GYyy6SDjFRqY6VPUC4p+s/F8Gs7M/5m6VzPGX+Uq/VBLYonaMWgmTw8n2997/gMTylGqWty5vFAV4Pa68D4SqMbJVSjiPmP+nP98RuHkDcboINrP3/QbH7useMgEMA/8cwJf5JW+4aZ+92vwSghNEVaJ7nJQ8cCdoJZgUMVoI5A3duQlSjEd8BUGQKAAECD8C3pXMs7FjRFrj1c+f6+X8AAIM2E+BUAYCJlwMITQHABByqTprxMoa2F/XmX4XAaFfntwF8u8XzJjcdwwpYu5aAt+rGKHcx0ZfmL/X80evw2IhVK0tbx8r3g3CZdI6QOgiY9yXLgy/vz/V8Sm/+Zfm+Xynle7YX85v+pdi36fpiLns+G7xBOpcKpwTR7dIZaolH5gCIq8A4dRMKQo90hFpIsHFvjsHIIMDQYPBq6Qy1YK22/6vwGfD9k8Ud/oZiLvvh/uuufBnBrGTwF0G8TzqbqtoUCux/ors7VvfEsfliWzq9GQzSqf/PN0TAx8vnmfnFnP/V0WEoKoSM5UPSGVQ47X7jlVsBDErnqBWy4Ti7TMAV0hmqESSC0DyBnojgRU9uAdwaBTg6CDA011SROf8f8B3SGZQ6o+5u25/zN5dyPR8p9vXMt2wuIqJPMGObdDQ1NgQsb711419J52ik0LxZ1VsT7CcAzJTOETK3MJsF/bns3w74/knpMEqpcerutgBFZ00W4YLURasvlI4BuLNekZn3R+WcdOmBB44D6JPOUQ0GZryy3UtL5wCAV7Z7UVlDu2/PTt02pNyyN+/v7O/b9LlSPnuJMZNeBpj3YWTDgD5gCzECPnVh11UXSOdolFgUABZ2ei1g/IV0jrAg4CiDbyjmsm8u5f0D0nmUUrXA66QT1BKbsugTzPnta2YDcGZbjKFonP9/Bue6GSoUjrkFZRNcJZ2hFhh8m3QGpSZiz46fHSzm/K8Wc9lrnkg+cR5g1hL4exgZtK3CZXIiKEdpo9IZxaIAYJk/A2CydI5QYN4Q8OQFOnFdqWhpKpv1ACLTyUMM0TPMhk6G4mZurBgmEuf/n8HBOQA2FHMAKCQzNCaKbLRmm6h4O9jbO1TM+Xf253puaCoPns/ANcT4NwD6IC4smN+SWpJxpvNvIiJfAFjYsaKNwW+XzhESf1N80+pr9ubXH5YOopSqrULBP8FgXzpHzZDwGeaQDXU7G0pSpDoALFec6wBAGDYXdHcbsDtHV85gsPjmK138M6DUWRUKheFSLru+P5/9QDGX/T1jzCXM/DkAunZbGtOX4zAQMPJfYAD6OGLwdZ7FMAjvKOaynxw5K6yUiiJCIkpPzOYu7FjRJvXJOQw3c2M32N/r75YOUUt781sOA3DrayJccGHXFaJnSNtuve9iADMkM9TIHXq9ouJizw5/Wynf84liLntRgswrwPRhMG8AUJHOFjvM7albf/7H0jHqLdI3xq3t3jyA4v70f5ATZlWxL3uTdBClVH0xIzqDAAEEIJFd5um0N5UInRKfezwYFMknpczs3NeVCBKihSMmE4np/2wQpWKmUmO2u88fKOY3/Usx33M1Jc1LQebdYNwBYEg6W3zwZ+Z2dU2RTlFPkS4AENmPAmiWziHocJLNq0rb/a3SQZRS9VfK+weMoe3SOWpF6ixzeRIuA5CU+NzjQta98/JjQS7OAWDZoyPMorMzamSoMt2slw6hlLT+Xn+w2Od/u5jPvuGJ5BMvIeLrAP4hgBPS2SJu9tTKlPdIh6inyBYAWpe9ZhqAyLdwnMFhSppVv8z7ep5IqRgJbHSenLHQLnOygVPn/xOUcO5J+VjY5CQH5xqQWAdAOp1uhltHV14Qg9bramKlnu1gb+9Qf1/PbcVczx88kXzifDbmegC3IELDf8PEMj7qeZ47DwKqFNkCgDl54p0AIt2+cQYnmPk1UTsTqpQ6OyK6QzpDDc1uXbKy4bvVreBN3DiceOl09EmHqId9vRv2g7FfOkeV0osWXT5T4hOXE7MuQwSue4zhW6UzKBVmB3t7h0o7/B8Xc9k3N5XNSxjmBgY2AtC5GTVCRBccPGYje4w8sgUAhnmfdAYhFRhzXSnfE5k2YKXU2BX7/D5EaK2QsWjoHADP85IEXNbIzzlBW3zfj+ygKCLnthuY4WRiucQnJhOJ9v9K0/CLIjXLRKl6KhT8E6Wc/71SLrs6QWY+gz4FYEA6VxSwxccQ0XvlSH5RbR3eCoAb/tQoDJj4o8Ud/gbpHEopOTQyMCgSuMFzAA4+HiyFW09Re6QD1BM7+fWRyBESJorAAEDevGvXvUekUyjlot19/kApt+n/FnPZ+YaxmoAfQTcJTES6rXPltdIh6iGSBQCA/0w6gQz6Yamv55+lUyilZAUw66Qz1FAGDX2vMi61/wMGrj0hrwolnesAAAscIZnb1TUF7FTnygtiis4ME6UE2T357Mb+XPb3jQleDuBvCDgkHcpFzBTJjvLIFQDmdnVNYfAbpXMIGODJU2Ja+FBKPdOkyks2IjpTgmctWLpycaM+mQVcGgA4XJ5uHpQOUU+js2wGpXNUg4CLWzxvciM/55TKOSsQga1HSSRuk86gVJTs2XH/wWIu+8lkefDlILwDiObMmDq6amStfLRErgAwxZ77WgBTpXM0mCWYG0oP3H1cOoiqH7bU0AtK5a5C4eZhEN0jnaNWggbOASCwyPnt8WBgW0ympbvWBdDc9Bt7aSM/ISEC5/+J8rv7fD27rFQdFAqF4WJf9qZiLruECK9jYIt0JkcYQ/YPpUPUWuQKAGTtH0hnEPD1/pwfyTVQ6nfYQAsAaszIcmSOAZBtzByAhR0r2gDMbsTnqgXj3o3xuDCxc3MAiBp7DICZGjossx6IrT79V6oB+vuyd5Vy2StgsGp0e4A6Awt6t3SGWotUASCd9qYCeK10jgYbbK6UPy4dQtUfwTjf3qkaqMnchYisBCJCBt3ddX+/qrh2/p9cHJA3Dta9Qocl27CjJC2d3gwiLG3U56sXpoSu/1OqgYo7stlSLruagWtAyEvnCSsCt7W2e87PWHmmSBUAhpvsa4F4PSUl8Kd37fqFTsyNAe0AUNXo7/UHAY5Eix8DM1pvua+z3p+HhKa3j5O1k86JRedX6U2r+wA4dcSNQMvRoGuspLUNHpRZe8y8f3SFqVKqwUq57PpiX3YJyLwbwEHpPGFEZN8lnaGWnH7DeC4Cv0Y6Q4MNJMtz/kM6hGoQqwUAVSWiyEzUNmTqv+KMbKbun6N28rGZ+9LdbQFslY5RpWmNGl5JBOfP/xPoFukMSsWcLfb5334i+UQK4L9HRDoIa+j10gFqKVIFAIDWSCdoJAY+UyjcPCydQzWGIS0AqOpYYyJzppa5vkPOWtLeHDBdWM/PUWPOtcVPBBFtks5QLbaNOVLCaNyQzHphYyJTrFTKZQd7e4eKuZ6PccJcAVBBOk+IzJvf7jVsI1G9RaYAsGDxynYAc6VzNAoBh5rL539POodqIA60AKCqsne7X2JQv3SOmiCs8DwvWa8Pn5wEp87/szHxOP//FCbnCh7M9V8pOb99+WwC3L4oZRyZNwOxOM6ilCtK2/2tTeXHloDxz9JZwsLAvlo6Q61EpgBgkyYyvyljwcBX9Ol/vDDrGkBVPSK+QzpDjUw7+HhQt0FnZBs3tK0WKqfidcOULL/kQQCOrTzkuh8pSVKy/kdj6owN7vR9vyKdQyn1bIVCYbiYz94I4M1wbA5LffA10glqJTIFADSg0h4iFWMmfVM6hGow4pdIR1DuIY5Oa61F/VadGdPYtW0TVBoo+IekQzRSoXDzMAgPSueo0tyFnV5LPT+Bhfvn/w2MTv9XKsSKuewtNmG6GIhGR+F4EWW6utZOkY5RC9EpAIAjtZ7hzOiePTt+plM6Y8c4s59chUf/dd4WAIPSOWqBgFfV4+Om095Ua7nuWwZqyLl2+Fpgy851PVS47kdLXD//f/LcxLnrpUMopc5s73a/xDx5JYjivC6w+bfBMee7roCIFADmL/VaAcySztEoxPR96Qyq8Rh2jnQG5aDubsuEu6Rj1MjyeswBGG6yDVvZVhPE8Tr//xQHBwES6ne0pLXdmwegtV4fvyEI63t71w1Jx1BKnd3e/PrDZdAqsHNbWWqHeZl0hFpw54LnDBJsl0tnaKBh+6Ino3Ixr6pAIC0AqPGxvE46Qo1M/e+j9tJaf1CCY0fIAo5lB0Bz2WwB4NpZ8bp1AJAJrqrXx24cbf9XyiUDff5RftE51wDYKZ1FAsPUbRZRI0WiAMCWL5fO0CgE3lh64AEdxBFPegRAjUtzJXEPgEgMDU2A6tB+xy6d/z9YfHjzPukQEgoF/wQz+qRzVCm9aNE1M+vxgRlUlyMxDWQpgTulQyilqlN64O7jCTJrARyWztJ4rAWAEHF7BU4VLNxrgVQ1E5tjLqq2CgX/BABfOkctWOaaDj0bOVJANe8qqBdGvKb/Pxc5+PWfan6yLgUmYtfP//OW/l4/EvNJlIqb3X3+AMG8Ge51ZU3U3Pnta5x/IBeRAgClpRM0SpLiOfwp7kafIDVL51DuYqJIbAMgYHk6fX3NfhYOHMHFAJyZ6mscPAdfS2SMc18/BbU/YrKwY0UbgHm1/riNRNr+r5TT+nP+ZgJ/TjpHoyUx7HwXgPMFgAVLrpgLoC7tdSF00gyfv006hGo8mzg1VzqDcpylO6Qj1MjkcuLRmm19IViX2v9BFevcE/CaSrjXAQCq/RyAoI4rMRuFbfI26QxKqYmZe17iM3EbCsgROAbgfAEgsInYtP+D8GChcHMkzvGq6pQRLJTOoNxWyvsHAOfOT78gNjWdA+DMAEACju7Z2RPLwUtPGW0ZL0jnqNLFc7u6attlQqamR2EajpAvPnxfLGdZKBUlvu9XOMHvRYyOAjDZlHSGiXK+AEBMsbkxYsYW6QxKhoFpk86g3EfgSHQBUC3nABCc2SLDoM0ArHSOEHDtKFxySnBubedMMLu9i5oRidcipRRQ2tFTAPB16RwNw24fvwIiUAAA+BXSCRqHd0knUDKs4QXSGZT7LCMScwBAuKzF8yZP9MO0dXkL4dJwTUKPdIRQcPD7QFy7oyYLFq9sh0t/bl8AM+v5f6UihJLmkwBOSOdoBCZzgXSGiXK/AEBw/jdhrJhI2+Viihix6XRR9VPK92wHcEA6Rw00TzpiJ/7kPqjfjvZ6YEOuPfmuC7bGxe9DzY6aBEnXp//j4OhrkVIqIvp7/UFwPLoACKwdANKY41MACIaNFgDiS48AqFqJxN5tS5jwDnQL68z5fwAnm08e1psmPD3PYkA6R5UuQ3d3Ta65iN0+/8/gW6QzKKVqL2hq/ifEYxbAlEWLLnd6AL3zBQCKTwfA0EDBPyQdQjXe6L7RGdI5VDQYNpE4BsCY+FNQYpc6AHhroVDQIbCj2L2VuNNab7mvc6IfxPO8JMCZWgSSQiYRidcgpdSz7evdsJ9BkXjIcDaVSUmnuwCcLgCM7oKeLZ2jMci1px2qRsgMp6UzqOg4dRw+InBOj4CLu7rWjnuy+ugK2QtrGKmuyL3Bd3VlLLs3BwBmwgWng48HSwFMq0EcEQQcfdl0+NI5lFL1kQD/QDpDIwQBzZHOMBFOFwBwzmNOt19UhVkLAHHFtmY7z5UaGPBPAlgvnaMGmo9Vjo37hiqwCYee/gNsEs7d8NaTIXavIGImPgfAgpw+/8+Mu3zfj0OLsFKxlCibuwCclM5RdwYTHkQsyekCwHAliE8BgPi4dAQlhZZJJ1ARQ7xOOkItGExkDgC7dP6/0nQKW6VDhMnu3OZ+AIelc1SDmCdcdKrpCkwBDJ3+r1SUFQr+CYA2SOeoNxOYcXcghoHTBQBjE7EpADAZ51t21fgQuLb7o1XsNZen3IEI7JNnYNy70AnkUgfA9pGLKvUcm6UDVIOBOamLVo/72Ek6nW4G0cS3X8gZbq4k7pEOoZSqMwdXtVbLktUCgBSO02A0ttFvp1HP09ruzQMwVzpHAyyr1YRsdXa7dt17hBGJJ8oXp9Pe1Gr/pdZly6YBaK9DnrpgsFM3ug3DtEk6QtUSw+Me4FeeNOsyAO5edDI2aCFLqegjpi3SGerNgN19LYbjBQBiG5sOAAPSN81YCmJx/p9Af9F6991V38ip8SOiKEziTlaabdU3VPzki5bDpfc/4+CNbiMYcm4OAMNcMd5/l6zb7f9kjLb/KxUDw8ewDRFfB8hEOgNAiuvf/Gow8IR0BtV4ZOJz/t9UXtQsnSFOKEF3SGeoBR7HHABDdtw3YRKMMZF/mjIexTd6eQBOzceZyByAWqy+FGQD2xyJ1xyl1JmNDhveL52jnphJOwCkEGxsbhgINCSdQYlYIx2gUWzZ7Ymqrunv9XcDKEnnmChD45mKPvFhbA1U6O/1B6VDhFJ3twW7NQcAwML57curXl88svKSnJ0HQ8DWvfn1Tg1tVEqNHwOR3l5myO0OB6cLAICJTQGACUnpDKqxFiy5ei7YnXPKE0WciM3Pc1gw2PknctZyZ0unN+Z5MOl0uhkgl47WuHaD21Ds4LCphGmuZIi1zwAAIABJREFUepDf6MpLZ18jmaDt/0rFCEW8AMCWh6UzTITTBQALdvbNsFrE9hzpDKqxmMuvlc7QSJwc1g6ABiMTiTkAJmnHPgdgePLspYBD3SYEPf9/Bkxwbg6A5aDqFZQEt8//J9g6X2xUSlWDI925RsROD2d3ugAAUGwKAPH6WhUAWLZ/IJ2hkbQDoPGKb7hyMxhHpHNMFFUxB4Asj3sKu4QgEWgHwBlMGh7cBsCpI3LjWUHJPJ6jLmFBhd25zf3SKZRSjcMwkZ5dxjDaAaDqj11e/aOqtmDJ1XNpAjvOXcTWoaeyUdHdbYnoLukYE0bV/KywMwMAmXn/vt77Iz1IaaIKhcIwwA9K56jS0pEz/WPT0unNIMLSegaqpygcNVJKVccAkd5eRkY7AMQYdnsAQ5X05ihGLJ96Oxz/+awWJeIz1DNMLHiddIYaaF+06JqxrYW1cGYAoCHjXHu7DHKtSyJ5onxszHMomhF4cPj9wID1/L9SsWOdfkJ+NmzdLnA4+4YCAGzcHsBQFYbuSI+L7m4DxvukYzSadgAImXzqHgCuv5aa4eSTZ+0CaF2yMg3C2AoFIcBwb8CdCGOcm5MQ0NiPAViGy+f/D/bnelzr0FBKTRhF+r6FYJzeauJ2AQAcnw4A4rnSEVRjtN1237UALpTO0Xhc9WosNXGlBx44DsCXzjFRDD7rHACyxpmn/wBAlrQDYAymmXO3AG51BBLbMQ8CJBhnz/8T4zbpDEopEdOlA9SVhdNDDp0uABjHBzBUg0FaAIgJtnSjdAYJBkYLAEIoAscACHTWDgDC2G+6QmCw/2F/t3QIF/T2rhsCsF06R1WILvM876zrfee3r5kNcLoRkerBEqKwaUQpVS3GNOkIddWsBQAxDHJq8u9EEDBPOoOqv7YObwUITk0prxVmfql0hriqJCOxomvxyM3S6fE4pq8L0qf/VWCwa3MAph44ErSf7RclMOzs038Ax5vLg853FymlqsfADOkMdWT7e32nNyg5XQAA2+PSERpoSkunF+UfJgWA2X5WOoMUNtAOACH7eu/fD6K8dI6JIjp52i6A1nZvHoCWBsaZECbW8//VYHJuDgDM2Yu9FoHD5//prpEtDUqpuGFiZ+btVIuAwwCsdI6JcLoAYBhHpTM0UpICPQYQYW2dmdfG9ek/ABBjjnSGWGP3V3XRGeYAGAQuPf1HghKuPdEWNSkob4ZjF2TEdNYjKWTgbAeATv9XKs4osrOsLLBPOsNEOV0ACMCxKgAACWfPAaozS6fTzZbxT9I5hGkHgCBjTATO6p5+DoAluqKRSSboxEuno086hEt27frFEQAF6RxVOmNR6sKuqy4AO3sRPRyMbBhRSsWM53lJivIwa0JJOsJEOV0AIG6OVwHA2i7pCKo+yslZHyKgTTqHJIJ2AEjas8PfBuCgdI4JWpi+xHvBP0dE5FJ3zRbf952aah8GxM7NTZi9sGPFaV/3E8EpZ5/+E3jj6IYRpVTMPHIUiwGcdcips5j2SkeYKKcLAE1B4PQOxmoZcKd0BlV7qYtWXAjCp6VzSGNg1limYqu6ulM6wESVy/Z5N02ty14zDcyLJfKMk57/Hxf35iZUcPrVlMRw9vw/Q6f/KxVbzJdKR6gnItYOAEmFgn8CwAnpHI3CoKXSGVTtsTFfAzBFOkcIJA/+Bq3SIeKMIrCyi+3z5wAknnxyOVx6vzPOPckOBUpMdu77RuDTzgFgkKsdANaYSGwWUUqNAxO7dOSuaoZMv3SGiXLnguj0DkgHaKDZC5ZcoYMAIyTV4f05wd0hT7XGxuqcC0HDM8xGAE6vVyV6/hyAwARnHbYWIsPl6eZB6RAu2rPjZwfh3HCmF15NOXo0wNX3+217dtzv+nEipdQ4GcYa6Qx1VDk1HTulQ0yU8wUAdv/MalUC26Q3ixExv91bDNi4D/57Li0ACBrw/ZMMWi+dY4JaR1f+PY1Oc5MVRgxsG/D9k9I53EWudQG0zm9f87wBqAGSzr7XM6DT/5WKqQVLvIs5wjOdGNgdhfdo5wsABhyrAgCBXyedQU3c3K6uKYb4vwBMls4SLrRIOoHiddIJJozwdBdAOn19MxjOnEc00Pb/iWAH5wAYOvn8AhWxs+f/TdLcJp1BKSXDsv196Qx1xdguHaEWnC8AWJiidIZGIvCrdVCa+86pTPkGwPq0+7lIvyfSmCt3wrF96s9FCJ6+ebLNj14MlwptpAMAJ4ITxr0CCuO5R1QMmE+70jLMGNTf3+vvls6hlBLQ3W3AeJt0jHoiUK90hlpwvgBg2Do/iKEaDMw4+Dguk86hxq+tY9X/AijSL5DjxlioBS5Ze/NbDoPh+Bn0380BCBxq/wdg7aRzNkuHcNne7X6JgEPSOarBwLP+jC5YunIxgFlCcSaEYPXpv1Ix1XbbfdcCmHfWX+gwTpLj10cjnC8AsEnErtJsEVwnnUGNT1vnyjcy+AvSOUKsWTcByGP3twG0LOz0WgC80NPVMMuXHrhbd6dPnFNdAEToTKe9qU/9/8C6OxiWEwk9/69UTFmmD0pnqLMT86Zhm3SIWnC+ADAtcW6sOgAAgEDvbGnx3GlpVQCA1BLvKmb6ASLwc1dPnNAOF3GGnV/hFeCpOQC8XDZJVZy6cQ0v5+YAJMuTfve6R2xcPf9/uLTdj8TTMaVUdVqXepdFfqsVI+v7fkU6Ri04fyPS27tuCIz90jkabFZyevAW6RBq7FIXZTKw9na4dBZZCluXnthGUmlHTwHEjq1TezbiYPXIpg3MlM4yVmyMazeuoUSBe4UUsiOrKkeOQHFGOs843QbH54copcaHKsFnpDPUGxHdJ52hVpwvAAAAE0ViImN16H3SCdTYtHWsvBQGPwUwRTqLC557HlYJseR0FwCDPEOBU3+WKqeg5/9rYM/Onp0EHJXOUQ07OqviwBFcDGCacJxxIfePDimlxiHV4b0eRFdJ56g3y9aXzlArkSgAEDgSExmrQcDyBUtXtkvnUGeWuiiTYdDPAEw96y9WAAAC2p4+v63EsDGuX8zPA+jd0iGqUBoo+E4NrwsxyyCniikEXOZ5XtKAXW2hPZEcPn+DdAilVGO1eN5kwH5ZOke9EXColO/pk85RK9EoAFA0djJWy1qKfLuNy9o6M6+Fwb1w9GmOpAr4tdIZ4q70Ri8LxhHpHBN0qXSAKjjXth5q7q1TnHLw8WCpJXby/D8DdxUKNw9L51BKNVby8eALACL/0IbBkTriFIkCQLLJxLIAAMa1qSUZV88KRlqqM/N2ZuiZ/3Eiy6+TzhB73d0WwD3SMWKDnBtcF2psyb2CCpurCHBpaOXTtP1fqfhp7cisIdBfSOdoBAZFasNJJPZtFx7yD6U6V+4D04XSWRrO4gsAlknHUL/T1rHqfzHzFxCRApsIwpr57Wtm782vPywdJc4M4XYLvF06RywEze7dsIbYvJnY9sjjGIJLs1eIPwg3i8aVMsxd0iHU00xrp5chDl5DMHMZPIWJjsDaw0Tm12Qp2/+wH7sV2qq2FnasaAuAH0jnaAQCjr7sPLOxJB2khiJRAAAAMPkA4lcAAC5NdWbeXuzL3iQdJO7S6euby02H/p3BfySdJQKSCTr1hwC+KB0kzoLJ59xDJ5+oIErvFeF0sPjwfU5vXQgb3/crrR2ZrS6tpWJgjnSGcWH2B3K+U0MXo6q1feVSIvoG2HYCBAYDAIgZIALAYMNo68gcYtA9MPyt4o6sFh9VVRYtunzmMMxP4dCWnYmwhDuisv7vKZF5QkmMTdIZxDC+3NruzZOOEWfz29fMHm569OcA6c1/jTDwXukMcVd64O7jYI7M1NuwYuj0//qg+F4XNBAZE6nWWFctWOJdTEQ/B9B5tl87UmziP4LFplRHptjWvuqv05d4bhagVEN5npccTiZ/AqBVOkujEJnvSmeotcgUACpNQZwvUmcSBd9FhH4/XdLWsfJSg5MPuXp2M7w4vWCJd7F0CmXWSSeIOkN6o1oPCWYtrDSAdXxlaBSk0+nmwNrvY3xDh1uZ+LPlYfvfqc5VNy9ozzjTNaMaK51ONz9ylH8AkCedpYEGijv8jdIhai0yN4z7eu/fz0C/dA455LV2ZP5KOkXMmNaOzP9h0P0gXCAdJoqsDbQLQFjC6MV9vVHF6o1qHfy26YmtACLVthk2zNhWyvsHpHPEXbnpxe8hoG2CHyYJ5rdYwn2pjswvU+2rPtTS6c2oSUDlvHTam1pumrUOzG+RztJg30CEpv8/JTIFgBF8p3QCSQR8prUjs0Y6RxykL/HmtHZkfkbA56Hno+uI3ja3q8udIV4RtLvPH2Bgp3SOqCLg6J6dPfr9rYODvb1DALZJ54gyY6I1Gdth76jxx1sI4i81sX0k1ZH5hnbjxduiRdfMLDfZ+wDE7R7DMptvS4eoh0gVAMhQ3NfQJAm4tbXdu0w6SJSlOjNvLw/bh10aLuWwGVPLU3QKvTRm7QKoEwZtRgSfLoQH64CzOrJkb5POEHfptDcVoHodQZwC4D3W2oda2zMPtXZk3qNF+XhZ2LGibTj5ZA+AS6WzNBzhzqh2OEWqAFB8w5WbwTginUPYFCJ774KlK9ulg0TNwk6vpa1j5d1gfB/ALOk8ccFEH5DOEHdGd3zXD6FHOkK0JfT7Wz+l0o6egnSIuBtOYjEacD1PhIsJ+MY5lXP+J9WR+fdXtnuL6/05lay29sw7A5heAGnpLBISwN9JZ6iXSBUA0N1t2SDWxwBGTbMB3d12kbdQOkgUeJ6XTHWu+quA7S4GvVo6Twx1ti7VrhZJ/bmebQQcks4RRWxIn1DXUZmgHRb1QtCn/2FAQaOnsU8D8KcVsg+n2jOb2jq9P1606PJYrIOLi9Zly6alOlb+gAn/CWCqdB4RjK27+7JbpGPUS7QKAABGn84qYC4b26PntiZmQUfmrY8cDfaA+e8w0gqnBJiAtQtAlrVEWlytvaHmk4e3S4eIsoE+/yhIZ1jUA7HRzqAQICTkbtAIGWb7teFk0/+kOlata2v33tbVtVavlRw2v917NZ2ctAOgt0lnkUSGI/v0H4hgAaB03ZUb9EnV02ZZa3+uK12qt6A9c2Vre+YhC/wXmC6UzhN3DH5rW5enxy4EEcd+xkod8IOFQmFYOkXUMUO7LGrvcP91XmSfjjmFbBie0DYD/Hom+4PjlWOPpdoz3091eK9Pp9PN0sHU2LRd5C1MtWd+asjeDSDu1727+/t6Ij37KHIFAHR3W2b8UDpGiEy1hLvbOr0/lg7iggXt3qtTHSt/bgn3EUG7J8KjmSv2z6VDxFn5PGwAMCSdI0oIemPaIDoHoPbuRHe3Hq0IAeLQbSKaAsLbAbuu3DTrf1o7V32ttT1zrXYGhFNLpzcj1ZH5Ehv7MAivlc4TBkTm44j40bHoFQAAMPi70hlCppnZfi3VkfmJntN6vnQ63ZzqXPlHqY7Mw5bs3QB50pnUC/pgS4s3WTpEXA34/kkQNkjniBI2OqCuEZqbjRZaas7q+j81FjOJ+Y+JcPvxyrHfpDoy96baV31o/lKv0XML1HO0tnvzUu2ZLzSx/TWAD0FXWo9gZPv7/MjPN4lkAaCU79kO4EHpHCH0puFkU66109MbXACtS1amU52ZL1SaZv0aTN8CoBNtw21203R+p3SIOCPL66QzREil6RS2SoeIg8JD/iEAJekcETJUPpbUYqCq1mQAa0D8JRPYYqojU0y1Z/4ptcS7Kp2+Xo8KNEiq0+tMtWe+T2R/BcL/xshQRzXCMvhG6RCNENlqD8N8mWC1E+D55hHbn6c6V/0YQfJjxYfv2ycdqJHmty+fnaDEWy3Tu8iOtPizdChVBf4ouru/rq2nMoYriTubmqxFRIvHDba9UPBPSIeIkSwAfepYG/cMDPgnpUMo57WC8Jew9i/LTY8OtXaszBoyPUy8uTzdPDjg65+xWlm06PKZ5aZJb2JrbwDbDEg6UTgx4XulXE8sBvNGtgDQXH7Jj8pNj/4jgNnSWUKJ+S0w5TemOjLftFz55N78lsPSkeplYafXEli+FrBrQeQxkCR98XNVa+st972pBPxYOkgcDRT8Q6mOzIMAdC3jBDF4s3SGWCHuAdN7pGNEAYO1/V/V2hQCvZqZXw0Gmh63lQVLVuWt5c1sTI8x8Pt7/UHpkC5pafEmN03HVSB+1zDztWDbrDf+Z3Q8QcHHpUM0SmQLAIXCzcOtnSu/Tkx/LZ0lxJIA/tRQ8u2pjsxNJsFf2bO9Jy8daqJaWrzJTedhBQJ7DRNeHbBdPPKip698UUBEH4UWAMQQ0zom1gLARBnaJB0hVgLOwuh7QA1UJlUqd0mHUJGXtJaXAlhK1n6ILZDqyOwGsIWJeingneWEyQ/0+Uelg4ZJ65KVaQrMVSBcDdgrAUzRNtexMh/bsyN7UDpFo0T63XB++/LZhpK/gu5vHzvGVibzFUx+8o7SAw8cl44zFp7nJQ8cx8VUsSuYeDWBMtDf80gzjNV78tmN0jniaH67t9iQfVg6h+soaV6iT7QaK9WReQTAXOkcLmNgYymXXS2dQ/1OW0fm/zDweekcQg4QeCcDeUbiYSLsbBo+XIjFetXubtP2E7+NE8FlxGY1wFcxMEc6lpMYW4v57BWI+OT/Z4p0AQAAUh2ZL2FkuqWqToWBrAH91CC4c3duc790oKcs7PRaArZLmbmLQCtAuBQjw2Xig5AHYzFiexabNxdzPSulU8RVqiPzKwAt0jncRYVibtMi6RRxk+pY9QOA3yadw2UE/mB/rudfpXOo34l5AeCFVMAowaAfjAEm/pUBBhiJAZ70on2lB+524uHWM83t6ppyrj03PdIVYZcA1AmgHfqwqxYqJuCuPTvd74CuRmSPADyF2XyByP45AJ0wWp0kAVcy+MoA5h9b21fuJ6JtxNRLoO0VNG/fm19f17kBre3evARsmyXTBthXgjkNoqUB25kAQHE9yM/Y3Vwpv2q4qfnfwfwW6TgyaEVrR2ZNKZddL50kpu6AFlYngHUtnQAm9BBDCwATUEnaO6QzKHUWSRAWgrEQAIhptAvegk4+gbaOzFEGBhg0QMwDMHiEGUdgMGisOYIkBoPy8JG9b1oz2IiBw+l0unkIs2cmJwUzCYm5xGixbOcTuAVMLURo4Qrm2KcfTsf02rdOCPy5uN38AzEoAJTy/oG29szXmfB+6SwuI6ILAFzAxG9iMAxOItWROWwMHbDMB9jigAE9AvABmzBDHOCESaBCNjhuGRUkcBLByFN6StBUwDQzMIMszwRhBti+mIC5zHQBCHMBXADY5pGXO/tUCKGvPlQOBk3N1+zKZ4+8st37dIX4TYhpFwABnwGgBQABhnG7JS0AjBuhRzpCHLGlLJEeiJ2A7ft6798vHUKpiWBgBoBOAneCRv4GAYAFGBaoAIaSSN26EejIHGFgkBhHAB7Z2mLMUQAgticZNDT6QY+D2DKjYogMg0evy2gGADCzIWOe+t8zCZjJzDOJaGYZmNoEC1gCYMF46hafANJNVXX24NzzEp8JTYtzA0W+AAAAaDKfQsX+IXTXZa3NtpZnA1hKBPDoyxRZO3KvbgEGPf2/ny5a2pH/ePp2ngGAnvovdXrHQeZ1+3o37AeAX+b9nanOVbfEtwsAl6Y6Vry+mNt8p3SQuHnpTJM9+Lg9OnohpaoUJALdACBgb97fmWrPHAFhpnQWR+n0fxU3MwmY+axB0jxyrcvPvGAd/ef09A37sy9miejpf4+e+feUpKEE7A2+n61IB5EQiyeHo4OWviCdQ6kJqMCYNxf7/L5n/k0m+ynEaGjJczHM5xGT17Ew8X2/wuB7pHM4akCfogoy0OLLOCXZ3CadQSmlaoNuDNN8s0aLzYXzE8knvgggNusdVMQQ3lXc4W947t8u7egpgOgWiUhhQMDiVEfmjdI54og4cbt0BhcRWG9ABRHr+sVxGvhl3t8pHUIppSaM6MfF3Kb/kI4hKTYFgIO9vUPE5iPSOZSqFoE/WOzL3nS6f5609GnEuAsAjM+iuzs2r2VhMWxwD4BYts5NCCX0BlSU1QLMeDD06b9Syn2M3U3D9G7pGNJiddHcn/d/CB0aphzCxDeebeXSL/P+zjh3AYCwsPXWjX8kHSNuBvr8owzoNPtqBdqCLmnueYntAE5I53BOQs//K6Wcd4KazHWFgh/794BYFQAAwCbMBwCclM6h1FkRPlrq6/nnsfzSuHcBEOHD0hliiXiddATHDPY/7O+WDhFnvu9XwLxVOodjBotvuFILV0oppzHw3v5efQ8GYlgA2LvdLxHTZ6RzKHUmxPSJYl/2H8b662PfBcBoX7B0Zbt0jLihgHUneBUYpDdRYUA6B6A6dGcj9qGr8dHfGKXOjkGfKuWyP5LOERaxKwAAQH9+09+CtHVVhRODPtWf3/S5qv+9mG8EsJbWSGeIm+LDm/cB0MFgY0VWbzxDgMloIaYKzKzt/2FGrF2tSp0R/7CU2/R/pVOESSwLAACsNea90HOAKmRGKpTje5Eq7egpABzf6ibjcukIccTAndIZXJGghN54hkBlBrYCGJbO4YihoaYnnreBRoUI03HpCEqFFQMbX3Ze4gbpHGET1wLAyFEAMjdK51BqlCXwBydaoUxQ4uOI6YUtMy6QzhBLCaPrAMfmxEuno086hAIGfP8kAdukc7iAQesP9vYOSedQZ8AYlI6gVCgR5TH5nOt839eNRc8R2wIAAPT3+V8H6IfSOVTsVUC44WzT/sdid58/AMa/1CKUa4gwQzpDHJW2+w8COCydwwFb9CIkVPQY4BgQWS3whVySrA41U+p5qEAJWl164G7tkHkBsS4AAMC05LT3AlSQzqFia8iwWVvsy95Uqw9YNuazYByp1cdziL7Iy7DQYwBj0SMdQD0D6e/HGFhKJPRnO+TmnJfcB91updTTGOgvl2l1f6+v3TGnEfsCQG/vuqEEguugNw+qwQg4aglX78n799Ty4w70+UcB+nQtP6YLmHQYnRQ20KeEZ2P0iXOY2EnnbEaMh6aOCWOzXkCHn+/7FQa2SOdQKiT2gc3qgYJ/SDpImMW+AAAAu3Ob+wHzDujFgGqcAWv4ir192bq8aTdVHvsqgFI9PnZYGct3S2eIqyHzxAboE6gzGS5PNw9Kh1C/M9oWmpfOEWZsdPq/KwzTfdIZlJJHBWMmrSzl/QPSScJOCwCjijn/TgJ/WDqHigPeTElzycjU/vooFArDAD5Wr48fNgQcGj6euE06R1yNDAkjnRR+GgxsG/B9LZCEj3ZlnEES+prqjCa6RTqCUsK2NleGV+7Z8bOD0kFcoAWAZ+jP9fwrg78onUNF2jebyr9pyLmkYi57C8DxWDtG5pMDA3qDJYmI9BjAaRi90QwlZtY5AKdDlN/d5w9Ix1Bj09/r7wZjq3QOpYSsn5acvnrXrl/Ecf7VuGgB4DlKuZ6PEhDfXeqqXiwT31jMZd87+nS+IQj4SKM+lxQC3zOy0UNJSjbpIMDT0oFzocR4kRZmToPY6tN/xzDxV6QzKNV49O2m8uDa3t51uq60CloAeD479zzzDoD0YlbVylHL5nWlvp5/bvQn7s/1PEjg7zX68zYKg/qbKpV3SOdQQOEh/xAAPef+fHZ04JwKmb359YcZ1C+dI4yYEnr+3zGl61bfBKBPOodSDWIJ9JFibtO7G/lgLSq0APACfN+vNJVnvxnAeuksynkPJsgs2VvjSf/VaKpM+TCiuad9t002Xa0tX6GyTjpACOV1D3GIkR7PeC5m3l/s8/VG0jXd3ZYNvwPACekoStXZUcvmdf25TXpse5y0AHAahcLNw+XzzBsY2CidRbmJwV982XnmCulzlLt23XuEmT8gmaHWCNjSXHnRFft6N+yXzqJ+xwR8h3SG0GH40hHUGTBtko4QNkSk7f+OKu3oKTCZtdCtLCqyqJCAXSb5YC0KtABwBgO+f7JyzLwOBL2oVdUYJMLrSrmej/i+X5EOAwClfM+PQfRj6Rw1QfTj4fPM6l277tUn/yGzZ2dPHozd0jnChAm6njLMtEDzfBY/kY6gxq/U5/uAvR5AKK4/lKoVJnxnWnLaJSPr29VEaAHgLAYG/JMvm2HezITvSGdRDiBkjZnU0d+XvUs6ynNZO+kDcPgoAAFHyeBdxb5N1+tKtRAjfF86QogMNZfP1xvMEBvdF12SzhEiB4oPZ3VmheOKuc13wpjXAKj7xiGlGuAkA+8t9WXfpcP+akMLAGPg+36l1Jd9l64IVGdwkkAfKb7xyleFdQfp3vz6w4bNu6RzjA/dSSZY1L8jq4W4sLP2JukIoUHYUCjcrMOJwk+P+j2F8WMAVjqGmrjiDn9DkGzuArBdOotSE7DTBLyslMt+UzpIlGgBoAqlXM9HAPozaFuVehbebBPmov7cpi+iuzvUF0578v49YDR8G8F4Pf3UP7dp7Z4d94eysKKerfjw5n26j3oUs7b/O4CYfy6dISyI+AfSGVTt7OvdsL98nrmCGP8GLewot1gC/rapfH7Xnp09eekwUaMFgCoVc5v+g8lcDYaeP1YnCPzBYq5n1d7tvjMtpE2V8z8GJ1YF6VN/VzHha9IZQmDYcnCLdAg1Bk2JDQC0UwMo9ed6dJVnxAz4/sn+fPYDnDBXMLBTOo9SY7CbwJf357If1y66+tACwDiU+nwf3HQJnLiJUnXBvCFB5qL+XM+/wrGqeqFw83AC9vcBhHI1mT71d19z+fzvEXBIOocoojv25rc4O3MjTvp7/UEGYj/5nsBfks6g6qe03d867zyzBEQfg64KVOE0zMSfK59nlmgxsr4S0gFcdeTwrx6f8+JLv2UTT0wHsEw6j2qYA8T4YDHf878HDw0clQ4zXoOP7v/Ni+e8YifAbwNA0nmewuB7mBOvKeY29UhnUeP32GOF4MUvbZkEYLV0FjHGfPjIoYF90jHU2Lzk/JcfYYKjM1Jq4khTOfFHjz02oE/bImz/sIT+AAAgAElEQVRgYMAeOfTr+2fNe8XXYC0AugR6L6BCgIGNJmnWFndkf3R0YECPWtdZaC78XZbqyLwJwDcAzJDOoupmCMDny+eZf4jSBPrWjlX/H4E/LZ2DgKNgfLg/r+3+UbFo0eUzh5NN/w1ginSWhiPeV+zrScGx7qC4S3VkigBapXMI+ZtiLvtJ6RCqsVIXrb6QTOXTPPIwICmdR8XSABHf2N/XE/surEbSql8NHHn017+cef4rvk/ghSCkpPOoGmPcxDBvKOU33Rm1quSRR3+96cXnv3wpCAvkUtCdxgSv6c9t1tVTEfLYYweenDnn5ZaAq6SzNBox3v+bR/c/LJ1DVefFc1pOAVgrnUPAUcuVGx5/9L+fkA6iGuvI4V89/ptHf33r7Je+4rsWNkmgxQCapHOpWBhk4k80l+e8a/fDd++SDhM32gFQY21LMu+ExZdYuwHcx7yBkfhkKe9HeqJ567Jl0+jUpB4w2hv5efWpf/R5npc88LjdQcBi6SyNQsCW/lz2Cukcqnqe5yUfOWIfBmGhdJZGIuY/6c/3fF06h5LX1uXN4or9cwB/BmCedB4VSScA/DNPPvWF0gMPhHIWVRxoAaAO0pd4c8rDwT8B9DbpLGo82CckPtmf82PzRHrBkqvnWnvqATTsDZ/uNKbyZzrkL/pal3qXUWDvRzyGzlaMMZfv2eFvkw6ixmd+Z2a5YfQgHn9ewcDGUi4b31kd6oV1d5vW2ze+3lh+H4PWICY/D6quToDwVWsnf2Fvfr0OyBWmBYA6auvwVjDslwAslc6ixoI3MyU+WerzfekkElqXrEwbS/fXs3tFn/rHU6p91YdAMZgwzvhoMZ/9B+kYamLaOlf9NTN/VjpHvRFwqJJsXravd8N+6SwqvBZ2ei0V5ncS+AbEd0aGGr/DRPSlYdC/DfT5zg7PjhotANSfaWtf+R4m+hS0nSqMLBj3GOAf9+SzG6XDSEtdlMnA4GcAmmv/0fWpf5y1dq78S2L6R0T2SRL/fTHX8zHpFKo2Uh2Zfwfwp9I56oWAQ5Tga/Zs78lLZ1HuaF3qXWYq9gYG3gbCTOk8KrwY1G8IXxqeQd+M0vDsqNACQIO0tHiTkzOCPyemjwOYLZ1H4QQD307Cfnl3bnO/dJgwae3IrDHAf9WqE0Cf+qunpJZ4V8HabyFaxdBBED5c7MveJB1E1dbolpRPIWpFK6Ifs6UbS3n/gHQU5SbP85KPHIMHa68H8Eboda0aYRl0Bxn6SnGHv0E6jDo9LQA0WFfX2inHg2PvB+NGAHOl88TQPib+MiZN/Wbpgbt1+MhppC5afSGb8u0TH96mT/3Vs3V1rZ1yrHLsQwR8AG4XAgaI6Gt20pR/1deS6Ep1ep1g+3cA1khnmSAL5o0G9HntdlM11d1tUrdvXAGLNwN4PYALpSOphjvAxN+xCfvv+3rv1yNFDtACgJB0Ot1cSc56GxNuBNApnSfihgh0Cxv6z+IOfyN0N/eYdHWtnXK8fOzTIHwI1R4JIN438oQpe0d90qkIMK1LvUtNha+0xB0EpAEsRAh3URNwFEDBEhUAu4uQ8It9fp90LtU485d6rYnAvoXB14Cp3Yn2Z8YRgLfD0L2GJt20Z8fPtBCr6q6ty1vIgX09LNaCsBwhfE1XNXGCCbcQme/qtbV7tAAQAgvaM1daoj8B+E2oy9nrWLIAZ8nQt5KnzC2Fgn9COpCrFnasaAtgPg/gWpztjZyQJ5gvJ4df8p1C4ebhhgRUkdLS6c1IWkxNUmVKhWmqRIZEEhVb5hPUnDx+Ls4d6u1dNySRQ4XX/Pbls8k0p421FzDRZBBmENtzGJgsk4h+C6bjBD7KZI4EyWReh/spaS2d3owmtlcSYzUTrgTitWIzgobB2MBkfjA9ee4t+t7oLi0AhMiiRZfPHE40/yEMv7fRO9kjwhKwlYluDxKVH2obUm21dXmzEPBbLeNqArdh5EL3KAgHALqfrd1Qyvdsl86plFJKqfBZsOSKuYFtuhJsr6aRgoDLx8DiYgjAPSD8hCedurP0wAN65C0CtAAQUq1LVqZhzVsIfD0mfA470kZfmMw6SuDO/l5/UDqQUkoppZQ6s/lLvVYTBFeBzGowewBmSWdSAIADAO4i4rtPJIbWH+zt1Sf9EaMFAAeMnKfia5n5GgJWIN7HBKwx1GcDzhqYe08dhz8woOtFlFJKKaUcZhYsXbmYrVnBlq8A4TLoQMFGqYCwhRl3JwK+a89OXQ8adVoAcExX19opvw2Oecy4hhnLidCJaA9YGWZgmwGyxGZT8KInt2j7kVJKKaVUtM1vXzObEicvI8tXALgUoE7UaEVxzFUYeBDEPpg2TU9O36zn+eNFCwCO6+paO+VY8NtLie0KBnURuB3uVkyPA5xnUJ9hzlEi0XdqOnYO+PqEXymllFIq7lIXrbgQxnQycxeBOjHyIEzXap/ZQTC2gfAQjNk6zZy7RW/4400LABHUumzZtOSpSYsDNu1guwAGF4JxIYBWiE0oftoQQAMA9jHsAAh7YWlf0pj87j5/QDibUkoppZRyyOj2mIUgmybGKwGkQVgIoAWAEY7XSBbAPgbtJPBONngogWDbnh336wpQ9SxaAIiZBUuumBsEZo4xNMcy5hAwl4HzDXgGM01jwtSEoRmW7QwwAUAzAc9bxcWM4yBUMHIm/zgA2IBPgDAIYJCJBw2b38DwIFtzhBmDjOZ9e/PrDzf2K1ZKKaWUUnGTTqebT02efQEF9kICtQB2PshcyJZbiDAXwBy4WSA4DGCAgQEA+wDeBUahMjNR0K5ZNRZaAFBKKaWUUkrFS3e3WXD7z+YEgZlDlJgL8FyAZ4PxYiKexUwzQZjJwExizAJhKuo3iPsEASeYcRTAYRAdBPgwgMcYOGgIhyzxwJAZGtCp/GqitACglFJKKaWUUmPQ0unNmNKEyeWTlSlIJKexDQyQaKbEsztmOQhmUCJx9On/z6jABiODrBM4aY09YYOm4wN9/lEopZRSSimllFJKKaWUUkoppZRSSimllFJKKaWUUkoppZRSSimllFJKKaWUUkoppZRSSimllFJKKaWUUkoppZRSSimllFJKKaWUUkoppZRSSimllFJKKaWUUkoppZRSSimllFJKKaWUUkoppZRSSimllFJKKaWUUkoppZRSSimllFJKKaWUUkoppZRSSimllFJKKaWUUkoppZRSSimllFJKKaWUUkoppZRSSimllFJKKaWUUkoppZRSSimllFJKKaWUUkoppZRSSimllFJKKaWUUkoppZRSSimllFJKKaWUUkoppZRSSimllFJKKaWUUkoppZRSSimllFJKKaWUUkoppZRSSimllFJKKaWUUkr9P/buPczOsr73//teM4SYptlpdoxJjNnsSCmNFBGDIgpVRECNSKkiradGISsHjWK3Un7Wsrr5sam1SokOmRWgCNQT4gksGyE/fhQpRcSYRow0YhpjzAwhDdm50nSYzKzv/mNWwmkymSRrrXutNe/Xdc1Fsg7P82mvFub5PM/9vSVJkiRJkiRJkiRJkiRJkiRJkiRJkiRJkiRJkiRJkiRJkiRJkiRJkiRJkiRJkiRJkiRJkiRJkiRJkiRJkiRJkiRJkiRJkiRJkiRJkiRJkiRJkiRJkiRJkiRJkiRJkiRJkiRJkiRJkiRJkiRJkiRJkiRJkiRJkiRJkiRJkiRJkiRJkiRJkiRJkiRJkiRJkiRJkiRJkiRJkiRJkiRJkiRJkiRJkiRJkiRJkiRJkiRJkiRJkiRJkiRJkiRJkiRJkiRJkiRJkiQdkpQ7gCRJkiRpbIgbGM8uptDBVApMBiZSYBLBJGAyid+kwngSkwCoMJEOxhEUoPraiCegjwJ91e/uItEP9FFhN/AkHeyiwi5gNx1sZw/bOILtdLItLah+r41ZAEiSJEmSDkuUmcogM+lkNhVmUeDFwGxgKjCVYCowDZiYNejIdgPbgK3AFhJbgB5gMxV6gY30siGVWrcosACQJEmSJI0oSoznRRxNMIcCRwMvBY4mMQeYBYzPm7CheoENVNhI4jEK/Iw9PMoTPNrs5YAFgCRJkiQJgFjOJF7AXCocB7wMOA6YC8zMm6wlVIBNJNYRrCH4MRVWpyVsyB1sLwsASZIkSRqDYjmzOJJ5wEnAiQxd6M/Om6ot7SSxmuABEv9M8GAqsi1HEAsASZIkSWpzUWYqFU4mcRIF5hHMY2hNvvJYD9xLcDed3JMuZHsjTmoBIEmSJEltJsrMpsBpVDgVOA04Nncm7VcFWE1wBwW+lRaypl4nsgCQJEmSpBYXy5nFEZxJgTcydME/K3cmHbKNwLeBm1OR1bU8sAWAJEmSJLWYKDOB4PUEZ1HgTLzD364eIbiBxE21mBtgASBJkiRJLSBWcBSJ84C3kngdMC53JjXMbhI30c9V6UOsP9SDWABIkiRJUpOKbuYSzKeDtxOckjuPmkDiVgb5eFrMxoP/qiRJkiSpacQKXkUH7yI4Dzgqdx41pT7gcnr4q1SiMtovWQBIkiRJUmZxDXPo5D0E7waOyZ1HLeN++nlX+jBbRvNhCwBJkiRJyiCuYjIv4BwS7wXOyJ1HLWsTFX5/NEsCLAAkSZIkqYFiBa+ng6UE5wKdufOoLaylh1emEgMjfcj/Y5MkSZKkOourmMwE/gQoAscSuROpzRzPTD4K/M1IH/IJAEmSJEmqk+hmHrCUxAXA+Nx51NZ66eElIz0F4BMAkiRJklRj0c1bSFwCnJY7i8aM6czkPOCW/X3AAkCSJEmSaiBKdDKdPybxceC43Hk0Jr2TEQoAlwBIkiRJ0mGILibSwUISFwOzcufRmLadHl6YSlSGe3PUTwBU26wzSbyWtG9fyp0E/wo8QA8P7O8kkiRJktRuosR4prOExKXA1Nx5JGAK0zkReHi4N0dVAEQ3i0h8Cpg59MIwH5rBlihzE/DZVGTbIYaVJEmSpKYWJTqZwQeAy9h7jSQ1i7T/AmDEJQBxC+N4kq8B5x7E6XYByxngyrSUXQfxPUmSJElqWlGiwHTOI3ElcHTuPNKwgmvSIpYO91ZhxC8+yQ0c3MU/wETg/6GTn0eZC6N0gHNIkiRJUpOLlZzBDH5C4ut48a9mlvY/gHK/TwBEmXOBb9Xg9I8SXJwWcWcNjiVJkiRJDRPXMosKVwLvyZ1FGqVNqch/G+6NkQqAHwLzahhiFcFH0iLW1fCYkiRJklRz1QF/l5L4BDA+dx7pIAzQw5HDDekftgCIMrOBX9YhSD+JL3AEl6cF7KjD8SVJkiTpsEQ37yDxWWB27izSIRlgRlpK73NfHn59fux/zcBhGkfwMfr5RZRZFqXRb0MoSZIkSfUU1zMzurm9us7fi3+1rnFMG+7l/Q3om1LHKHuPfzUz+Jcoc2adzyVJkiRJI4pu3sEAPyExP3cW6bD1M3G4l/f3BECjHs+fC3wvytwdK+r21IEkSZIkDSu6mB4r+U71rn+9b4RKjdHBpOFe3l8B0OhBfWdQ4MfRTVesGP5RBUmSJEmqpVjBB+jkXwnOyZ1Fqqk4iAIgLWEDsLGugZ6vk8QSCvwiuvnzKDOhweeXJEmSNAZEifGxkhspcD0Mf6EktbQ0/M4V+5sBAFCuU5QDmUjicuDnUWahgwIlSZIk1UqsYBoz+AHB+3JnkRpt/wXAU1wDbG9clOeZCZSZwb/ESgdxSJIkSTo80cV0CvwjcHzuLFJdFYa/1t9vAZCWsZPgovolGrW5BLdHN/8cXZySO4wkSZKk1hM3MJ4OvgUcmzuLVHeDw7880hIA0iK+CVxXhzgHL3EynfxTdPO1uIY5ueNIkiRJaiF9fJrEybljSA3RMfzLIxYAAPRQBL5a2zSHIXE+HfxrlCm7Y4AkSZKkA4kyJ1LgQ7lzSA3UN9yLBywAUokKPbyX4JbaZzpkncBCCvw8yvyZOwZIkiRJGsGnGM3NT6ldDLB7uJfTwRwjuvlLEn9Rm0Q1tY0Kn+Fx/jaV6M8dRpIkSVJziKuYzASeAHcX05hyVipy13NfPKgCACDKLAOuojkbtE3AFfRwXSpRyR1GkiRJUl7RzVtI/EPuHC1oJ1BhaGe4SvXvz7S/HeMq7L1WDCaSGFd9fXL1n4XqnyfAvvdUa8Hvp0Xc99yXD7oAAIgy5wJfAcYfbq46eZTgU2kRt+YOIkmSJCmfKHMhcG3uHA20HdgKbCPYQWIHwU4SO6nwJAV2UKn+PbGTAjvZwy6C3fTTx/9hVyox0IigUWYC/UymkykUmExiCpXqPxP/leAo2Pczk+a8Cd2cBnl5WsLa5758SAUAQFzLyVS4HZh6WMHqKfEQg1yeFvPd3FEkSZIkNV5cy3lU+EbuHIeoAmzb95PYSqV6cZ94gsQ2BullaEn0Np5gW6Mu3hstbmEcO5nNHmYDR1Hgt0kcT3A8MCt3vqbzFC9Jy9j83JcPuQAAiGuYQwffA44+nOPUXeIBKlw63CMQkiRJktpXrGAaBX5Nc80A2A1sIthCYguwmQq/ppMtDD59sZ+KbMucsyXEVUzmBZwMvAZ4XXW7x7E+KP43UvH5gwAPqwAAiC6m08k/ACce7rEaYBUDfDwtZU3uIJIkSZIaI8pcDSxrwKkqQC+JzUAvwSagh2AzBbZQYQv9bE7LnreeXjUUJcYxk9MI3gqcA8zJnanB+lKRFwz3xmEXAADRxUQ6+Tpwdi2OV2cVKnyV4FNpCRtyh5EkSZJUX1GikxncDFxwmIfaxtCd+6GfAv9W/fNmBtjMv9PrMPLmE9dwMp28n+ACnh5G2M62pCIvHu6NmhQAAFGiwEy6CBbV6ph1NgB8lQ7+Ml3IY7nDSJIkSaqvWMF8CiwFXgdMfM7b/cBmYDOJjQxd6P+SoZ3GNtHDxlSir7GJVUvVG9cXAhcDs3PnqaPVqcgrh3ujZgXAXrGCT1Dg07U+bh0NFQGDXOYTAZIkSVL7ixIFZjCLApOp0E+F7TzONu/ejw1RopOZfJTgMp5fBLW+4LtpEW8b7q2aFwAA0c37SFxPcw3aOBCLAEmSJEkaI+J6ZjLIjQRn5M5SYytTkeJwb9RlH8W0iJuAt0JLDbfoBN5DBz+LbrriWreSkCRJkqR2lT7IFrZwFhX+KneWmkr8en9v1aUAAEhF7iJxErC+Xueok3EkllDhF1GmHJ9nZu5AkiRJkqTaSyUqaTGXAp/MnaVmgi37e6tuBQBAWsh6/oPXAPfV8zx1Mg5YyDj+zSJAkiRJktpXKvK/SHTnzlETQ0Msh1XXAgAgfYzt9PAmEjfV+1x18uwi4HqLAEmSJElqO8GfQhvsEDew/5l2dRkCuD9RZhlwFQ0oHuqoH/giT3F5Wsbm3GEkSZIkSbUR13AOHXwnd47DMEAPL0glBoZ7s6EFAEBcy3lUuBmY0Ohz19jQrgGJy9PClptzIEmSJEkaRpT5GXBs7hyHaGMq8t/392bD78Sni/gmiddCy989H9o1IPhZrOTr0c3c3IEkSZIkSYetnDvAIYuRt7TP8ih+WsgaOnk1sDrH+WusQPAOEj+Jbm6PbublDiRJkiRJOkSD3JY7wiFLI88wyLYWP32QLcCpwLdzZaixAon5JH4YZe6Oazg5dyBJkiRJ0sFJS9hA621nv9fPRnoz6zC+VGR3KvIHBP8zZ446OIMO/jlW8k+xgvm5w0iSJEmSDkLwQO4Ih2jdSG82xTT+tIjLgItg+EmFLSs4hQK3x0r+Kbo5O3ccSZIkSdIoJP4ld4RD8tTIBUDDdwEYSXRzGolvAFNzZ6mTtcCn6eGW/W3LIEmSJEnKK1ZyBsHduXMcpF2pyG+O9IGmeAJgr7SI+yjwCuDh3Fnq5HjgS8zgF1FmWZRbfitESZIkSWo/0ZK71j16oA80VQEAkC5iM+M4leCLubPU0WzgauCXsZJPRxfTcweSJEmSJFXtpjd3hIMWPHKgjzRdAQCQFtCXFrEAKNJucwGebSrBJ+jkl1Hm5ljJMbkDSZIkSdJYly5mB612LZr48YE+0pQFwF6pyEqCNwJbc2eps3HAewh+Ft3cHt3Myx1IkiRJksa43bkDHKTVB/pAUxcAUJ0L8BSvZBT/w7SBAon5JH7oFoKSJEmSlFVrPQHwFGsP9JGm2gVgJNHFRI7gBoJ35M7SYA+T+Axb+KY7B0iSJElSY0SZXwMzc+cYpcdSkd8+0Iea/gmAvdJSdqWFvJMKlwCV3HkaaB7B15jBr6Kbv4yrmJw7kCRJkiSNAeNyBxi1GN0T8y1TAOyVFvPXBG8FduTO0mDTSfwFE/hVlCnHFxwYKEmSJEl1ND53gFEr8MPRfawFpUXcSQcnAetyZ8lgIrCQI6oDA1dyRu5AkiRJktSGWqcAqPDQaD7WMjMAhhPLmcR4biY4J3eWrBIPAVexhVudEyBJkiRJhydKjGMGT+XOMUoDwH9JxQPvWtDSBcBeUWYZ8FmgM3eWzHoJVtLJ1elCtucOI0mSJEmtKK5lFhV+lTvHKK1JRV4xmg+25BKA50pFlhO8EejNnSWzoTkBg/wyypSjzLG5A0mSJElSywmm5o5wEEb1+D+0SQEAkBZxH/B7BPfkztIEhuYEwE+jzN2xgvm5A0mSJElSC2mdAqDCP4/2o21TAACkItvo5SyC/8nY2ipwfwrAGRS4Pcr8PFbwCbcRlCRJkqQDqDAzd4RRG+SB0X60LWYADCdWMJ8CN4MXvM+xC/gyFT6fFvNI7jCSJEmS1GxiJZcT/HnuHKPQm4rMGO2H27YAAIjrOJpBvgEcnztLk7qLCp/nce5IJZ+YkCRJkvR8UWYCBY6nwvFUmExiHAV+k6CH4FGCR9NiNubOWUtR5ivABblzHFBwS1rEu0b78bYuAACixHims4LEn+TO0sQ2kFjBf3BdupgducNIkiRJyivKzAbeA/wRMJcDLx/fSIWvAl9qhyeNo8wPgXm5cxxQYmlayDWj//gYESv4AAW6gPG5szSx3VT4Mp18Pl3E2txhJEmSJDVO3MI4nuQdJC4iOI1DnRmXuJUBLklL2FDbhI0TZZ6kFZaTBy9Li1g32o+PmQIAILo4gU6+AczJnaUF3AeU6eHWVKI/dxhJkiRJ9RFlZlNhMQU+AEyr0WH7SXwyLeRvanS8honPMYXf4N9z5xiF7fTwwoNZzj2mCgCAuIHJ7OFGgnNyZ2kR2wi+SCfldCGP5Q4jSZIk6fBFiQLTOZPEYmA+9dohrsKXGc8H0wL66nL8OogVvIoCP8idYxS+mYr84cF8YcwVAHtFN+8jUcYlAaOXeIAKV9HLt1OJgdxxJEmSJB2cWM4kjuQC4CMMre2vv8QdbOFtrTJ4PFZwAQW+kjvHKBRTkZUH84X6tDwtIC3iJoJXwujXS4x5wSkkvs4MfhUr+XSs4KjckSRJkiQdWJQ5McqUOZIeoEyjLv4Bgrcwgysadr7D9/LcAUZlkFUH+5Ux+wTAXtHFRDpZwdCESx2cCok7gTJb+G6rNHqSJEnSWFC91rkAKNIcE+1PTUXuzx3iQKLM94Azc+c4gA2pyEsP9ktjvgDYq7okoAuYmDtLi+olcRNBVyqyKXcYSZIkaayKbuZS4P0EC2mmSfaJh9JCXp07xoFEmSeAqblzjCjRnRay+OC/pn3iCxzDEXwNOCF3lhY2QOIOBrmWx7nTWQGSJElS/VXv9v8xQ3f7T8ydZ7+CN6dF3Jk7xv5EmdnAL3PnGIU/SEW+fbBfGrMzAIaTPsR6eng1sDx3lhbWSXAOBW5nBr+KMlfHCo7LHUqSJElqR9W1/VfTya8YWtvfvBf/AIl35o5wAM39v78hA4zj3kP5ok8A7Edcwzl0cAMwJXeWNnEfwfUkbk1FducOI0mSJLWqlrnbP7xt9PCiZp0fFiu5nODPc+cYUeLetJA3HMpXfQJgP9ISbqPAy4H7cmdpE6eRuBHoiTI3x0rOyB1IkiRJaiX7Jvl37pvk32oX/wBTeSHTcofYr2iKYYkjq3D7oX7VJwAOIEoUmM5lJP4cC5Nae5QKNwBfTIvZmjuMJEmS1Gyii+l0cj5wEbTJ0trgpLSIh3PHGE6U6QGm584xogF+Oy3lsUP5qgXAKMUKXk+Bm4FZubO0oX4StxFcSw+rmvVxIEmSJKkRokQnM5hP8EESZwOduTPVVOJNaeHB72Ffb3Ets6jwq9w5DuDRVOR3D/XL3tEepbSYe9nN7xHckjtLGxpH8A7ge8zgl7GCK6PMsblDSZIkSY0U3cyNlXyWGfwa+BaJ+bTbxT9AatKnfyucljvCKNx2OF/2CYBDEN28h0QXMCl3lraWeIjgZv6DL6ePsT13HEmSJKnW4gYm08/5BAtInJw7T4O8MBXZljvEc0WZMrAwd44DODUVuf9Qv2wBcIiq+0PeDC3RErW6fuAO4EZ+izvS+fTnDiRJkiQdqijRyXTOBN5P4hxgfO5MDdSbiszIHWI4UeanwNzcOUawlR5mHM6SaQuAwxAlCszkYwRXAONy5xkjthN8leDGtJiHcoeRJEmSRiuu4Xg6WAD8MTTxJPx6Cr6YFrEgd4znijJTgSdy5xhRojstZPHhHUKHrfr/yF+iXaZyto5HgZt5ipvSMjbnDiNJkiQ9V3QxnQ7+mMT7geNz58muwhvSYu7NHeO54lrOo8I3cucYUQ2GJ1oA1EjcwHj6uRL4aO4sY1CF4F7gRvr5dlrGztyBJEmSNHbFDYynj3Po4P0EZ9KOg/wOzepU5JW5QwwnylwNLMudYwTb6eFFqcTA4RzEAqDGYgWnU+BG3C4wlz7gDoIvcSR3pAX05Q4kSZKk9lddHnw6Fd5N4jwcGD6cs1KRu3KHGE6U+TFwQu4cI7guFbnocA9iAVAHcRWTeQFlEufnzjLG7ST4Jomv0MOqwxmWIUmSJA0nuplH4t3ABcD03Hma2JdTkXfnDjGcWM4kjuRJoJA7y34Fb06LuPNwD2MBUEfRzTtIlIEpubOI7cCtwM2Hs22GJEmSFGVmU3kA3gkAAB+QSURBVOECCnwQOCZ3nhbwGE/xymZdqhsrmE+B23PnGMF2fosZtdgNzQKgzqrbBV4LnJk7i/bZCHyZCl9Ji3kkdxhJkiQ1v+hiOp2cT+LdBK/KnaeFbAdem4o8mjvI/kQ3XSSW5M4xgpWpSLEWB7IAaJAocyHwWVwL1GweAb5Eha+mxWzMHUaSJEnNIz7HFH6D84B3AafTzI+IN6cdVDir2bfvjjI/B47OnWMEp9bqKWYLgAbyaYAml3gI+DqD3GoZIEmSNDbFciYxjnNJ/BFwBk7wP1S9FDgrXcTa3EFGEis4igL/ljvHCDalIv+tVgezAMigOhvgWmBy7izar3UEt1LgS2kh63OHkSRJUv1EifG8iDMo8C7gPGBC7kwtbjXwB6nIptxBDiRWsoSgK3eO/Ur8v2khn6rd4ZRFdDGdDq4lMT93Fh2QZYAkSVKbiRsYT9++i/5zgYm5M7WJ5fTw8VQ6/IF1jRBlvgOckzvHfgUvS4tYV6vDWQBk5myAlrOaoWUCt6QlbMgdRpIkSaMXZSYQvAV4J4m34EV/LW0h8f60kFW5g4xWlOhkBv9O816LPZyKnFTLA1oANAGfBmhZQ08GJL7SzFNNJUmSxrIoM4EKp3unv46Cuxjk/WkpvbmjHIzo5jQS/5g7xwg+nIp8oZYHtABoIj4N0NLWkvgGcFtayJrcYSRJksayuI4p7OEcOngnwRnAuNyZ2lQfwcVpEd25gxyKWMGVFPiz3Dn2o4/dzEgXs6OWB7UAaDI+DdAWNgHfJnE7W7g3lRjIHUiSJKndxeeYwgTmM/R4/5l40V9v6yjwR80+5X8kUeZHwIm5cwyrwpfTYt5d68NaADSp6tMAn8GdAlrdNhK3Ad/iCFalBfTlDiRJktQu4hrmUOBc4A9InAIUcmcaI/6WHi5plUF/w4nPM5Nx/Dp3jv2q8Ia0mHtrfVgLgCYWXUynk88A78mdRTXRR7AK+DpHcltaUNvHeSRJksaC6GYuwXw6eDvBKbnzjDFbCRakRdyRO8jhavLt/zakIi+tx4EtAFpArGA+BVYAs3JnUc0MkLiXCt9gD7elD7MldyBJkqRmFCU6eTGnUeHtDA3xm50705gUfJfgg2kxW3NHqYUo8z3gzNw59uPSVOSv6nFgC4AWEV1MpJMrgA/ho03t6GGCO4Db0yIezh1GkiQpp+p2fWdT4O0E84EpuTONYTup8JG0mC/mDlIrsZxJHMkTNOeciAEGeEm9dlSwAGgx0cUJdHI9zTqsQrWwDbiT4Dv0c1daxs7cgSRJkuotyswGziZ4m0P8msYq4IOpyKbcQWopVnA+Bb6WO8ewglvSIt5Vr8NbALSgKNHJDJYAVwITcudRXQ2QeIhBvkOB21KRR3MHkiRJqoUoUWAGJxC8vboDlje4mkcfFS7jcf4mlajkDlNrsZKvEFyQO8ewBnhtWsoD9Tq8BUALi2uYQyfl6t6mGhs2AN91i0FJktSKoswEKpxOgbcB5wDTc2fScwQPUuD9aSHrc0eph+rN1Cdozt3W1qQir6jnCSwA2kCs5E8IPotro8aa7STuIrgduCsV2ZY7kCRJ0nNFN3OBs4G3kjgN6MwcScPrI/gkvfxtO9713ytWcgbB3blzDKvCgnrPWrAAaBNxHVMY5EpgYe4syqICrCGxCribydyXzm/dfVklSVLrijITSJxC8Dac2t8q1jLIe9MS1uYOUm9R5vMMDVZvNtvo4SWpRF89T2IB0Gaim7NJdAFzcmdRVjuAe4D/zVPcmZaxOXcgSZLUvqKbuRR4CxXeTOJ1OMCvVfQTXE4vfzVWlpZGmV/SjKVU4q/TQi6p/2nUduIGxrOHTxBcCozPnUdNYR2JOwm+xzjuSwvq2yxKkqT2Vt1G7XTgzQw93t98F1QaWfAgwUVpMY/kjtIosYJXUeAHuXMMYwB4aSN2W7AAaGNxLbMIriJ4R+4saip9wP1UuJsCq1KR1bkDSZKk5rZvYn+FMyjwJuA0vMvfqnZT4S/bdcL/SGIlnyX4WO4cw/j7VOS9jTiRBcAYECuYT4HPA0flzqKmtIngHhJ3M8A9aSm9uQNJkqT84hrmUOBM4CwSr6c5p6br4NwJFBtxp7kZNfHj/69IC1nTmFNpTIgS45nOpSQ+gcsCNLINwCqCu/lPVqWL2ZE7kCRJqr/oYiJHcDLwJoL5wNzcmVQzO4BLUpGVuYPk0sSP/9+Ziry5USezABhj4jqOZpDPM7RWSzqQComHGeQe4G4e54F6TyaVJEmN8Yxp/W8kcTrBPKCQO5dq7u+Bi8f6ltHRzWdI/I/cOZ6nwhvSYu5t1OksAMYolwXoEA0Aa91uUJKk1hMlOpnB8c9Yx/86fDK0nW1k6HH/u3IHaQZR5hc0305pD6ciJzXyhBYAY1iUmQB8EvgfOMRFh2YnwX3A/w/cRy9rxsoWMpIkNbt9g/uG7u6/kaHBfRNy51LdVYDlwCdTkd25wzSD6GYeiR/mzvE8iXelhdzS2FNqzIuVHAN0EZyRO4ta3i7gfuAfSdzHFh6yEJAkqTH2XfDDaSTeQPA6YEruXGqgxEMEi93l6dmizKeBT+TO8RyP0cPvNHonBgsA7RPdnEfiMzTfozFqXbsJHqTAP1LhXo7kobTAGQKSJNVClOjkxcyjwmkkfr96wT8pdy5lsR24lB6uG2tb+41Gkz7+/+5U5MuNPqkFgJ6lujZsCXA5/gdEtff0DIFBvs8e7kvL2Jk7lCRJreBZa/gTp5I4DX9fE/w9Ff40LWZr7iDNqEmn/6+nh9/NUdZYAGhYsYJpFLgC+ABOg1X9DBA8TIEHqPBPDPJAWkpv7lCSJDWDuIHJPMUpJF7L0MC+V+HQPj1tLQMsTkt5IHeQZhZlrgI+mjvHs1T4o7SYr+Y4tQWARhRljiW4msSZubNozOglcT/B94HV9PCgcwQkSWNBXM9M9nAKiVMZuuA/AW/E6Pl2E/wNU7jC3ZhGVp2L8StgZu4sz/AoPbws11INCwCNSnXbwKtpvrUzan+7SKwF7meQ73MED6QL2Z47lCRJhyNKFJjOsSReB/su+N2eWSMLvks/i9MyNueO0gpiJWcQ3J07x7NkvPsPFgA6CFFiHC/ioxT4FDAxdx6NWRVgHYn7SfwTiQfThTyWO5QkSSOJFUyjg5MZ5DV0cDLBPPx9SqO3nsTStJBVuYO0kljJ9QQfyJ3jGdbRw+/lHNRoAaCDFp9jCr/BZcCH8LE0NYedJB5h71MC8JCDcCRJuUSJTqZzzDPu7p8IzM0cS61pBxWu5HH+NpV83P9gxC2M40l6aKatMBNvSwv5bt4I0iGKLk6gk6uB03JnkYaxkeAh4AckHgJWpyK7c4eSJLWfKDOb4FUUeA1wMsGJOKxPh6dCYiXBp1KRbbnDtKIocy7wrdw59gnuT4s4NXcMCwAdtriW86jwaeDo3FmkEVSAR0g8TPDPDPIQW1nngEFJ0sGIFUwjMQ94NQXmVR/ln5Y7l9pIcA8dXJwuYm3uKK0sVvJ1gnfkzrFP4rVpYf4dGywAVBNRopOZLCS4DP8jqNaxG1gNrCb4ER2s4deWApKkIbGcSbyAeQwwjwKvBuYBs3PnUtvaAPxpKvLt3EFaXXQxkU6eoHmexPlmKvKHuUOABYBqLLqYSAcfJ/ExHGyj1tQHPMJQMfAjKqzhcdamEn2Zc0mS6iiuYjLjOZEOTiR4BUPr9o/BeUeqv53AFfS4zr9Wopv3kbgxd46qAfbwsvQh1ucOAhYAqpMoM5XExwk+CozLnUc6TBXgURLrqLCO4If8Jw+kj7kdoSS1oriKyUzgOIYu8k/CIX3KowJ8mQE+npbSmztMO4kydwNn5M5RtTIVKeYOsZcFgOoqVnIMcEVTrb+RaucxgtUkfkziEYK1qcim3KEkSUOiRIGZHE2F40m8gsQJ1QF903Nn0xiXuJc9XJyWsiZ3lHYTn2cm4/gVzfH0zk4G+J1mKngsANQQ0c08CnyG4PW5s0h1thN4DFgH/JDEOoI1TvCVpPqK5UziSI5n6E7+y0jMIzgBmJA5mvRMjxJ8Ki3i1txB2lWU+TPgytw5qj6SiizPHeKZLADUULGS+QRXAsflziI12EaCRwgegeoTA72sd+CgJB2cKNHJDI4mOI7EKwiOJ3E8DudTc9tM4lNs4aZUopI7TDuLMj+hOa411tHDy5vtdz0LADVclCjwIt5HgcuBWbnzSBn1M/SkwCPAT9k7Z2ALG5rtPxaS1GhRosALmUMnxwFzCV5OYi5Dg/mcL6RWsYMKV/I4yx0oXH9R5kTgR7lzVJ2VityVO8RzWQAomygxnhksAy4BpuTOIzWRfuCx6vKB9VT4CRUepZP1qcju3OEkqZaiRIFZzGEPx1LgOCr8HgXmAsfSPFt4SQern8QX2MUVDg1unFjB1RRYljsHwS1pEe/KHWM4FgDKLrqYSIElFLgUmJw7j9Tkehl6YmAD8FMS69jDI800XEaShhMlxjGdoxm6mz+HAr8H+y70Xaev9pG4lQEuSUvYkDvKWFJdHvRrYFrmKH3A7zTrYGgLADWN6pY8HweWARNz55FazDaCxyiwngo/J1hPgcd4isfSMnbmDidpbKgu85tNB0dT4WgKvAw4luAYXKOvdpdYxR4+7mT/PKKbt5D4h9w5gEtTkb/KHWJ/LADUdOJzTGECHyHxMSwCpFrYAWwgsQHYQIWfknjEckDSoYhbGMc2ZtHJHII5JF4K1T8P3dH3sX2NLcGDFPhUWsiq3FHGsujmayTOzxxjDT2c1MyznCwA1LSii+l0cimwCIf9SPXSS/AYQ1sX/gLYSGIj/WxIH2ZL5mySMqluqXc0iaOrF/m/zdBF/tE4wFfaazXBJ9Mi7swdZKyLzzGF36CHvNcMFQq8Nl3EgxkzHJAFgJpeXMssKnwciwCp0fqBzQzNG+glsYXgFyQ2MMAGtrLRrYyk1lVdejd0535oTf7QnfynfyQNbx3BZWkRt+YOoiFRZhlwddYQic+lhfxp1gyjYAGglhErOIrEZSTeA3TmziOJPmAjsJFgA4lfMlQYbGKQLWxlcyrRnzeiNDZFFxPpYDYwm8QsgpdQ4CgqzCIxi6H1+D6qLx2c9VS4jMe5xQK8uUSZHwMnZIywiQFelpayK2OGUbEAUMuJFRxV3THgQqCQO4+kEe0AtlR/NhD0kvg1iQ1U2MIgm1rhP5ZSM4kS45jGLDqYSTC9evf+xSRmVtfhzwSm584ptZFNwBX08HfNvLZ7rIoyJwI/yhzjrFTkrswZRsUCQC0ruplL8EkKXIBFgNTKtgFbCDZVlxn0UuBxgi0ktjJALx30piK7cweV6i2uYwqDTCOYVr1TP4vESwhmQ/Xv+be4ksaKzQRXMIW/S+f7RFuzim66SCzJF4AvpkUsyHb+g2QBoJYX13E0g1wKvA+XBkjtbBdDRcFWCvQCvVR4nGAzia0keumnlxexzV/U1CyiRCcvZCrjmEaF6RSYxiDTgBkUmAZMJZjO0B37qTjrRmoGm4FPM47r0gL6cofR/sUNjKefHmBypggbeYqXt9KuShYAahtRZjbBJSQ+gOsapbFuF0NPFjz9U2E7iScosB3YxiBb6WQ7fWzj39nmvAKNRpQoMIvJ9DOZxFQ6mAZMI5hOhRdRYGr1Ufyhi3vv1kutZCNwJb/FFy2SW0OU+WPgS5lOX6HCG9Ni7s10/kNiAaC2E11M5wg+TrAImJA7j6SWsQuq5QBsJ7ED2Emwk8STBDupsIPEToIdFNjBIDvoYCc97HBdaOuobnE3mQKTGWQyleqfU/VnkP9KB5OByUT1n0//TMoaXlI9rCdxJVv4e/9d3lqim/+PxOlZTp7467SQS7Kc+zBYAKhtRZmpwMXAh/AXNkn11wfV0mDoZwewm0Q/wXagj0QfwZPVz+6mwk4K9JHYxQC7CPqqBcNu+unj/7BrLP8yWt2mrpNBJlFgPInxVJhEB51UmExiHDARmECFccBvkegkMYnEeGBC9QJ+Cs++iHdujCSAdQwN9/uqU/1bT3Uw+C/I8+/0dYzjla24RMQCQG0vbmAyT/EhEhcz9EugJLWaCuxbX7gb9v3CsaP6z77q6wA7SVSAAWKYNYkV+ujYzy8sQYUKTx5Ert+iY5hfvAJ45nrMChPpqK5tr9BJYuIzPj2Zofktk6B60T50Ue9MF0n1sobgCnr5phf+rSu6+UsSf5Hh1P0UOCldxNoM5z5sFgAaM6LMBIa2DryEoS2SJEmSNHasJbg8LeLW3EF0eKJEgRn8GzA7w+k/koosz3DemrAA0JgTJcYzgwuBPwWOyp1HkiRJdbWKxKfTQlblDqLaiDJnAt/LcOrbUpG3ZzhvzbgGTmNOKtGXinyBHl5KhbcRPJg7kyRJkmqqQvBdKrw6FXmTF/9tJvhghrNu4Cnem+G8NeUTABIQZV5X3UJwfu4skiRJOmT9wC0kLk8LWZ87jGovrmMKg/yaxm773Q+8JhVZ3cBz1oUDdiQgFbkfuD+6OJpOPgwspLH/UpEkSdKh20bi79jDVWkpvbnDqI4GeQ+N/z39w+1w8Q8+ASANK1YwjcRSEst45iRrSZIkNZONwFXAdam4bzcUtbEo82PghMadkFvSIt7VsPPVmQWANIJYziTGs5DgI8Cs3HkkSZIEwGoqfJrHudWt/MaOKHMi8KMGnnItA7w2LWVXA89ZVxYA0ihEiU6mcy6JS4B5ufNIkiSNQRWCOyhwtUP9xqYoU2ZoqW4jbGOQV6clbGjQ+RrCAkA6SNHN2SQuBs7MnUWSJGkM2EniOgb5fFrMxtxhlEd0MZFOfg1MasDpBgjemBZxXwPO1VAWANIhii6O5gguIliIcwIkSZJqbQMVyoxnZVrAjtxhlFeUuRC4tkGnuygVua5B52ooCwDpMMVyJnEkFwAXA8fmziNJktTSEg9Q4Sp6+abr+7VXlPkhjViKm/jrtJBL6n6eTCwApBqJEgVmcjoVPkJifu48kiRJLaQfuIUCn0kXsTZ3GDWX6OIEOvlxA051Gz38QTsXTxYAUh1EmWNJfITgPcDE3HkkSZKa1CZgBUPb+G3LHUbNqSHD/xIPEbyh3beTtACQ6sjlAZIkSc9TAe4hKNPLt1OJgdyB1LwaNPxvHR2cmi5kex3P0RQsAKQGcHmAJEkSO4CbGOTqdttaTfXTgOF/m4HXpiKb6niOpmEBIDVYlDmWCosp8D7cPUCSJLW74EE66KKTW9MC+nLHUWup8/C/bcCpqcijdTp+07EAkDKJEuOYzjkkisAZufNIkiTVUB9wKwN8Ni1lTe4wak1xDcfTwb/U6fC7GeSNaQkP1un4TckCQGoCsYLjKFAE3kd91zdJkiTV0yNUKLOHm9IyduYOo9YWK1lBsKgOh95Ngbeli7inDsduahYAUhOJGxjPU8z3qQBJktRC+kh8FyinhazKHUbtIcpMAHqo/c2xMXvxDxYAUtOqbiW4gOBCYEruPJIkSc+xGigzwJfTUnblDqP2Uqfhf7up8Na0mHtrfNyWYQEgNTmfCpAkSU1kB3ALg3SlJazNHUbtK1byA4JX1fCQu4A3pyL31/CYLccCQGohUeZEEhcRXIA7CEiSpMaokLiHQa7lcb6dSvTnDqT2Ftcwhw5+UcNDjvk7/3tZAEgtKG5gPHs4lwoLSJwBFHJnkiRJbWcTiZsY5Pq0mI25w2jsiDJ/BlxZo8Ntp8Kb02IeqtHxWpoFgNTi4npmMsA7gA8Cx+fOI0mSWtrQQL9BbuRx7kglKrkDaeyJMt8BzqnBoTYy9Nj/ozU4VluwAJDaSJQ5EXg/8B4cHChJkkanQuJBghsd6KdmEGX+FTjmMA+zhgHenJbSW4tM7cICQGpDUWIc0zkHeD+Js4HO3JkkSVLTWUdwK4nrU5FNucNIe0WZXwGzDuMQdzHAH1pmPZ8FgNTmXCIgSZKeYTtwK3DzWJ+GruYVZX4MnHCIX/97eliQSgzUMlO7sACQxpBYySnAewnOxyUCkiSNFbuAbxN8iV7ucl2/ml2sZAXBooP8WgX4VCryv+qRqV1YAEhjUJQoMJPTCd4PnAtMzJ1JkiTVVD/BXcDXGeSbPgqtVhLXcDwd/IjRL2PdSIEPpou4p5652oEFgDTGxQ2Mp48zKPAu4DxgQu5MkiTpkDw9zO8pvpqWsTN3IOlQRTcfI/HZA3xsF7AcuCIV2d2AWC3PAkDSPnEDk3mKc4B3OjxQkqSWsRq4kQFuceK52kmsZD7BZcC8Z7w8QGI1Fb5GJ19MF7I9V75WZAEgaVjRxXQ6uYDEHxG8KnceSZL0LKtJfIU+vpqWsTl3GKme4jqm0M8sgt08waZUoj93plZlASDpgKLMbIZmBSzg0CeySpKkwzO0bd8AX0ofYn3uMJJajwWApIMS13I8g/whifOA43LnkSSpjVWAB4BvAN9MRTZlziOpxVkASDpksYKjKHAOiXcRnJI7jyRJbWDvIL+v0cmt6YNsyR1IUvuwAJBUE89YJvA24PU4QFCSpNF6+qLfQX6S6sgCQFLNxfXMZJBzqfCHJF4PFHJnkiSpyewicScVvsORfDctYEfuQJLanwWApLqK65jCAPMZ2lrwTGBc7kySJGWyFbiLCl/jce5ykrmkRrMAkNQwsZxJHMl8grdXy4DJuTNJklRnqwm+S+I7qcjq3GEkjW0WAJKyiBIFZnAKibcRzAfm5s4kSVINPL2e/ym+mZaxOXcgSdrLAkBSU4gvcAzjOAd4K8HrcIigJKl19BLcCfwD/dyVlrEzdyBJGo4FgKSmE2UmUOF0CryNoZ0FpuXOJEnSM1SANT7aL6nVWABIamrVpQInVOcGzAdOzJ1JkjQmbSVxHxVu5z+5LV3s1H5JrccCQFJLies4mj2cTeKs6haDE3NnkiS1pQHgAeB/k7gzLWRN7kCSdLgsACS1rCjRyXROIXEWcCZDTwcUMseSJLWu9QSrSNzNU9zjWn5J7cYCQFLbiM8xhQmcTuJNwNnA7NyZJElNbRuJewnupsJdaTEbcweSpHqyAJDUtuIa5tDBGSTeRHAmMCl3JklSVruBB6hwNwVW0cOaVKKSO5QkNYoFgKQxIW5hHP/OKcBZFDgDlwtI0lgwQPAwBVZR4W6m8GA6n/7coSQpFwsASWNSdDGRIzgZeBPwOoJXAZ2ZY0mSDs8AsJbEKgb5Pnu4z3X8kvQ0CwBJ4hmFQIVTSZwCnAaMy51LkjQiL/gl6SBYAEjSMKLMBBKnWAhIUlN5+oIf7mYL96cSfblDSVKrsACQpFGILibSweso8AYqnEZiHi4ZkKR620biAeD77OEBnuDhVHINvyQdKgsASToEUWYCQ4METyRxKsHrgamZY0lSq9sA1Qv+4P60iHW5A0lSO7EAkKQaieuZyR5OIXEqiXkOFpSkEe0msYbgYYLvk7g3FdmWO5QktTMLAEmqk1jOJMbzKuAUgtcAJwOTM8eSpBwqwHoSDxH8kOBBelmTSgzkDiZJY4kFgCQ1UHQzl+BkCryWoULgWKCQOZYk1doWgodI/IAKD7GHh53OL0n5WQBIUkbPmiUAJ1X/aSkgqZXsIrG2+ij/j6hwf1rChtyhJEnPZwEgSU3GUkBSE9sGrCaxhkF+RAdr0kLW5w4lSRodCwBJagGWApIy6CV4GFgN/ARY51R+SWptFgCS1KKii4nA8XRwPAVeToXjSByHgwYlHZwBhgb0rQV+BKyhwOp0Idsz55Ik1ZgFgCS1mbiKyUzgOIaeEngZieMITgTGZ44mKb9e4BFgHcGPSDxCD+tSib7cwSRJ9WcBIEljQJToZBqzScwlcRIF5hLMxWUEUrvaQWIdwSPAT6t/XpOKbMsdTJKUjwWAJI1h0cVECsylg7kM8jsUOIahUuBoYFzmeJIObBPBowSPkvgZwaPAurSYrbmDSZKajwWAJGlYcT0zGWQuwRzgZcBcYA5wFD41IDVSP7CZYB0F1hH8AljHAGvSUnblDidJah0WAJKkgxJdTKSTY6hwDInfJT3rqYGJmeNJraoP2ECwgcRjJH5OhQ1UWM9WNqYSldwBJUmtzwJAklQz1QGEc6gwkwIzSbwUmFN9iuAYLAg0tvUBW551Jz+xgQE2eJEvSWoECwBJUsPE9cykj6Po5CiCORT471Q4isQcYBbQmTujdBi2A5tIbGKQjRT4N4JN1dc2OoBPkpSbBYAkqSlEiU5mMJMBZnEEswhmkngJwXSC2SSmM1QSuJ2hcugHtpDYwtDgvY0EvwQ2ARsZZJPr8SVJzc4CQJLUUqLEeKYxkw5mVsuBORR4MYmZUH3NQYU6ODuALdWfXhJbCH5BhS0U2EInvfyKXh/RlyS1OgsASVLbiRIFXsRUElOBqcA0Ckyr/vmFwFQqTHvG+1Nx28N2shvoJdgKbCOxlQpbKfA4Uf37YPX9J9jqhb0kaaywAJAkCYjlTKKDaRyxryiYCkwB/gswGZhEVH8Sk/e9NvRjeVAfuxhaV7+j+rOdYAcFtlPhSQrVvwfbCbZToJcetqYSfXljS5LUnCwAJEk6TFFiPC9iEv+3vTtIbRgGwij8pCjFeBHcU/YavUZPmK1qjAjBsbKwCiGklKyahPeBmJ2ElvoFMxsGFnZEBhYGYgsMoCPwzkIksCOQWAOFxDoZ4e2i9m11rT5DuJBbHYGZtdv9zyoEMgsTUIhMVL5Zf+knKhkoVAqRkZmRRGZPDp/M/3EZSZJelQGAJEkPrn7RU1oQ0DFQr/obJBL1xojFmY4t/R1HFeovv+en9sgPTBw40nMMH5Q79pYkSZIkSZIkSZIkSZIkSZIkSZIkSX87AzZgZ+r5R8wnAAAAAElFTkSuQmCC;" parent="235" vertex="1">
                    <mxGeometry y="40" width="101.9" height="61" as="geometry"/>
                </mxCell>
                <mxCell id="476" style="jumpStyle=none;html=1;strokeColor=#00FFFF;fontColor=#66CC00;startArrow=none;startFill=0;endArrow=none;endFill=0;endSize=6;targetPerimeterSpacing=0;elbow=vertical;entryX=0.105;entryY=0.993;entryDx=0;entryDy=0;entryPerimeter=0;" parent="235" source="519" target="450" edge="1">
                    <mxGeometry relative="1" as="geometry">
                        <mxPoint x="512" y="342" as="targetPoint"/>
                    </mxGeometry>
                </mxCell>
                <mxCell id="245" value="&lt;span style=&quot;color: rgb(24, 20, 29); font-size: 14px; font-weight: 700;&quot;&gt;ms-auth-bff&lt;/span&gt;" style="html=1;dropTarget=0;fillColor=#CCFFFF;strokeColor=#00FFFF;" parent="235" vertex="1">
                    <mxGeometry x="338" y="579" width="231" height="90" as="geometry"/>
                </mxCell>
                <mxCell id="246" value="" style="shape=module;jettyWidth=8;jettyHeight=4;" parent="245" vertex="1">
                    <mxGeometry x="1" width="20" height="20" relative="1" as="geometry">
                        <mxPoint x="-27" y="7" as="offset"/>
                    </mxGeometry>
                </mxCell>
                <mxCell id="608" style="edgeStyle=none;html=1;exitX=1;exitY=0.75;exitDx=0;exitDy=0;entryX=0;entryY=0.5;entryDx=0;entryDy=0;entryPerimeter=0;strokeColor=#CC00CC;elbow=vertical;endArrow=none;endFill=0;" parent="235" source="249" target="607" edge="1">
                    <mxGeometry relative="1" as="geometry"/>
                </mxCell>
                <mxCell id="749" style="edgeStyle=elbowEdgeStyle;elbow=vertical;html=1;exitX=0.75;exitY=0;exitDx=0;exitDy=0;strokeColor=#CC00CC;endArrow=none;endFill=0;entryX=1;entryY=0.5;entryDx=0;entryDy=0;entryPerimeter=0;" parent="235" source="249" target="748" edge="1">
                    <mxGeometry relative="1" as="geometry">
                        <mxPoint x="1889" y="1099" as="targetPoint"/>
                    </mxGeometry>
                </mxCell>
                <mxCell id="249" value="&lt;span style=&quot;color: rgb(24, 20, 29); font-size: 14px; font-weight: 700;&quot;&gt;ms-ventas-bs&lt;/span&gt;" style="html=1;dropTarget=0;fillColor=#e1d5e7;strokeColor=#9673a6;" parent="235" vertex="1">
                    <mxGeometry x="1630" y="1109" width="231" height="90" as="geometry"/>
                </mxCell>
                <mxCell id="250" value="" style="shape=module;jettyWidth=8;jettyHeight=4;" parent="249" vertex="1">
                    <mxGeometry x="1" width="20" height="20" relative="1" as="geometry">
                        <mxPoint x="-27" y="7" as="offset"/>
                    </mxGeometry>
                </mxCell>
                <mxCell id="481" style="edgeStyle=elbowEdgeStyle;jumpStyle=none;html=1;exitX=0.25;exitY=0;exitDx=0;exitDy=0;strokeColor=#CC00CC;fontColor=#66CC00;startArrow=none;startFill=0;endArrow=halfCircle;endFill=0;endSize=6;targetPerimeterSpacing=0;elbow=vertical;" parent="235" source="253" target="480" edge="1">
                    <mxGeometry relative="1" as="geometry">
                        <Array as="points">
                            <mxPoint x="2081" y="950"/>
                        </Array>
                    </mxGeometry>
                </mxCell>
                <mxCell id="255" value="&lt;span style=&quot;color: rgb(24, 20, 29); font-size: 14px; font-weight: 700;&quot;&gt;ms-ventas-producer&lt;/span&gt;" style="html=1;dropTarget=0;fillColor=#e1d5e7;strokeColor=#9673a6;" parent="235" vertex="1">
                    <mxGeometry x="1488" y="949" width="231" height="90" as="geometry"/>
                </mxCell>
                <mxCell id="256" value="" style="shape=module;jettyWidth=8;jettyHeight=4;" parent="255" vertex="1">
                    <mxGeometry x="1" width="20" height="20" relative="1" as="geometry">
                        <mxPoint x="-27" y="7" as="offset"/>
                    </mxGeometry>
                </mxCell>
                <mxCell id="206" style="edgeStyle=orthogonalEdgeStyle;html=1;strokeColor=#CC00CC;fontColor=#18141D;exitX=1;exitY=0.5;exitDx=0;exitDy=0;startArrow=none;exitPerimeter=0;endArrow=none;endFill=0;" parent="235" source="547" target="255" edge="1">
                    <mxGeometry relative="1" as="geometry">
                        <mxPoint x="1750" y="1109.0000000000002" as="sourcePoint"/>
                        <mxPoint x="1607" y="1039" as="targetPoint"/>
                    </mxGeometry>
                </mxCell>
                <mxCell id="421" style="edgeStyle=orthogonalEdgeStyle;jumpStyle=none;html=1;exitX=1;exitY=0.5;exitDx=0;exitDy=0;entryX=0;entryY=0.75;entryDx=0;entryDy=0;strokeColor=#CC00CC;fontColor=#CC00CC;startArrow=none;startFill=0;endArrow=none;endFill=0;endSize=6;targetPerimeterSpacing=0;elbow=vertical;exitPerimeter=0;" parent="235" source="560" target="249" edge="1">
                    <mxGeometry relative="1" as="geometry"/>
                </mxCell>
                <mxCell id="259" value="&lt;span style=&quot;color: rgb(24, 20, 29); font-size: 14px; font-weight: 700;&quot;&gt;ms-ventas-db&lt;/span&gt;" style="html=1;dropTarget=0;fillColor=#e1d5e7;strokeColor=#9673a6;" parent="235" vertex="1">
                    <mxGeometry x="1412" y="1309" width="231" height="90" as="geometry"/>
                </mxCell>
                <mxCell id="260" value="" style="shape=module;jettyWidth=8;jettyHeight=4;" parent="259" vertex="1">
                    <mxGeometry x="1" width="20" height="20" relative="1" as="geometry">
                        <mxPoint x="-27" y="7" as="offset"/>
                    </mxGeometry>
                </mxCell>
                <mxCell id="228" style="edgeStyle=orthogonalEdgeStyle;html=1;exitX=1;exitY=0.5;exitDx=0;exitDy=0;strokeColor=#CC00CC;fontColor=#18141D;entryX=0.75;entryY=0;entryDx=0;entryDy=0;startArrow=none;exitPerimeter=0;endArrow=none;endFill=0;" parent="235" source="557" target="259" edge="1">
                    <mxGeometry relative="1" as="geometry">
                        <mxPoint x="1690" y="1199" as="sourcePoint"/>
                        <mxPoint x="1510" y="1309" as="targetPoint"/>
                    </mxGeometry>
                </mxCell>
                <mxCell id="261" value="&lt;span style=&quot;color: rgb(24, 20, 29); font-size: 14px; font-weight: 700;&quot;&gt;ms-productos-bff&lt;/span&gt;" style="html=1;dropTarget=0;fillColor=#dae8fc;strokeColor=#6c8ebf;" parent="235" vertex="1">
                    <mxGeometry x="330" y="1035" width="231" height="90" as="geometry"/>
                </mxCell>
                <mxCell id="262" value="" style="shape=module;jettyWidth=8;jettyHeight=4;" parent="261" vertex="1">
                    <mxGeometry x="1" width="20" height="20" relative="1" as="geometry">
                        <mxPoint x="-27" y="7" as="offset"/>
                    </mxGeometry>
                </mxCell>
                <mxCell id="394" style="jumpStyle=none;html=1;entryX=0.75;entryY=1;entryDx=0;entryDy=0;strokeColor=#3333FF;fontColor=#CC00CC;startArrow=none;startFill=0;endArrow=none;endFill=0;endSize=6;targetPerimeterSpacing=0;elbow=vertical;exitX=1;exitY=0.5;exitDx=0;exitDy=0;" parent="235" source="531" target="261" edge="1">
                    <mxGeometry relative="1" as="geometry"/>
                </mxCell>
                <mxCell id="586" style="html=1;exitX=1;exitY=0.5;exitDx=0;exitDy=0;strokeColor=#3333FF;exitPerimeter=0;endArrow=none;endFill=0;entryX=0.299;entryY=0.997;entryDx=0;entryDy=0;entryPerimeter=0;" parent="235" source="591" target="582" edge="1">
                    <mxGeometry relative="1" as="geometry">
                        <mxPoint x="668" y="1149" as="targetPoint"/>
                    </mxGeometry>
                </mxCell>
                <mxCell id="593" style="html=1;entryX=0;entryY=0.5;entryDx=0;entryDy=0;entryPerimeter=0;strokeColor=#3333FF;endArrow=none;endFill=0;exitX=0.25;exitY=0;exitDx=0;exitDy=0;" parent="235" source="263" target="591" edge="1">
                    <mxGeometry relative="1" as="geometry">
                        <mxPoint x="640" y="1293" as="sourcePoint"/>
                    </mxGeometry>
                </mxCell>
                <mxCell id="766" style="edgeStyle=none;html=1;entryX=0;entryY=0.22;entryDx=0;entryDy=0;entryPerimeter=0;strokeColor=#3333FF;endArrow=none;endFill=0;exitX=1;exitY=0.5;exitDx=0;exitDy=0;startArrow=none;exitPerimeter=0;" parent="235" source="772" target="222" edge="1">
                    <mxGeometry relative="1" as="geometry"/>
                </mxCell>
                <mxCell id="263" value="&lt;span style=&quot;color: rgb(24, 20, 29); font-size: 14px; font-weight: 700;&quot;&gt;ms-productos-db&lt;/span&gt;" style="html=1;dropTarget=0;fillColor=#dae8fc;strokeColor=#6c8ebf;" parent="235" vertex="1">
                    <mxGeometry x="609" y="1309" width="231" height="90" as="geometry"/>
                </mxCell>
                <mxCell id="264" value="" style="shape=module;jettyWidth=8;jettyHeight=4;" parent="263" vertex="1">
                    <mxGeometry x="1" width="20" height="20" relative="1" as="geometry">
                        <mxPoint x="-27" y="7" as="offset"/>
                    </mxGeometry>
                </mxCell>
                <mxCell id="185" style="html=1;strokeColor=#3333FF;fontColor=#18141D;exitX=1;exitY=0.5;exitDx=0;exitDy=0;edgeStyle=orthogonalEdgeStyle;startArrow=none;exitPerimeter=0;entryX=0;entryY=0.75;entryDx=0;entryDy=0;endArrow=none;endFill=0;" parent="235" source="533" target="263" edge="1">
                    <mxGeometry relative="1" as="geometry">
                        <mxPoint x="499" y="1224" as="sourcePoint"/>
                        <mxPoint x="439" y="1103" as="targetPoint"/>
                    </mxGeometry>
                </mxCell>
                <mxCell id="420" style="edgeStyle=orthogonalEdgeStyle;jumpStyle=none;html=1;exitX=1;exitY=0.5;exitDx=0;exitDy=0;entryX=1;entryY=1;entryDx=0;entryDy=0;strokeColor=#FF0000;fontColor=#CC00CC;startArrow=none;startFill=0;endArrow=none;endFill=0;endSize=6;targetPerimeterSpacing=0;elbow=vertical;exitPerimeter=0;" parent="235" source="563" target="249" edge="1">
                    <mxGeometry relative="1" as="geometry">
                        <Array as="points">
                            <mxPoint x="2046" y="1199"/>
                        </Array>
                    </mxGeometry>
                </mxCell>
                <mxCell id="272" value="&lt;span style=&quot;color: rgb(24, 20, 29); font-size: 14px; font-weight: 700;&quot;&gt;ms-webpay-amb&lt;/span&gt;" style="html=1;dropTarget=0;fillColor=#f8cecc;strokeColor=#b85450;" parent="235" vertex="1">
                    <mxGeometry x="1875" y="1309" width="231" height="90" as="geometry"/>
                </mxCell>
                <mxCell id="273" value="" style="shape=module;jettyWidth=8;jettyHeight=4;" parent="272" vertex="1">
                    <mxGeometry x="1" width="20" height="20" relative="1" as="geometry">
                        <mxPoint x="-27" y="7" as="offset"/>
                    </mxGeometry>
                </mxCell>
                <mxCell id="221" style="edgeStyle=orthogonalEdgeStyle;html=1;exitX=1;exitY=0.5;exitDx=0;exitDy=0;strokeColor=#CC00CC;fontColor=#18141D;entryX=0.25;entryY=0;entryDx=0;entryDy=0;startArrow=none;exitPerimeter=0;endArrow=none;endFill=0;" parent="235" source="565" target="272" edge="1">
                    <mxGeometry relative="1" as="geometry">
                        <mxPoint x="1810" y="1199" as="sourcePoint"/>
                        <mxPoint x="1990.066666666667" y="1309" as="targetPoint"/>
                    </mxGeometry>
                </mxCell>
                <mxCell id="169" value="Cafetería Virtual - Facturación" style="swimlane;whiteSpace=wrap;html=1;strokeColor=#66CC00;fontSize=14;fillColor=none;fontColor=#18141D;" parent="235" vertex="1">
                    <mxGeometry x="2386" y="963" width="649" height="331" as="geometry"/>
                </mxCell>
                <mxCell id="525" value="" style="shape=providedRequiredInterface;html=1;verticalLabelPosition=bottom;sketch=0;strokeColor=#66CC00;fontColor=#3333FF;fillColor=none;rotation=0;direction=east;" parent="169" vertex="1">
                    <mxGeometry x="309" y="112" width="20" height="20" as="geometry"/>
                </mxCell>
                <mxCell id="527" value="&lt;font color=&quot;#66cc00&quot;&gt;DatosVenta&lt;/font&gt;" style="text;html=1;align=center;verticalAlign=middle;resizable=0;points=[];autosize=1;strokeColor=none;fillColor=none;fontColor=#000000;" parent="169" vertex="1">
                    <mxGeometry x="282" y="132" width="80" height="26" as="geometry"/>
                </mxCell>
                <mxCell id="528" value="&lt;font color=&quot;#66cc00&quot;&gt;FacturaDTO&lt;/font&gt;" style="text;html=1;align=center;verticalAlign=middle;resizable=0;points=[];autosize=1;strokeColor=none;fillColor=none;fontColor=#000000;" parent="169" vertex="1">
                    <mxGeometry x="282" y="40" width="84" height="26" as="geometry"/>
                </mxCell>
                <mxCell id="826" style="edgeStyle=none;html=1;exitX=0.75;exitY=0;exitDx=0;exitDy=0;entryX=0;entryY=0.5;entryDx=0;entryDy=0;entryPerimeter=0;strokeColor=#66CC00;fontColor=#66CC00;endArrow=none;endFill=0;" parent="169" source="822" target="825" edge="1">
                    <mxGeometry relative="1" as="geometry"/>
                </mxCell>
                <mxCell id="822" value="&lt;font color=&quot;#18141d&quot;&gt;&lt;span style=&quot;font-size: 14px;&quot;&gt;&lt;b&gt;ms-bsale-amb&lt;/b&gt;&lt;/span&gt;&lt;/font&gt;" style="html=1;dropTarget=0;fillColor=#d5e8d4;strokeColor=#82b366;" parent="169" vertex="1">
                    <mxGeometry x="375" y="216" width="231" height="90" as="geometry"/>
                </mxCell>
                <mxCell id="823" value="" style="shape=module;jettyWidth=8;jettyHeight=4;" parent="822" vertex="1">
                    <mxGeometry x="1" width="20" height="20" relative="1" as="geometry">
                        <mxPoint x="-27" y="7" as="offset"/>
                    </mxGeometry>
                </mxCell>
                <mxCell id="828" style="edgeStyle=none;html=1;entryX=0.25;entryY=0;entryDx=0;entryDy=0;strokeColor=#66CC00;fontColor=#66CC00;endArrow=none;endFill=0;" parent="169" source="824" target="822" edge="1">
                    <mxGeometry relative="1" as="geometry"/>
                </mxCell>
                <mxCell id="824" value="" style="shape=providedRequiredInterface;html=1;verticalLabelPosition=bottom;sketch=0;strokeColor=#66CC00;fontColor=#66CC00;fillColor=none;rotation=90;direction=east;" parent="169" vertex="1">
                    <mxGeometry x="422" y="168" width="20" height="20" as="geometry"/>
                </mxCell>
                <mxCell id="825" value="" style="shape=providedRequiredInterface;html=1;verticalLabelPosition=bottom;sketch=0;strokeColor=#66CC00;fontColor=#66CC00;fillColor=none;rotation=90;direction=west;" parent="169" vertex="1">
                    <mxGeometry x="538" y="168" width="20" height="20" as="geometry"/>
                </mxCell>
                <mxCell id="830" value="&lt;font color=&quot;#66cc00&quot;&gt;FacturaDTO&lt;/font&gt;" style="text;html=1;align=center;verticalAlign=middle;resizable=0;points=[];autosize=1;strokeColor=none;fillColor=none;fontColor=#000000;" parent="169" vertex="1">
                    <mxGeometry x="332" y="165" width="84" height="26" as="geometry"/>
                </mxCell>
                <mxCell id="831" value="&lt;font color=&quot;#66cc00&quot;&gt;FacturaDTO&lt;/font&gt;" style="text;html=1;align=center;verticalAlign=middle;resizable=0;points=[];autosize=1;strokeColor=none;fillColor=none;fontColor=#000000;" parent="169" vertex="1">
                    <mxGeometry x="565" y="165" width="84" height="26" as="geometry"/>
                </mxCell>
                <mxCell id="265" value="&lt;span style=&quot;color: rgb(24, 20, 29); font-size: 14px; font-weight: 700;&quot;&gt;ms-facturacion-event-processor&lt;/span&gt;" style="html=1;dropTarget=0;fillColor=#d5e8d4;strokeColor=#82b366;" parent="235" vertex="1">
                    <mxGeometry x="2414" y="1017" width="231" height="90" as="geometry"/>
                </mxCell>
                <mxCell id="266" value="" style="shape=module;jettyWidth=8;jettyHeight=4;" parent="265" vertex="1">
                    <mxGeometry x="1" width="20" height="20" relative="1" as="geometry">
                        <mxPoint x="-27" y="7" as="offset"/>
                    </mxGeometry>
                </mxCell>
                <mxCell id="423" style="jumpStyle=none;html=1;exitX=1;exitY=0.5;exitDx=0;exitDy=0;entryX=1;entryY=0.25;entryDx=0;entryDy=0;strokeColor=#66CC00;fontColor=#CC00CC;startArrow=none;startFill=0;endArrow=none;endFill=0;endSize=6;targetPerimeterSpacing=0;elbow=vertical;exitPerimeter=0;" parent="235" source="529" target="265" edge="1">
                    <mxGeometry relative="1" as="geometry"/>
                </mxCell>
                <mxCell id="829" style="edgeStyle=none;html=1;exitX=0.25;exitY=1;exitDx=0;exitDy=0;entryX=0;entryY=0.5;entryDx=0;entryDy=0;entryPerimeter=0;strokeColor=#66CC00;fontColor=#66CC00;endArrow=none;endFill=0;" parent="235" source="267" target="824" edge="1">
                    <mxGeometry relative="1" as="geometry"/>
                </mxCell>
                <mxCell id="267" value="&lt;span style=&quot;color: rgb(24, 20, 29); font-size: 14px; font-weight: 700;&quot;&gt;ms-facturacion-bs&lt;/span&gt;" style="html=1;dropTarget=0;fillColor=#d5e8d4;strokeColor=#82b366;" parent="235" vertex="1">
                    <mxGeometry x="2760" y="1017" width="231" height="90" as="geometry"/>
                </mxCell>
                <mxCell id="268" value="" style="shape=module;jettyWidth=8;jettyHeight=4;" parent="267" vertex="1">
                    <mxGeometry x="1" width="20" height="20" relative="1" as="geometry">
                        <mxPoint x="-27" y="7" as="offset"/>
                    </mxGeometry>
                </mxCell>
                <mxCell id="174" style="edgeStyle=none;html=1;strokeColor=#66CC00;fontColor=#18141D;exitX=1;exitY=0.5;exitDx=0;exitDy=0;entryX=0;entryY=0.75;entryDx=0;entryDy=0;startArrow=none;exitPerimeter=0;endArrow=none;endFill=0;" parent="235" source="525" target="267" edge="1">
                    <mxGeometry relative="1" as="geometry">
                        <mxPoint x="2641" y="1062" as="sourcePoint"/>
                        <mxPoint x="2751" y="1062" as="targetPoint"/>
                    </mxGeometry>
                </mxCell>
                <mxCell id="192" value="Horizontal Container" style="swimlane;horizontal=0;whiteSpace=wrap;html=1;strokeColor=#CC00CC;fontColor=#18141D;" parent="235" vertex="1">
                    <mxGeometry x="1144" y="915" width="1226" height="550" as="geometry"/>
                </mxCell>
                <mxCell id="549" value="VentaDTO" style="text;html=1;align=center;verticalAlign=middle;resizable=0;points=[];autosize=1;strokeColor=none;fillColor=none;fontColor=#CC00CC;" parent="192" vertex="1">
                    <mxGeometry x="517" y="132" width="74" height="26" as="geometry"/>
                </mxCell>
                <mxCell id="556" value="VentaDTO" style="text;html=1;align=center;verticalAlign=middle;resizable=0;points=[];autosize=1;strokeColor=none;fillColor=none;fontColor=#CC00CC;" parent="192" vertex="1">
                    <mxGeometry x="828" y="215" width="74" height="26" as="geometry"/>
                </mxCell>
                <mxCell id="559" value="VentaDTO" style="text;html=1;align=center;verticalAlign=middle;resizable=0;points=[];autosize=1;strokeColor=none;fillColor=none;fontColor=#CC00CC;" parent="192" vertex="1">
                    <mxGeometry x="464" y="354" width="74" height="26" as="geometry"/>
                </mxCell>
                <mxCell id="562" value="VentaDTO" style="text;html=1;align=center;verticalAlign=middle;resizable=0;points=[];autosize=1;strokeColor=none;fillColor=none;fontColor=#CC00CC;" parent="192" vertex="1">
                    <mxGeometry x="240" y="315" width="74" height="26" as="geometry"/>
                </mxCell>
                <mxCell id="563" value="" style="shape=providedRequiredInterface;html=1;verticalLabelPosition=bottom;sketch=0;strokeColor=#FF0000;fontColor=#3333FF;fillColor=none;rotation=85;direction=west;" parent="192" vertex="1">
                    <mxGeometry x="893" y="318" width="20" height="20" as="geometry"/>
                </mxCell>
                <mxCell id="567" value="VentaDTO" style="text;html=1;align=center;verticalAlign=middle;resizable=0;points=[];autosize=1;strokeColor=none;fillColor=none;fontColor=#CC00CC;" parent="192" vertex="1">
                    <mxGeometry x="684" y="354" width="74" height="26" as="geometry"/>
                </mxCell>
                <mxCell id="568" value="&lt;font color=&quot;#ff0000&quot;&gt;VentaDTO&lt;/font&gt;" style="text;html=1;align=center;verticalAlign=middle;resizable=0;points=[];autosize=1;strokeColor=none;fillColor=none;fontColor=#CC00CC;" parent="192" vertex="1">
                    <mxGeometry x="924" y="310" width="74" height="26" as="geometry"/>
                </mxCell>
                <mxCell id="572" value="DatosVenta" style="text;html=1;align=center;verticalAlign=middle;resizable=0;points=[];autosize=1;strokeColor=none;fillColor=none;fontColor=#CC00CC;" parent="192" vertex="1">
                    <mxGeometry x="170" y="380" width="80" height="26" as="geometry"/>
                </mxCell>
                <mxCell id="573" value="" style="shape=providedRequiredInterface;html=1;verticalLabelPosition=bottom;sketch=0;strokeColor=#CC00CC;fontColor=#3333FF;fillColor=none;rotation=90;direction=north;" parent="192" vertex="1">
                    <mxGeometry x="200" y="453" width="20" height="20" as="geometry"/>
                </mxCell>
                <mxCell id="575" value="Venta" style="text;html=1;align=center;verticalAlign=middle;resizable=0;points=[];autosize=1;strokeColor=none;fillColor=none;fontColor=#CC00CC;" parent="192" vertex="1">
                    <mxGeometry x="186" y="473" width="49" height="26" as="geometry"/>
                </mxCell>
                <mxCell id="253" value="&lt;span style=&quot;color: rgb(24, 20, 29); font-size: 14px; font-weight: 700;&quot;&gt;ms-ventas-bff&lt;/span&gt;" style="html=1;dropTarget=0;fillColor=#e1d5e7;strokeColor=#9673a6;" parent="192" vertex="1">
                    <mxGeometry x="969" y="215" width="231" height="90" as="geometry"/>
                </mxCell>
                <mxCell id="254" value="" style="shape=module;jettyWidth=8;jettyHeight=4;" parent="253" vertex="1">
                    <mxGeometry x="1" width="20" height="20" relative="1" as="geometry">
                        <mxPoint x="-27" y="7" as="offset"/>
                    </mxGeometry>
                </mxCell>
                <mxCell id="607" value="" style="shape=providedRequiredInterface;html=1;verticalLabelPosition=bottom;sketch=0;strokeColor=#CC00CC;fontColor=#3333FF;fillColor=none;rotation=90;direction=north;" parent="192" vertex="1">
                    <mxGeometry x="833" y="251" width="20" height="20" as="geometry"/>
                </mxCell>
                <mxCell id="602" style="elbow=vertical;html=1;exitX=1;exitY=0.5;exitDx=0;exitDy=0;strokeColor=#CC00CC;exitPerimeter=0;endArrow=none;endFill=0;entryX=0;entryY=0.5;entryDx=0;entryDy=0;" parent="192" source="607" target="253" edge="1">
                    <mxGeometry relative="1" as="geometry">
                        <mxPoint x="976" y="258" as="targetPoint"/>
                    </mxGeometry>
                </mxCell>
                <mxCell id="745" value="&lt;font color=&quot;#cc00cc&quot;&gt;VentaDTO&lt;br&gt;&lt;/font&gt;" style="text;html=1;align=center;verticalAlign=middle;resizable=0;points=[];autosize=1;strokeColor=none;fillColor=none;fontColor=#66CC00;" parent="192" vertex="1">
                    <mxGeometry x="859" y="257" width="74" height="26" as="geometry"/>
                </mxCell>
                <mxCell id="746" value="&lt;span style=&quot;color: rgb(24, 20, 29); font-size: 14px; font-weight: 700;&quot;&gt;ms-ventas-consumer&lt;/span&gt;" style="html=1;dropTarget=0;fillColor=#e1d5e7;strokeColor=#9673a6;" parent="192" vertex="1">
                    <mxGeometry x="613" y="42" width="231" height="90" as="geometry"/>
                </mxCell>
                <mxCell id="747" value="" style="shape=module;jettyWidth=8;jettyHeight=4;" parent="746" vertex="1">
                    <mxGeometry x="1" width="20" height="20" relative="1" as="geometry">
                        <mxPoint x="-27" y="7" as="offset"/>
                    </mxGeometry>
                </mxCell>
                <mxCell id="750" style="edgeStyle=elbowEdgeStyle;elbow=vertical;html=1;entryX=0.5;entryY=1;entryDx=0;entryDy=0;strokeColor=#CC00CC;endArrow=none;endFill=0;exitX=0;exitY=0.5;exitDx=0;exitDy=0;exitPerimeter=0;" parent="192" source="748" target="746" edge="1">
                    <mxGeometry relative="1" as="geometry">
                        <mxPoint x="690" y="155" as="sourcePoint"/>
                    </mxGeometry>
                </mxCell>
                <mxCell id="748" value="" style="shape=providedRequiredInterface;html=1;verticalLabelPosition=bottom;sketch=0;strokeColor=#CC00CC;fontColor=#3333FF;fillColor=none;rotation=90;direction=east;" parent="192" vertex="1">
                    <mxGeometry x="718.5" y="153" width="20" height="20" as="geometry"/>
                </mxCell>
                <mxCell id="751" value="VentaDTO" style="text;html=1;align=center;verticalAlign=middle;resizable=0;points=[];autosize=1;strokeColor=none;fillColor=none;fontColor=#CC00CC;" parent="192" vertex="1">
                    <mxGeometry x="733" y="150" width="74" height="26" as="geometry"/>
                </mxCell>
                <mxCell id="798" value="&lt;span style=&quot;font-size: 14px; font-weight: 700;&quot;&gt;ms-ventas-notifier&lt;/span&gt;" style="html=1;dropTarget=0;fillColor=#e1d5e7;strokeColor=#9673a6;" parent="192" vertex="1">
                    <mxGeometry x="73" y="81" width="231" height="90" as="geometry"/>
                </mxCell>
                <mxCell id="799" value="" style="shape=module;jettyWidth=8;jettyHeight=4;" parent="798" vertex="1">
                    <mxGeometry x="1" width="20" height="20" relative="1" as="geometry">
                        <mxPoint x="-27" y="7" as="offset"/>
                    </mxGeometry>
                </mxCell>
                <mxCell id="810" value="VentaDTO" style="text;html=1;align=center;verticalAlign=middle;resizable=0;points=[];autosize=1;strokeColor=none;fillColor=none;fontColor=#CC00CC;" parent="192" vertex="1">
                    <mxGeometry x="330" y="173" width="74" height="26" as="geometry"/>
                </mxCell>
                <mxCell id="813" value="VentaDTO" style="text;html=1;align=center;verticalAlign=middle;resizable=0;points=[];autosize=1;strokeColor=none;fillColor=none;fontColor=#CC00CC;" parent="192" vertex="1">
                    <mxGeometry x="247" y="251" width="74" height="26" as="geometry"/>
                </mxCell>
                <mxCell id="814" value="(attr: ventaNotificada)" style="text;html=1;align=center;verticalAlign=middle;resizable=0;points=[];autosize=1;strokeColor=none;fillColor=none;fontColor=#CC00CC;" parent="192" vertex="1">
                    <mxGeometry x="181" y="267" width="133" height="26" as="geometry"/>
                </mxCell>
                <mxCell id="229" style="html=1;entryX=1;entryY=0.22;entryDx=0;entryDy=0;entryPerimeter=0;strokeColor=#CC00CC;fontColor=#18141D;startArrow=none;startFill=0;exitX=1;exitY=0.5;exitDx=0;exitDy=0;exitPerimeter=0;endArrow=none;endFill=0;" parent="235" source="570" target="222" edge="1">
                    <mxGeometry relative="1" as="geometry">
                        <mxPoint x="1400" y="1354" as="sourcePoint"/>
                    </mxGeometry>
                </mxCell>
                <mxCell id="230" value="Transbank - Webpay" style="swimlane;whiteSpace=wrap;html=1;startSize=23;strokeColor=#FF0000;fillColor=none;fontColor=#18141D;" parent="235" vertex="1">
                    <mxGeometry x="1865" y="1518" width="260" height="218" as="geometry"/>
                </mxCell>
                <mxCell id="274" value="&lt;span style=&quot;color: rgb(24, 20, 29); font-size: 14px; font-weight: 700;&quot;&gt;api-webpay&lt;/span&gt;" style="html=1;dropTarget=0;fillColor=#f8cecc;strokeColor=#b85450;" parent="230" vertex="1">
                    <mxGeometry x="10" y="64" width="231" height="90" as="geometry"/>
                </mxCell>
                <mxCell id="275" value="" style="shape=module;jettyWidth=8;jettyHeight=4;" parent="274" vertex="1">
                    <mxGeometry x="1" width="20" height="20" relative="1" as="geometry">
                        <mxPoint x="-27" y="7" as="offset"/>
                    </mxGeometry>
                </mxCell>
                <mxCell id="232" style="edgeStyle=orthogonalEdgeStyle;html=1;strokeColor=#FF0000;fontColor=#18141D;entryX=0.25;entryY=0;entryDx=0;entryDy=0;exitX=1;exitY=0.5;exitDx=0;exitDy=0;startArrow=none;exitPerimeter=0;endArrow=none;endFill=0;" parent="235" source="576" target="274" edge="1">
                    <mxGeometry relative="1" as="geometry">
                        <mxPoint x="2000.066666666667" y="1398" as="sourcePoint"/>
                        <mxPoint x="2001" y="1606" as="targetPoint"/>
                    </mxGeometry>
                </mxCell>
                <mxCell id="422" style="jumpStyle=none;html=1;exitX=1;exitY=0.5;exitDx=0;exitDy=0;entryX=0.75;entryY=1;entryDx=0;entryDy=0;strokeColor=#FF0000;fontColor=#CC00CC;startArrow=none;startFill=0;endArrow=none;endFill=0;endSize=6;targetPerimeterSpacing=0;elbow=vertical;fillColor=#f8cecc;exitPerimeter=0;" parent="235" source="578" target="272" edge="1">
                    <mxGeometry relative="1" as="geometry"/>
                </mxCell>
                <mxCell id="437" value="" style="ellipse;html=1;fontSize=11;align=center;fillColor=none;points=[];aspect=fixed;resizable=0;verticalAlign=bottom;labelPosition=center;verticalLabelPosition=top;flipH=1;strokeColor=#66CC00;fontColor=#CC00CC;" parent="235" vertex="1">
                    <mxGeometry x="2584" y="745" width="8" height="8" as="geometry"/>
                </mxCell>
                <mxCell id="436" style="edgeStyle=orthogonalEdgeStyle;jumpStyle=none;html=1;exitX=0.75;exitY=0;exitDx=0;exitDy=0;strokeColor=#66CC00;fontColor=#66CC00;startArrow=none;startFill=0;endArrow=none;endFill=0;endSize=6;targetPerimeterSpacing=0;elbow=vertical;" parent="235" source="265" target="437" edge="1">
                    <mxGeometry relative="1" as="geometry">
                        <mxPoint x="2587" y="778" as="targetPoint"/>
                    </mxGeometry>
                </mxCell>
                <mxCell id="440" value="EventoFactura" style="text;html=1;align=center;verticalAlign=middle;resizable=0;points=[];autosize=1;strokeColor=none;fillColor=none;fontColor=#66CC00;" parent="235" vertex="1">
                    <mxGeometry x="2549" y="710" width="96" height="26" as="geometry"/>
                </mxCell>
                <mxCell id="477" style="jumpStyle=none;html=1;strokeColor=#000000;fontColor=#66CC00;startArrow=none;startFill=0;endArrow=none;endFill=0;endSize=6;targetPerimeterSpacing=0;elbow=vertical;entryX=0.25;entryY=0;entryDx=0;entryDy=0;" parent="235" source="521" target="245" edge="1">
                    <mxGeometry relative="1" as="geometry"/>
                </mxCell>
                <mxCell id="479" style="edgeStyle=none;jumpStyle=none;html=1;strokeColor=#CC00CC;fontColor=#66CC00;startArrow=none;startFill=0;endArrow=none;endFill=0;endSize=6;targetPerimeterSpacing=0;elbow=vertical;exitX=0.992;exitY=1.012;exitDx=0;exitDy=0;exitPerimeter=0;" parent="235" source="450" target="480" edge="1">
                    <mxGeometry relative="1" as="geometry">
                        <mxPoint x="1469" y="472" as="sourcePoint"/>
                        <mxPoint x="1468" y="550" as="targetPoint"/>
                    </mxGeometry>
                </mxCell>
                <mxCell id="450" value="&lt;font color=&quot;#18141d&quot;&gt;&lt;span style=&quot;font-size: 14px;&quot;&gt;&lt;b&gt;api-gateway&lt;/b&gt;&lt;/span&gt;&lt;/font&gt;" style="html=1;dropTarget=0;" parent="235" vertex="1">
                    <mxGeometry x="338" y="251" width="1632" height="93" as="geometry"/>
                </mxCell>
                <mxCell id="451" value="" style="shape=module;jettyWidth=8;jettyHeight=4;" parent="450" vertex="1">
                    <mxGeometry x="1" width="20" height="20" relative="1" as="geometry">
                        <mxPoint x="-27" y="7" as="offset"/>
                    </mxGeometry>
                </mxCell>
                <mxCell id="480" value="" style="ellipse;html=1;fontSize=11;align=center;fillColor=none;points=[];aspect=fixed;resizable=0;verticalAlign=bottom;labelPosition=center;verticalLabelPosition=top;flipH=1;strokeColor=#CC00CC;fontColor=#66CC00;direction=south;" parent="235" vertex="1">
                    <mxGeometry x="1955" y="562" width="8" height="8" as="geometry"/>
                </mxCell>
                <mxCell id="482" value="&lt;font color=&quot;#cc00cc&quot;&gt;Venta&lt;/font&gt;" style="text;html=1;align=center;verticalAlign=middle;resizable=0;points=[];autosize=1;strokeColor=none;fillColor=none;fontColor=#66CC00;" parent="235" vertex="1">
                    <mxGeometry x="1893" y="553" width="49" height="26" as="geometry"/>
                </mxCell>
                <mxCell id="483" value="Factura" style="text;html=1;align=center;verticalAlign=middle;resizable=0;points=[];autosize=1;strokeColor=none;fillColor=none;fontColor=#66CC00;" parent="235" vertex="1">
                    <mxGeometry x="2110" y="872.5" width="59" height="26" as="geometry"/>
                </mxCell>
                <mxCell id="461" value="" style="html=1;rounded=0;strokeColor=#66CC00;fontColor=#66CC00;fillColor=#66CC00;" parent="235" vertex="1">
                    <mxGeometry x="2085" y="811" width="30" height="30" as="geometry"/>
                </mxCell>
                <mxCell id="468" value="EventoVenta" style="text;html=1;align=center;verticalAlign=middle;resizable=0;points=[];autosize=1;strokeColor=none;fillColor=none;fontColor=#CC00CC;" parent="235" vertex="1">
                    <mxGeometry x="1779" y="831" width="86" height="26" as="geometry"/>
                </mxCell>
                <mxCell id="435" value="" style="shape=requiredInterface;html=1;fontSize=11;align=center;fillColor=none;points=[];aspect=fixed;resizable=0;verticalAlign=bottom;labelPosition=center;verticalLabelPosition=top;flipH=1;strokeColor=#66CC00;fontColor=#66CC00;" parent="235" vertex="1">
                    <mxGeometry x="2579" y="743" width="5" height="10" as="geometry"/>
                </mxCell>
                <mxCell id="494" value="&lt;font color=&quot;#cc00cc&quot;&gt;PayloadVenta&lt;/font&gt;" style="text;html=1;align=center;verticalAlign=middle;resizable=0;points=[];autosize=1;strokeColor=none;fillColor=none;fontColor=#66CC00;" parent="235" vertex="1">
                    <mxGeometry x="1999" y="553" width="92" height="26" as="geometry"/>
                </mxCell>
                <mxCell id="503" value="&lt;font color=&quot;#3333ff&quot;&gt;ProductoDTO&lt;/font&gt;" style="text;html=1;align=center;verticalAlign=middle;resizable=0;points=[];autosize=1;strokeColor=none;fillColor=none;fontColor=#000000;" parent="235" vertex="1">
                    <mxGeometry x="679" y="684" width="91" height="26" as="geometry"/>
                </mxCell>
                <mxCell id="504" value="&lt;font color=&quot;#3333ff&quot;&gt;QueryProducto&lt;/font&gt;" style="text;html=1;align=center;verticalAlign=middle;resizable=0;points=[];autosize=1;strokeColor=none;fillColor=none;fontColor=#000000;" parent="235" vertex="1">
                    <mxGeometry x="505" y="497" width="99" height="26" as="geometry"/>
                </mxCell>
                <mxCell id="519" value="" style="shape=providedRequiredInterface;html=1;verticalLabelPosition=bottom;sketch=0;strokeColor=#00FFFF;fontColor=#3333FF;fillColor=none;rotation=-90;" parent="235" vertex="1">
                    <mxGeometry x="500" y="461" width="20" height="20" as="geometry"/>
                </mxCell>
                <mxCell id="520" value="" style="jumpStyle=none;html=1;entryX=0;entryY=0.5;entryDx=0;entryDy=0;entryPerimeter=0;strokeColor=#00FFFF;fontColor=#66CC00;startArrow=none;startFill=0;endArrow=none;endFill=1;endSize=6;elbow=vertical;exitX=0.75;exitY=0;exitDx=0;exitDy=0;" parent="235" source="245" target="519" edge="1">
                    <mxGeometry relative="1" as="geometry">
                        <mxPoint x="-646" y="253.0588235294117" as="sourcePoint"/>
                        <mxPoint x="517" y="520.0000000000005" as="targetPoint"/>
                    </mxGeometry>
                </mxCell>
                <mxCell id="521" value="" style="shape=providedRequiredInterface;html=1;verticalLabelPosition=bottom;sketch=0;strokeColor=#000000;fontColor=#3333FF;fillColor=none;rotation=90;" parent="235" vertex="1">
                    <mxGeometry x="386" y="431" width="20" height="20" as="geometry"/>
                </mxCell>
                <mxCell id="522" value="" style="jumpStyle=none;html=1;strokeColor=#000000;fontColor=#66CC00;startArrow=none;startFill=0;endArrow=none;endFill=1;endSize=6;elbow=vertical;exitX=0.036;exitY=1;exitDx=0;exitDy=0;exitPerimeter=0;" parent="235" source="450" target="521" edge="1">
                    <mxGeometry relative="1" as="geometry">
                        <mxPoint x="440" y="385" as="sourcePoint"/>
                        <mxPoint x="-851.48" y="208" as="targetPoint"/>
                    </mxGeometry>
                </mxCell>
                <mxCell id="523" value="&lt;font color=&quot;#00ffff&quot;&gt;UserDTO&lt;/font&gt;" style="text;html=1;align=center;verticalAlign=middle;resizable=0;points=[];autosize=1;strokeColor=none;fillColor=none;fontColor=#3333FF;" parent="235" vertex="1">
                    <mxGeometry x="520" y="458" width="68" height="26" as="geometry"/>
                </mxCell>
                <mxCell id="524" value="&lt;font color=&quot;#000000&quot;&gt;UserDTO&lt;/font&gt;" style="text;html=1;align=center;verticalAlign=middle;resizable=0;points=[];autosize=1;strokeColor=none;fillColor=none;fontColor=#3333FF;" parent="235" vertex="1">
                    <mxGeometry x="321" y="428" width="68" height="26" as="geometry"/>
                </mxCell>
                <mxCell id="526" value="" style="edgeStyle=none;html=1;strokeColor=#66CC00;fontColor=#18141D;exitX=1;exitY=0.75;exitDx=0;exitDy=0;entryX=0;entryY=0.5;entryDx=0;entryDy=0;endArrow=none;entryPerimeter=0;" parent="235" source="265" target="525" edge="1">
                    <mxGeometry relative="1" as="geometry">
                        <mxPoint x="1641" y="705.5" as="sourcePoint"/>
                        <mxPoint x="1756" y="705.5" as="targetPoint"/>
                    </mxGeometry>
                </mxCell>
                <mxCell id="530" value="" style="jumpStyle=none;html=1;exitX=0;exitY=0.25;exitDx=0;exitDy=0;entryX=0;entryY=0.5;entryDx=0;entryDy=0;strokeColor=#66CC00;fontColor=#CC00CC;startArrow=none;startFill=0;endArrow=none;endFill=1;endSize=6;elbow=vertical;entryPerimeter=0;" parent="235" source="267" target="529" edge="1">
                    <mxGeometry relative="1" as="geometry">
                        <mxPoint x="1756" y="660.5" as="sourcePoint"/>
                        <mxPoint x="1641.0000000000005" y="660.5" as="targetPoint"/>
                    </mxGeometry>
                </mxCell>
                <mxCell id="529" value="" style="shape=providedRequiredInterface;html=1;verticalLabelPosition=bottom;sketch=0;strokeColor=#66CC00;fontColor=#3333FF;fillColor=none;rotation=0;direction=west;" parent="235" vertex="1">
                    <mxGeometry x="2695" y="1029" width="20" height="20" as="geometry"/>
                </mxCell>
                <mxCell id="531" value="" style="shape=providedRequiredInterface;html=1;verticalLabelPosition=bottom;sketch=0;strokeColor=#3333FF;fontColor=#3333FF;fillColor=none;rotation=-90;" parent="235" vertex="1">
                    <mxGeometry x="492" y="1263" width="20" height="20" as="geometry"/>
                </mxCell>
                <mxCell id="532" value="" style="edgeStyle=orthogonalEdgeStyle;jumpStyle=none;html=1;entryX=0;entryY=0.5;entryDx=0;entryDy=0;strokeColor=#3333FF;fontColor=#CC00CC;startArrow=none;startFill=0;endArrow=none;endFill=1;endSize=6;elbow=vertical;exitX=0;exitY=0.25;exitDx=0;exitDy=0;entryPerimeter=0;" parent="235" source="263" target="531" edge="1">
                    <mxGeometry relative="1" as="geometry">
                        <mxPoint x="-560" y="852" as="sourcePoint"/>
                        <mxPoint x="-452.75" y="754" as="targetPoint"/>
                    </mxGeometry>
                </mxCell>
                <mxCell id="533" value="" style="shape=providedRequiredInterface;html=1;verticalLabelPosition=bottom;sketch=0;strokeColor=#3333FF;fontColor=#3333FF;fillColor=none;rotation=-180;direction=north;" parent="235" vertex="1">
                    <mxGeometry x="378" y="1236" width="20" height="20" as="geometry"/>
                </mxCell>
                <mxCell id="534" value="" style="html=1;strokeColor=#3333FF;fontColor=#18141D;exitX=0.25;exitY=1;exitDx=0;exitDy=0;endArrow=none;edgeStyle=orthogonalEdgeStyle;entryX=0;entryY=0.5;entryDx=0;entryDy=0;entryPerimeter=0;" parent="235" source="261" target="533" edge="1">
                    <mxGeometry relative="1" as="geometry">
                        <mxPoint x="-568.25" y="754" as="sourcePoint"/>
                        <mxPoint x="-675.4999999999998" y="807" as="targetPoint"/>
                    </mxGeometry>
                </mxCell>
                <mxCell id="537" value="&lt;font color=&quot;#3333ff&quot;&gt;ProductoDTO&lt;/font&gt;" style="text;html=1;align=center;verticalAlign=middle;resizable=0;points=[];autosize=1;strokeColor=none;fillColor=none;fontColor=#000000;" parent="235" vertex="1">
                    <mxGeometry x="404" y="1260" width="91" height="26" as="geometry"/>
                </mxCell>
                <mxCell id="538" value="&lt;font color=&quot;#3333ff&quot;&gt;QueryProducto&lt;/font&gt;" style="text;html=1;align=center;verticalAlign=middle;resizable=0;points=[];autosize=1;strokeColor=none;fillColor=none;fontColor=#000000;" parent="235" vertex="1">
                    <mxGeometry x="279" y="1233" width="99" height="26" as="geometry"/>
                </mxCell>
                <mxCell id="775" style="edgeStyle=elbowEdgeStyle;html=1;exitX=1;exitY=0.5;exitDx=0;exitDy=0;exitPerimeter=0;entryX=0.75;entryY=1;entryDx=0;entryDy=0;strokeColor=#FF8000;endArrow=none;endFill=0;elbow=vertical;" parent="235" source="544" target="764" edge="1">
                    <mxGeometry relative="1" as="geometry">
                        <Array as="points">
                            <mxPoint x="224" y="981"/>
                        </Array>
                    </mxGeometry>
                </mxCell>
                <mxCell id="544" value="" style="shape=providedRequiredInterface;html=1;verticalLabelPosition=bottom;sketch=0;strokeColor=#FF8000;fontColor=#3333FF;fillColor=none;rotation=-180;direction=south;" parent="235" vertex="1">
                    <mxGeometry x="101.9" y="1109" width="20" height="20" as="geometry"/>
                </mxCell>
                <mxCell id="546" value="&lt;font color=&quot;#ff8000&quot;&gt;User&lt;/font&gt;" style="text;html=1;align=center;verticalAlign=middle;resizable=0;points=[];autosize=1;strokeColor=none;fillColor=none;fontColor=#000000;" parent="235" vertex="1">
                    <mxGeometry x="126" y="1106" width="43" height="26" as="geometry"/>
                </mxCell>
                <mxCell id="552" value="" style="edgeStyle=orthogonalEdgeStyle;html=1;strokeColor=#CC00CC;fontColor=#18141D;exitX=0.25;exitY=0;exitDx=0;exitDy=0;endArrow=none;entryX=0;entryY=0.5;entryDx=0;entryDy=0;entryPerimeter=0;" parent="235" source="249" target="547" edge="1">
                    <mxGeometry relative="1" as="geometry">
                        <mxPoint x="683.7499999999995" y="730" as="sourcePoint"/>
                        <mxPoint x="599.5384615384614" y="660" as="targetPoint"/>
                    </mxGeometry>
                </mxCell>
                <mxCell id="547" value="" style="shape=providedRequiredInterface;html=1;verticalLabelPosition=bottom;sketch=0;strokeColor=#CC00CC;fontColor=#CC00CC;direction=west;" parent="235" vertex="1">
                    <mxGeometry x="1634" y="1064" width="20" height="20" as="geometry"/>
                </mxCell>
                <mxCell id="558" value="" style="edgeStyle=orthogonalEdgeStyle;html=1;exitX=0.25;exitY=1;exitDx=0;exitDy=0;strokeColor=#CC00CC;fontColor=#18141D;entryX=0;entryY=0.5;entryDx=0;entryDy=0;endArrow=none;entryPerimeter=0;" parent="235" source="249" target="557" edge="1">
                    <mxGeometry relative="1" as="geometry">
                        <mxPoint x="683.7499999999995" y="820" as="sourcePoint"/>
                        <mxPoint x="581.25" y="930" as="targetPoint"/>
                    </mxGeometry>
                </mxCell>
                <mxCell id="557" value="" style="shape=providedRequiredInterface;html=1;verticalLabelPosition=bottom;sketch=0;strokeColor=#CC00CC;fontColor=#3333FF;fillColor=none;rotation=85;direction=south;" parent="235" vertex="1">
                    <mxGeometry x="1630" y="1243" width="20" height="20" as="geometry"/>
                </mxCell>
                <mxCell id="561" value="" style="edgeStyle=orthogonalEdgeStyle;jumpStyle=none;html=1;exitX=0.25;exitY=0;exitDx=0;exitDy=0;entryX=0;entryY=0.5;entryDx=0;entryDy=0;strokeColor=#CC00CC;fontColor=#CC00CC;startArrow=none;startFill=0;endArrow=none;endFill=1;endSize=6;elbow=vertical;entryPerimeter=0;" parent="235" source="259" target="560" edge="1">
                    <mxGeometry relative="1" as="geometry">
                        <mxPoint x="465.75" y="930" as="sourcePoint"/>
                        <mxPoint x="626" y="797.5" as="targetPoint"/>
                    </mxGeometry>
                </mxCell>
                <mxCell id="560" value="" style="shape=providedRequiredInterface;html=1;verticalLabelPosition=bottom;sketch=0;strokeColor=#CC00CC;fontColor=#3333FF;fillColor=none;rotation=85;direction=west;" parent="235" vertex="1">
                    <mxGeometry x="1459" y="1233" width="20" height="20" as="geometry"/>
                </mxCell>
                <mxCell id="564" value="" style="edgeStyle=orthogonalEdgeStyle;jumpStyle=none;html=1;exitX=0.75;exitY=0;exitDx=0;exitDy=0;entryX=0;entryY=0.5;entryDx=0;entryDy=0;strokeColor=#FF0000;fontColor=#CC00CC;startArrow=none;startFill=0;endArrow=none;endFill=1;endSize=6;elbow=vertical;entryPerimeter=0;" parent="235" source="272" target="563" edge="1">
                    <mxGeometry relative="1" as="geometry">
                        <mxPoint x="1045.25" y="930" as="sourcePoint"/>
                        <mxPoint x="857" y="797.5" as="targetPoint"/>
                    </mxGeometry>
                </mxCell>
                <mxCell id="566" value="" style="edgeStyle=orthogonalEdgeStyle;html=1;exitX=0.75;exitY=1;exitDx=0;exitDy=0;strokeColor=#CC00CC;fontColor=#18141D;entryX=0;entryY=0.5;entryDx=0;entryDy=0;endArrow=none;entryPerimeter=0;" parent="235" source="249" target="565" edge="1">
                    <mxGeometry relative="1" as="geometry">
                        <mxPoint x="799.2499999999995" y="820" as="sourcePoint"/>
                        <mxPoint x="929.75" y="930" as="targetPoint"/>
                    </mxGeometry>
                </mxCell>
                <mxCell id="565" value="" style="shape=providedRequiredInterface;html=1;verticalLabelPosition=bottom;sketch=0;strokeColor=#CC00CC;fontColor=#3333FF;fillColor=none;rotation=90;direction=north;" parent="235" vertex="1">
                    <mxGeometry x="1853" y="1246" width="20" height="20" as="geometry"/>
                </mxCell>
                <mxCell id="569" style="edgeStyle=none;html=1;entryX=0;entryY=0.75;entryDx=0;entryDy=0;strokeColor=#CC00CC;fontColor=#FF0000;startArrow=none;startFill=0;exitX=1;exitY=0.5;exitDx=0;exitDy=0;exitPerimeter=0;endArrow=none;endFill=0;" parent="235" source="573" target="259" edge="1">
                    <mxGeometry relative="1" as="geometry"/>
                </mxCell>
                <mxCell id="570" value="" style="shape=providedRequiredInterface;html=1;verticalLabelPosition=bottom;sketch=0;strokeColor=#CC00CC;fontColor=#3333FF;fillColor=none;rotation=85;direction=south;" parent="235" vertex="1">
                    <mxGeometry x="1348" y="1321" width="20" height="20" as="geometry"/>
                </mxCell>
                <mxCell id="571" value="" style="html=1;strokeColor=#CC00CC;fontColor=#18141D;startArrow=none;startFill=0;exitX=0;exitY=0.25;exitDx=0;exitDy=0;endArrow=none;entryX=0;entryY=0.5;entryDx=0;entryDy=0;entryPerimeter=0;" parent="235" source="259" target="570" edge="1">
                    <mxGeometry relative="1" as="geometry">
                        <mxPoint x="408" y="952.5" as="sourcePoint"/>
                        <mxPoint x="1377" y="1326" as="targetPoint"/>
                    </mxGeometry>
                </mxCell>
                <mxCell id="577" value="" style="html=1;strokeColor=#FF0000;fontColor=#18141D;entryX=0;entryY=0.5;entryDx=0;entryDy=0;exitX=0.25;exitY=1;exitDx=0;exitDy=0;endArrow=none;entryPerimeter=0;" parent="235" source="272" target="576" edge="1">
                    <mxGeometry relative="1" as="geometry">
                        <mxPoint x="928.75" y="1020" as="sourcePoint"/>
                        <mxPoint x="928.75" y="1202.9999999999995" as="targetPoint"/>
                    </mxGeometry>
                </mxCell>
                <mxCell id="576" value="" style="shape=providedRequiredInterface;html=1;verticalLabelPosition=bottom;sketch=0;strokeColor=#FF0000;fontColor=#3333FF;fillColor=none;rotation=85;direction=east;" parent="235" vertex="1">
                    <mxGeometry x="1922" y="1481" width="20" height="20" as="geometry"/>
                </mxCell>
                <mxCell id="578" value="" style="shape=providedRequiredInterface;html=1;verticalLabelPosition=bottom;sketch=0;strokeColor=#FF0000;fontColor=#3333FF;fillColor=none;rotation=85;direction=west;" parent="235" vertex="1">
                    <mxGeometry x="2037" y="1481" width="20" height="20" as="geometry"/>
                </mxCell>
                <mxCell id="579" value="" style="edgeStyle=orthogonalEdgeStyle;jumpStyle=none;html=1;exitX=0.75;exitY=0;exitDx=0;exitDy=0;entryX=0;entryY=0.5;entryDx=0;entryDy=0;strokeColor=#FF0000;fontColor=#CC00CC;startArrow=none;startFill=0;endArrow=none;endFill=1;endSize=6;elbow=vertical;fillColor=#f8cecc;entryPerimeter=0;" parent="235" source="274" target="578" edge="1">
                    <mxGeometry relative="1" as="geometry">
                        <mxPoint x="1044.25" y="1202.9999999999995" as="sourcePoint"/>
                        <mxPoint x="1044.25" y="1020" as="targetPoint"/>
                    </mxGeometry>
                </mxCell>
                <mxCell id="580" value="&lt;font color=&quot;#ff0000&quot;&gt;DetalleTransaccion&lt;/font&gt;" style="text;html=1;align=center;verticalAlign=middle;resizable=0;points=[];autosize=1;strokeColor=none;fillColor=none;fontColor=#CC00CC;" parent="235" vertex="1">
                    <mxGeometry x="2069" y="1478" width="120" height="26" as="geometry"/>
                </mxCell>
                <mxCell id="581" value="&lt;font color=&quot;#ff0000&quot;&gt;Transaccion&lt;/font&gt;" style="text;html=1;align=center;verticalAlign=middle;resizable=0;points=[];autosize=1;strokeColor=none;fillColor=none;fontColor=#CC00CC;" parent="235" vertex="1">
                    <mxGeometry x="1844" y="1478" width="83" height="26" as="geometry"/>
                </mxCell>
                <mxCell id="585" style="html=1;strokeColor=#3333FF;startArrow=none;exitX=1;exitY=0.5;exitDx=0;exitDy=0;exitPerimeter=0;endArrow=none;endFill=0;entryX=0.75;entryY=0;entryDx=0;entryDy=0;" parent="235" source="587" target="263" edge="1">
                    <mxGeometry relative="1" as="geometry">
                        <mxPoint x="431" y="1295" as="sourcePoint"/>
                        <mxPoint x="781" y="1318" as="targetPoint"/>
                    </mxGeometry>
                </mxCell>
                <mxCell id="582" value="&lt;span style=&quot;color: rgb(24, 20, 29); font-size: 14px; font-weight: 700;&quot;&gt;ms-productos-consumer&lt;/span&gt;" style="html=1;dropTarget=0;fillColor=#dae8fc;strokeColor=#6c8ebf;" parent="235" vertex="1">
                    <mxGeometry x="597" y="1061" width="231" height="90" as="geometry"/>
                </mxCell>
                <mxCell id="583" value="" style="shape=module;jettyWidth=8;jettyHeight=4;" parent="582" vertex="1">
                    <mxGeometry x="1" width="20" height="20" relative="1" as="geometry">
                        <mxPoint x="-27" y="7" as="offset"/>
                    </mxGeometry>
                </mxCell>
                <mxCell id="587" value="" style="shape=providedRequiredInterface;html=1;verticalLabelPosition=bottom;sketch=0;strokeColor=#3333FF;fontColor=#3333FF;fillColor=none;rotation=-180;direction=north;" parent="235" vertex="1">
                    <mxGeometry x="772" y="1226" width="20" height="20" as="geometry"/>
                </mxCell>
                <mxCell id="588" value="" style="html=1;entryX=0;entryY=0.5;entryDx=0;entryDy=0;strokeColor=#3333FF;endArrow=none;entryPerimeter=0;exitX=0.797;exitY=1.004;exitDx=0;exitDy=0;exitPerimeter=0;" parent="235" source="582" target="587" edge="1">
                    <mxGeometry relative="1" as="geometry">
                        <mxPoint x="818" y="1181" as="sourcePoint"/>
                        <mxPoint x="-617.75" y="897" as="targetPoint"/>
                    </mxGeometry>
                </mxCell>
                <mxCell id="589" value="&lt;font color=&quot;#3333ff&quot;&gt;OperacionProducto&lt;/font&gt;" style="text;html=1;align=center;verticalAlign=middle;resizable=0;points=[];autosize=1;strokeColor=none;fillColor=none;fontColor=#000000;" parent="235" vertex="1">
                    <mxGeometry x="792" y="1223" width="121" height="26" as="geometry"/>
                </mxCell>
                <mxCell id="591" value="" style="shape=providedRequiredInterface;html=1;verticalLabelPosition=bottom;sketch=0;strokeColor=#3333FF;fontColor=#3333FF;fillColor=none;rotation=-180;direction=south;" parent="235" vertex="1">
                    <mxGeometry x="656" y="1236" width="20" height="20" as="geometry"/>
                </mxCell>
                <mxCell id="595" value="&lt;font color=&quot;#3333ff&quot;&gt;ProductoDTO&lt;/font&gt;" style="text;html=1;align=center;verticalAlign=middle;resizable=0;points=[];autosize=1;strokeColor=none;fillColor=none;fontColor=#000000;" parent="235" vertex="1">
                    <mxGeometry x="561" y="1237" width="91" height="26" as="geometry"/>
                </mxCell>
                <mxCell id="599" style="edgeStyle=elbowEdgeStyle;elbow=vertical;html=1;strokeColor=#CC00CC;startArrow=none;exitX=1;exitY=0.5;exitDx=0;exitDy=0;exitPerimeter=0;endArrow=none;endFill=0;" parent="235" source="553" edge="1">
                    <mxGeometry relative="1" as="geometry">
                        <mxPoint x="2113.0000000000005" y="1157.5" as="sourcePoint"/>
                        <mxPoint x="1861" y="1154" as="targetPoint"/>
                    </mxGeometry>
                </mxCell>
                <mxCell id="606" value="" style="edgeStyle=elbowEdgeStyle;elbow=vertical;html=1;strokeColor=#CC00CC;entryX=0;entryY=0.5;entryDx=0;entryDy=0;endArrow=none;entryPerimeter=0;" parent="235" source="253" target="553" edge="1">
                    <mxGeometry relative="1" as="geometry">
                        <mxPoint x="1109.0000000000005" y="774.75" as="sourcePoint"/>
                        <mxPoint x="857.0000000000005" y="775" as="targetPoint"/>
                    </mxGeometry>
                </mxCell>
                <mxCell id="553" value="" style="shape=providedRequiredInterface;html=1;verticalLabelPosition=bottom;sketch=0;strokeColor=#CC00CC;fontColor=#3333FF;fillColor=none;rotation=90;direction=south;" parent="235" vertex="1">
                    <mxGeometry x="1965" y="1144" width="20" height="20" as="geometry"/>
                </mxCell>
                <mxCell id="754" value="" style="shape=providedRequiredInterface;html=1;verticalLabelPosition=bottom;sketch=0;strokeColor=#CC00CC;fontColor=#3333FF;fillColor=none;rotation=85;direction=west;" parent="235" vertex="1">
                    <mxGeometry x="1593" y="872.5" width="20" height="20" as="geometry"/>
                </mxCell>
                <mxCell id="753" value="" style="edgeStyle=elbowEdgeStyle;elbow=vertical;html=1;strokeColor=#CC00CC;endArrow=none;endFill=0;startArrow=none;exitX=0;exitY=0.5;exitDx=0;exitDy=0;exitPerimeter=0;" parent="235" source="754" target="255" edge="1">
                    <mxGeometry relative="1" as="geometry">
                        <mxPoint x="1604" y="899" as="sourcePoint"/>
                    </mxGeometry>
                </mxCell>
                <mxCell id="768" style="edgeStyle=none;html=1;exitX=1;exitY=0.5;exitDx=0;exitDy=0;exitPerimeter=0;entryX=1;entryY=0.75;entryDx=0;entryDy=0;strokeColor=#3333FF;endArrow=none;endFill=0;startArrow=none;" parent="235" source="770" target="263" edge="1">
                    <mxGeometry relative="1" as="geometry"/>
                </mxCell>
                <mxCell id="222" value="rdbs-ventas-productos-db" style="outlineConnect=0;dashed=0;verticalLabelPosition=bottom;verticalAlign=top;align=center;html=1;shape=mxgraph.aws3.rds;fillColor=#2E73B8;gradientColor=none;fontSize=14;fontColor=#18141D;" parent="235" vertex="1">
                    <mxGeometry x="1028" y="1313.5" width="72" height="81" as="geometry"/>
                </mxCell>
                <mxCell id="574" value="" style="edgeStyle=none;html=1;entryX=0;entryY=0.5;entryDx=0;entryDy=0;strokeColor=#CC00CC;fontColor=#FF0000;startArrow=none;startFill=0;exitX=1;exitY=0.78;exitDx=0;exitDy=0;exitPerimeter=0;endArrow=none;entryPerimeter=0;" parent="235" source="222" target="573" edge="1">
                    <mxGeometry relative="1" as="geometry">
                        <mxPoint x="285" y="997.6799999999998" as="sourcePoint"/>
                        <mxPoint x="408" y="997.5" as="targetPoint"/>
                    </mxGeometry>
                </mxCell>
                <mxCell id="542" value="&lt;span style=&quot;color: rgb(51, 51, 255);&quot;&gt;OperacionProducto&lt;/span&gt;" style="text;html=1;align=center;verticalAlign=middle;resizable=0;points=[];autosize=1;strokeColor=none;fillColor=none;fontColor=#000000;" parent="235" vertex="1">
                    <mxGeometry x="883" y="1301" width="121" height="26" as="geometry"/>
                </mxCell>
                <mxCell id="186" value="Cafetería Virtual - Auth" style="swimlane;whiteSpace=wrap;html=1;strokeColor=#00FFFF;fillColor=none;fontColor=#18141D;" parent="235" vertex="1">
                    <mxGeometry x="10" y="531" width="570" height="398" as="geometry"/>
                </mxCell>
                <mxCell id="517" value="&lt;font color=&quot;#00ffff&quot;&gt;UserDTO&lt;/font&gt;" style="text;html=1;align=center;verticalAlign=middle;resizable=0;points=[];autosize=1;strokeColor=none;fillColor=none;fontColor=#3333FF;" parent="186" vertex="1">
                    <mxGeometry x="262" y="29" width="68" height="26" as="geometry"/>
                </mxCell>
                <mxCell id="779" style="html=1;entryX=0.25;entryY=0;entryDx=0;entryDy=0;endArrow=none;endFill=0;elbow=vertical;strokeColor=#00FFFF;startArrow=none;exitX=1;exitY=0.5;exitDx=0;exitDy=0;exitPerimeter=0;" parent="186" source="786" target="764" edge="1">
                    <mxGeometry relative="1" as="geometry">
                        <mxPoint x="114" y="312" as="sourcePoint"/>
                    </mxGeometry>
                </mxCell>
                <mxCell id="762" value="&lt;span style=&quot;color: rgb(24, 20, 29); font-size: 14px; font-weight: 700;&quot;&gt;ms-auth-bs&lt;/span&gt;" style="html=1;dropTarget=0;fillColor=#CCFFFF;strokeColor=#00FFFF;" parent="186" vertex="1">
                    <mxGeometry x="35" y="49" width="231" height="90" as="geometry"/>
                </mxCell>
                <mxCell id="763" value="" style="shape=module;jettyWidth=8;jettyHeight=4;" parent="762" vertex="1">
                    <mxGeometry x="1" width="20" height="20" relative="1" as="geometry">
                        <mxPoint x="-27" y="7" as="offset"/>
                    </mxGeometry>
                </mxCell>
                <mxCell id="780" style="html=1;exitX=1;exitY=0.5;exitDx=0;exitDy=0;entryX=0.75;entryY=1;entryDx=0;entryDy=0;endArrow=none;endFill=0;elbow=vertical;strokeColor=#00FFFF;startArrow=none;exitPerimeter=0;edgeStyle=elbowEdgeStyle;" parent="186" source="788" target="762" edge="1">
                    <mxGeometry relative="1" as="geometry">
                        <Array as="points">
                            <mxPoint x="265" y="213"/>
                        </Array>
                    </mxGeometry>
                </mxCell>
                <mxCell id="764" value="&lt;span style=&quot;color: rgb(24, 20, 29); font-size: 14px; font-weight: 700;&quot;&gt;ms-auth-db&lt;/span&gt;" style="html=1;dropTarget=0;fillColor=#CCFFFF;strokeColor=#00FFFF;" parent="186" vertex="1">
                    <mxGeometry x="145" y="301" width="231" height="90" as="geometry"/>
                </mxCell>
                <mxCell id="765" value="" style="shape=module;jettyWidth=8;jettyHeight=4;" parent="764" vertex="1">
                    <mxGeometry x="1" width="20" height="20" relative="1" as="geometry">
                        <mxPoint x="-27" y="7" as="offset"/>
                    </mxGeometry>
                </mxCell>
                <mxCell id="787" value="" style="html=1;exitX=0.25;exitY=1;exitDx=0;exitDy=0;entryX=0;entryY=0.5;entryDx=0;entryDy=0;endArrow=none;endFill=0;elbow=vertical;strokeColor=#00FFFF;entryPerimeter=0;edgeStyle=elbowEdgeStyle;" parent="186" source="762" target="786" edge="1">
                    <mxGeometry relative="1" as="geometry">
                        <mxPoint x="-791.25" y="411" as="sourcePoint"/>
                        <mxPoint x="-791.25" y="453" as="targetPoint"/>
                        <Array as="points">
                            <mxPoint x="151" y="231"/>
                        </Array>
                    </mxGeometry>
                </mxCell>
                <mxCell id="786" value="" style="shape=providedRequiredInterface;html=1;verticalLabelPosition=bottom;sketch=0;strokeColor=#00FFFF;fontColor=#3333FF;fillColor=none;rotation=90;direction=east;" parent="186" vertex="1">
                    <mxGeometry x="193" y="270" width="20" height="20" as="geometry"/>
                </mxCell>
                <mxCell id="789" value="" style="html=1;exitX=0.75;exitY=0;exitDx=0;exitDy=0;entryX=0;entryY=0.5;entryDx=0;entryDy=0;endArrow=none;endFill=0;elbow=vertical;strokeColor=#00FFFF;entryPerimeter=0;" parent="186" source="764" target="788" edge="1">
                    <mxGeometry relative="1" as="geometry">
                        <mxPoint x="-675.75" y="453" as="sourcePoint"/>
                        <mxPoint x="-675.75" y="411" as="targetPoint"/>
                    </mxGeometry>
                </mxCell>
                <mxCell id="788" value="" style="shape=providedRequiredInterface;html=1;verticalLabelPosition=bottom;sketch=0;strokeColor=#00FFFF;fontColor=#3333FF;fillColor=none;rotation=90;direction=west;" parent="186" vertex="1">
                    <mxGeometry x="308" y="270" width="20" height="20" as="geometry"/>
                </mxCell>
                <mxCell id="791" value="&lt;font color=&quot;#00ffff&quot;&gt;UserDTO&lt;/font&gt;" style="text;html=1;align=center;verticalAlign=middle;resizable=0;points=[];autosize=1;strokeColor=none;fillColor=none;fontColor=#3333FF;" parent="186" vertex="1">
                    <mxGeometry x="119" y="264" width="68" height="26" as="geometry"/>
                </mxCell>
                <mxCell id="792" value="&lt;font color=&quot;#00ffff&quot;&gt;UserDTO&lt;/font&gt;" style="text;html=1;align=center;verticalAlign=middle;resizable=0;points=[];autosize=1;strokeColor=none;fillColor=none;fontColor=#3333FF;" parent="186" vertex="1">
                    <mxGeometry x="339" y="267" width="68" height="26" as="geometry"/>
                </mxCell>
                <mxCell id="781" value="" style="shape=providedRequiredInterface;html=1;verticalLabelPosition=bottom;sketch=0;strokeColor=#00FFFF;fontColor=#3333FF;fillColor=none;rotation=90;direction=south;" parent="186" vertex="1">
                    <mxGeometry x="283" y="61" width="20" height="20" as="geometry"/>
                </mxCell>
                <mxCell id="777" style="html=1;entryX=1;entryY=0.25;entryDx=0;entryDy=0;elbow=vertical;endArrow=none;endFill=0;exitX=1;exitY=0.5;exitDx=0;exitDy=0;strokeColor=#00FFFF;startArrow=none;exitPerimeter=0;" parent="186" source="781" target="762" edge="1">
                    <mxGeometry relative="1" as="geometry"/>
                </mxCell>
                <mxCell id="783" value="" style="shape=providedRequiredInterface;html=1;verticalLabelPosition=bottom;sketch=0;strokeColor=#00FFFF;fontColor=#3333FF;fillColor=none;rotation=90;direction=north;" parent="186" vertex="1">
                    <mxGeometry x="283" y="107" width="20" height="20" as="geometry"/>
                </mxCell>
                <mxCell id="785" value="" style="html=1;exitX=1;exitY=0.75;exitDx=0;exitDy=0;entryX=0;entryY=0.5;entryDx=0;entryDy=0;endArrow=none;endFill=0;elbow=vertical;strokeColor=#00FFFF;entryPerimeter=0;" parent="186" source="762" target="783" edge="1">
                    <mxGeometry relative="1" as="geometry">
                        <mxPoint x="-628" y="-142.5" as="sourcePoint"/>
                        <mxPoint x="-502.75" y="-241" as="targetPoint"/>
                    </mxGeometry>
                </mxCell>
                <mxCell id="797" value="&lt;font color=&quot;#00ffff&quot;&gt;UserDTO&lt;/font&gt;" style="text;html=1;align=center;verticalAlign=middle;resizable=0;points=[];autosize=1;strokeColor=none;fillColor=none;fontColor=#3333FF;" parent="186" vertex="1">
                    <mxGeometry x="264" y="141" width="68" height="26" as="geometry"/>
                </mxCell>
                <mxCell id="769" value="&lt;font color=&quot;#3333ff&quot;&gt;Producto&lt;/font&gt;" style="text;html=1;align=center;verticalAlign=middle;resizable=0;points=[];autosize=1;strokeColor=none;fillColor=none;fontColor=#000000;" parent="235" vertex="1">
                    <mxGeometry x="911" y="1387" width="66" height="26" as="geometry"/>
                </mxCell>
                <mxCell id="770" value="" style="shape=providedRequiredInterface;html=1;verticalLabelPosition=bottom;sketch=0;strokeColor=#3333FF;fontColor=#3333FF;fillColor=none;rotation=-180;direction=east;" parent="235" vertex="1">
                    <mxGeometry x="936" y="1367" width="20" height="20" as="geometry"/>
                </mxCell>
                <mxCell id="771" value="" style="edgeStyle=none;html=1;exitX=0;exitY=0.78;exitDx=0;exitDy=0;exitPerimeter=0;entryX=0;entryY=0.5;entryDx=0;entryDy=0;strokeColor=#3333FF;endArrow=none;endFill=0;entryPerimeter=0;" parent="235" source="222" target="770" edge="1">
                    <mxGeometry relative="1" as="geometry">
                        <mxPoint x="24" y="997.6800000000003" as="sourcePoint"/>
                        <mxPoint x="-164" y="997.5" as="targetPoint"/>
                    </mxGeometry>
                </mxCell>
                <mxCell id="772" value="" style="shape=providedRequiredInterface;html=1;verticalLabelPosition=bottom;sketch=0;strokeColor=#3333FF;fontColor=#3333FF;fillColor=none;rotation=-180;direction=west;" parent="235" vertex="1">
                    <mxGeometry x="934" y="1321" width="20" height="20" as="geometry"/>
                </mxCell>
                <mxCell id="774" value="" style="html=1;entryX=0;entryY=0.5;entryDx=0;entryDy=0;entryPerimeter=0;strokeColor=#3333FF;endArrow=none;endFill=0;exitX=1;exitY=0.25;exitDx=0;exitDy=0;" parent="235" source="263" target="772" edge="1">
                    <mxGeometry relative="1" as="geometry">
                        <mxPoint x="-164" y="952.5" as="sourcePoint"/>
                        <mxPoint x="24" y="952.3199999999997" as="targetPoint"/>
                    </mxGeometry>
                </mxCell>
                <mxCell id="540" value="" style="shape=providedRequiredInterface;html=1;verticalLabelPosition=bottom;sketch=0;strokeColor=#00FFFF;fontColor=#3333FF;fillColor=none;rotation=-90;direction=west;" parent="235" vertex="1">
                    <mxGeometry x="48" y="1151" width="20" height="20" as="geometry"/>
                </mxCell>
                <mxCell id="541" value="" style="edgeStyle=elbowEdgeStyle;html=1;entryX=0;entryY=0.5;entryDx=0;entryDy=0;strokeColor=#00FFFF;fontColor=#18141D;endArrow=none;endFill=0;entryPerimeter=0;exitX=0.25;exitY=1;exitDx=0;exitDy=0;elbow=vertical;" parent="235" source="764" target="540" edge="1">
                    <mxGeometry relative="1" as="geometry">
                        <mxPoint x="-152.3599999999999" y="1209.5" as="targetPoint"/>
                        <mxPoint x="158" y="1221" as="sourcePoint"/>
                        <Array as="points">
                            <mxPoint x="131" y="970"/>
                        </Array>
                    </mxGeometry>
                </mxCell>
                <mxCell id="778" style="html=1;entryX=0;entryY=0.75;entryDx=0;entryDy=0;endArrow=none;endFill=0;elbow=vertical;strokeColor=#00FFFF;startArrow=none;exitX=1;exitY=0.5;exitDx=0;exitDy=0;exitPerimeter=0;" parent="235" source="783" target="245" edge="1">
                    <mxGeometry relative="1" as="geometry">
                        <mxPoint x="519" y="765" as="sourcePoint"/>
                    </mxGeometry>
                </mxCell>
                <mxCell id="782" value="" style="edgeStyle=orthogonalEdgeStyle;html=1;entryX=0;entryY=0.5;entryDx=0;entryDy=0;elbow=vertical;endArrow=none;endFill=0;strokeColor=#00FFFF;entryPerimeter=0;exitX=0;exitY=0.25;exitDx=0;exitDy=0;" parent="235" source="245" target="781" edge="1">
                    <mxGeometry relative="1" as="geometry">
                        <mxPoint x="-550.5" y="290" as="sourcePoint"/>
                        <mxPoint x="-618" y="343.5" as="targetPoint"/>
                    </mxGeometry>
                </mxCell>
                <mxCell id="793" value="&lt;font color=&quot;#00ffff&quot;&gt;QueryUser&lt;/font&gt;" style="text;html=1;align=center;verticalAlign=middle;resizable=0;points=[];autosize=1;strokeColor=none;fillColor=none;fontColor=#3333FF;" parent="235" vertex="1">
                    <mxGeometry x="-41" y="1156" width="76" height="26" as="geometry"/>
                </mxCell>
                <mxCell id="794" value="&lt;span style=&quot;color: rgb(204, 0, 204);&quot;&gt;topic-venta&lt;/span&gt;" style="sketch=0;outlineConnect=0;fontColor=#232F3E;gradientColor=none;fillColor=#CC00CC;strokeColor=none;dashed=0;verticalLabelPosition=bottom;verticalAlign=top;align=center;html=1;fontSize=12;fontStyle=0;aspect=fixed;pointerEvents=1;shape=mxgraph.aws4.topic;" parent="235" vertex="1">
                    <mxGeometry x="1646" y="714.5" width="78" height="67" as="geometry"/>
                </mxCell>
                <mxCell id="795" value="&lt;span style=&quot;color: rgb(102, 204, 0);&quot;&gt;topic-factura&lt;/span&gt;" style="sketch=0;outlineConnect=0;fontColor=#232F3E;gradientColor=none;fillColor=#66CC00;strokeColor=none;dashed=0;verticalLabelPosition=bottom;verticalAlign=top;align=center;html=1;fontSize=12;fontStyle=0;aspect=fixed;pointerEvents=1;shape=mxgraph.aws4.topic;" parent="235" vertex="1">
                    <mxGeometry x="2061" y="715" width="78" height="67" as="geometry"/>
                </mxCell>
                <mxCell id="464" style="edgeStyle=orthogonalEdgeStyle;jumpStyle=none;html=1;strokeColor=#66CC00;fontColor=#66CC00;startArrow=none;startFill=0;endArrow=classic;endFill=1;endSize=6;targetPerimeterSpacing=0;elbow=vertical;" parent="235" source="795" target="461" edge="1">
                    <mxGeometry relative="1" as="geometry">
                        <mxPoint x="2100" y="776.9537569060776" as="sourcePoint"/>
                    </mxGeometry>
                </mxCell>
                <mxCell id="805" style="html=1;entryX=0;entryY=0.5;entryDx=0;entryDy=0;exitX=1;exitY=0.5;exitDx=0;exitDy=0;strokeColor=#CC00CC;edgeStyle=orthogonalEdgeStyle;startArrow=none;exitPerimeter=0;endArrow=none;endFill=0;" parent="235" source="811" target="249" edge="1">
                    <mxGeometry relative="1" as="geometry">
                        <mxPoint x="1626" y="1161.596398870091" as="targetPoint"/>
                        <mxPoint x="1339.0000000000005" y="1085.9999999999998" as="sourcePoint"/>
                    </mxGeometry>
                </mxCell>
                <mxCell id="804" style="edgeStyle=orthogonalEdgeStyle;html=1;entryX=0.75;entryY=1;entryDx=0;entryDy=0;exitX=1;exitY=0.5;exitDx=0;exitDy=0;strokeColor=#CC00CC;startArrow=none;exitPerimeter=0;endArrow=none;endFill=0;" parent="235" source="808" target="798" edge="1">
                    <mxGeometry relative="1" as="geometry">
                        <mxPoint x="1616" y="1132.1950684931508" as="sourcePoint"/>
                        <mxPoint x="1399.0000000000005" y="1085.9999999999998" as="targetPoint"/>
                    </mxGeometry>
                </mxCell>
                <mxCell id="808" value="" style="shape=providedRequiredInterface;html=1;verticalLabelPosition=bottom;sketch=0;strokeColor=#CC00CC;fontColor=#CC00CC;direction=west;" parent="235" vertex="1">
                    <mxGeometry x="1501" y="1121" width="20" height="20" as="geometry"/>
                </mxCell>
                <mxCell id="809" value="" style="edgeStyle=orthogonalEdgeStyle;html=1;entryX=0;entryY=0.5;entryDx=0;entryDy=0;exitX=0;exitY=0.25;exitDx=0;exitDy=0;strokeColor=#CC00CC;endArrow=none;entryPerimeter=0;" parent="235" source="249" target="808" edge="1">
                    <mxGeometry relative="1" as="geometry">
                        <mxPoint x="626" y="752.5" as="sourcePoint"/>
                        <mxPoint x="386.25" y="706.9999999999998" as="targetPoint"/>
                    </mxGeometry>
                </mxCell>
                <mxCell id="811" value="" style="shape=providedRequiredInterface;html=1;verticalLabelPosition=bottom;sketch=0;strokeColor=#CC00CC;fontColor=#3333FF;fillColor=none;rotation=90;direction=north;" parent="235" vertex="1">
                    <mxGeometry x="1421" y="1144" width="20" height="20" as="geometry"/>
                </mxCell>
                <mxCell id="812" value="" style="html=1;entryX=0;entryY=0.5;entryDx=0;entryDy=0;exitX=0.5;exitY=1;exitDx=0;exitDy=0;strokeColor=#CC00CC;edgeStyle=orthogonalEdgeStyle;endArrow=none;" parent="235" source="798" target="811" edge="1">
                    <mxGeometry relative="1" as="geometry">
                        <mxPoint x="626" y="775" as="targetPoint"/>
                        <mxPoint x="328.5" y="706.9999999999998" as="sourcePoint"/>
                    </mxGeometry>
                </mxCell>
                <mxCell id="818" value="Email" style="text;html=1;align=center;verticalAlign=middle;resizable=0;points=[];autosize=1;strokeColor=none;fillColor=none;fontColor=#CC00CC;" parent="235" vertex="1">
                    <mxGeometry x="1070" y="986" width="48" height="26" as="geometry"/>
                </mxCell>
                <mxCell id="819" value="EmailIsSent" style="text;html=1;align=center;verticalAlign=middle;resizable=0;points=[];autosize=1;strokeColor=none;fillColor=none;fontColor=#CC00CC;" parent="235" vertex="1">
                    <mxGeometry x="1057" y="1076" width="82" height="26" as="geometry"/>
                </mxCell>
                <mxCell id="827" value="" style="edgeStyle=none;html=1;strokeColor=#66CC00;fontColor=#66CC00;endArrow=none;endFill=0;entryX=0.75;entryY=1;entryDx=0;entryDy=0;" parent="235" source="825" target="267" edge="1">
                    <mxGeometry relative="1" as="geometry"/>
                </mxCell>
                <mxCell id="845" value="&lt;font color=&quot;#66cc00&quot;&gt;DocumentData&lt;/font&gt;" style="text;html=1;align=center;verticalAlign=middle;resizable=0;points=[];autosize=1;strokeColor=none;fillColor=none;fontColor=#000000;" parent="235" vertex="1">
                    <mxGeometry x="3060.5" y="1263" width="98" height="26" as="geometry"/>
                </mxCell>
                <mxCell id="846" value="&lt;font&gt;Document&lt;/font&gt;" style="text;html=1;align=center;verticalAlign=middle;resizable=0;points=[];autosize=1;strokeColor=none;fillColor=none;fontColor=#FFFF00;" parent="235" vertex="1">
                    <mxGeometry x="3073" y="1164" width="73" height="26" as="geometry"/>
                </mxCell>
                <mxCell id="434" value="" style="endArrow=none;html=1;rounded=0;align=center;verticalAlign=top;endFill=0;labelBackgroundColor=none;endSize=2;strokeColor=#66CC00;fontColor=#66CC00;targetPerimeterSpacing=0;elbow=vertical;jumpStyle=none;" parent="1" target="435" edge="1">
                    <mxGeometry relative="1" as="geometry">
                        <mxPoint x="1465" y="369.97136929460567" as="sourcePoint"/>
                    </mxGeometry>
                </mxCell>
                <mxCell id="453" style="edgeStyle=orthogonalEdgeStyle;jumpStyle=none;html=1;entryX=0.5;entryY=0;entryDx=0;entryDy=0;strokeColor=#CC00CC;fontColor=#CC00CC;startArrow=none;startFill=0;endArrow=classic;endFill=1;endSize=6;targetPerimeterSpacing=0;elbow=vertical;" parent="1" source="794" target="455" edge="1">
                    <mxGeometry relative="1" as="geometry">
                        <mxPoint x="746" y="369.767955801105" as="sourcePoint"/>
                    </mxGeometry>
                </mxCell>
                <mxCell id="455" value="" style="html=1;rounded=0;strokeColor=#CC00CC;fontColor=#CC00CC;fillColor=#CC00CC;" parent="1" vertex="1">
                    <mxGeometry x="746" y="432.03314917127074" width="30" height="19.060773480662984" as="geometry"/>
                </mxCell>
                <mxCell id="456" style="jumpStyle=none;html=1;strokeColor=#CC00CC;fontColor=#CC00CC;startArrow=none;startFill=0;endArrow=classic;endFill=1;endSize=6;targetPerimeterSpacing=0;elbow=vertical;entryX=-0.049;entryY=0.587;entryDx=0;entryDy=0;entryPerimeter=0;exitX=0.5;exitY=0;exitDx=0;exitDy=0;edgeStyle=orthogonalEdgeStyle;" parent="1" source="457" target="794" edge="1">
                    <mxGeometry relative="1" as="geometry">
                        <mxPoint x="614" y="369.767955801105" as="targetPoint"/>
                        <Array as="points">
                            <mxPoint x="599" y="375"/>
                        </Array>
                    </mxGeometry>
                </mxCell>
                <mxCell id="457" value="" style="html=1;rounded=0;strokeColor=#CC00CC;fontColor=#CC00CC;fillColor=#CC00CC;" parent="1" vertex="1">
                    <mxGeometry x="584" y="432.03314917127074" width="30" height="19.060773480662984" as="geometry"/>
                </mxCell>
                <mxCell id="459" style="edgeStyle=orthogonalEdgeStyle;jumpStyle=none;html=1;strokeColor=#66CC00;fontColor=#66CC00;startArrow=none;startFill=0;endArrow=classic;endFill=1;endSize=6;targetPerimeterSpacing=0;elbow=vertical;" parent="1" source="460" target="795" edge="1">
                    <mxGeometry relative="1" as="geometry">
                        <mxPoint x="1162" y="370" as="targetPoint"/>
                    </mxGeometry>
                </mxCell>
                <mxCell id="460" value="" style="html=1;rounded=0;strokeColor=#66CC00;fontColor=#66CC00;fillColor=#66CC00;" parent="1" vertex="1">
                    <mxGeometry x="1435" y="355" width="30" height="30" as="geometry"/>
                </mxCell>
                <mxCell id="462" value="" style="endArrow=none;html=1;rounded=0;align=center;verticalAlign=top;endFill=0;labelBackgroundColor=none;endSize=2;strokeColor=#66CC00;fontColor=#66CC00;targetPerimeterSpacing=0;elbow=vertical;jumpStyle=none;" parent="1" source="461" target="463" edge="1">
                    <mxGeometry relative="1" as="geometry"/>
                </mxCell>
                <mxCell id="463" value="" style="ellipse;html=1;fontSize=11;align=center;fillColor=none;points=[];aspect=fixed;resizable=0;verticalAlign=bottom;labelPosition=center;verticalLabelPosition=top;flipH=1;strokeColor=#66CC00;fontColor=#66CC00;" parent="1" vertex="1">
                    <mxGeometry x="1091" y="501.5" width="8" height="8" as="geometry"/>
                </mxCell>
                <mxCell id="465" value="" style="ellipse;html=1;fontSize=11;align=center;fillColor=none;points=[];aspect=fixed;resizable=0;verticalAlign=bottom;labelPosition=center;verticalLabelPosition=top;flipH=1;strokeColor=#CC00CC;fontColor=#CC00CC;" parent="1" vertex="1">
                    <mxGeometry x="757" y="477" width="8" height="8" as="geometry"/>
                </mxCell>
                <mxCell id="466" value="" style="endArrow=none;html=1;rounded=0;align=center;verticalAlign=top;endFill=0;labelBackgroundColor=none;endSize=2;strokeColor=#CC00CC;fontColor=#CC00CC;targetPerimeterSpacing=0;elbow=vertical;jumpStyle=none;" parent="1" source="455" target="465" edge="1">
                    <mxGeometry relative="1" as="geometry"/>
                </mxCell>
                <mxCell id="467" value="EventoVenta" style="text;html=1;align=center;verticalAlign=middle;resizable=0;points=[];autosize=1;strokeColor=none;fillColor=none;fontColor=#CC00CC;" parent="1" vertex="1">
                    <mxGeometry x="610" y="485" width="86" height="26" as="geometry"/>
                </mxCell>
                <mxCell id="470" value="" style="endArrow=none;html=1;rounded=0;align=center;verticalAlign=top;endFill=0;labelBackgroundColor=none;endSize=2;strokeColor=#CC00CC;fontColor=#CC00CC;targetPerimeterSpacing=0;elbow=vertical;jumpStyle=none;entryX=1;entryY=0.5;entryDx=0;entryDy=0;entryPerimeter=0;" parent="1" source="457" target="754" edge="1">
                    <mxGeometry relative="1" as="geometry">
                        <mxPoint x="601" y="450" as="sourcePoint"/>
                        <mxPoint x="605" y="487" as="targetPoint"/>
                    </mxGeometry>
                </mxCell>
                <mxCell id="446" value="&lt;font color=&quot;#18141d&quot;&gt;&lt;span style=&quot;font-size: 14px;&quot;&gt;&lt;b&gt;mobile-ui&lt;/b&gt;&lt;/span&gt;&lt;/font&gt;" style="html=1;dropTarget=0;fillColor=#b1ddf0;strokeColor=#10739e;" parent="1" vertex="1">
                    <mxGeometry x="34.5" y="-542" width="231" height="90" as="geometry"/>
                </mxCell>
                <mxCell id="447" value="" style="shape=module;jettyWidth=8;jettyHeight=4;fillColor=#1ba1e2;fontColor=#ffffff;strokeColor=#006EAF;" parent="446" vertex="1">
                    <mxGeometry x="1" width="20" height="20" relative="1" as="geometry">
                        <mxPoint x="-27" y="7" as="offset"/>
                    </mxGeometry>
                </mxCell>
                <mxCell id="474" style="edgeStyle=orthogonalEdgeStyle;jumpStyle=none;html=1;strokeColor=#10739e;fontColor=#66CC00;startArrow=none;startFill=0;endArrow=classic;endFill=1;endSize=6;targetPerimeterSpacing=0;elbow=vertical;exitX=0.75;exitY=1;exitDx=0;exitDy=0;entryX=0.535;entryY=0;entryDx=0;entryDy=0;entryPerimeter=0;fillColor=#b1ddf0;" parent="1" source="446" target="450" edge="1">
                    <mxGeometry relative="1" as="geometry"/>
                </mxCell>
                <mxCell id="475" style="edgeStyle=orthogonalEdgeStyle;jumpStyle=none;html=1;strokeColor=#10739e;fontColor=#66CC00;startArrow=none;startFill=0;endArrow=classic;endFill=1;endSize=6;targetPerimeterSpacing=0;elbow=vertical;entryX=0.25;entryY=1;entryDx=0;entryDy=0;exitX=0.465;exitY=-0.027;exitDx=0;exitDy=0;exitPerimeter=0;fillColor=#b1ddf0;" parent="1" source="450" target="446" edge="1">
                    <mxGeometry relative="1" as="geometry"/>
                </mxCell>
                <mxCell id="351" value="" style="rounded=0;orthogonalLoop=1;jettySize=auto;html=1;endArrow=halfCircle;endFill=0;endSize=6;strokeWidth=1;sketch=0;strokeColor=#CC00CC;fontColor=#3333FF;targetPerimeterSpacing=0;jumpStyle=gap;elbow=vertical;entryX=0.387;entryY=1;entryDx=0;entryDy=0;entryPerimeter=0;exitX=0.5;exitY=0;exitDx=0;exitDy=0;edgeStyle=elbowEdgeStyle;" parent="1" source="746" target="465" edge="1">
                    <mxGeometry relative="1" as="geometry">
                        <mxPoint x="897" y="520" as="sourcePoint"/>
                        <mxPoint x="761" y="487" as="targetPoint"/>
                        <Array as="points">
                            <mxPoint x="835" y="525"/>
                        </Array>
                    </mxGeometry>
                </mxCell>
                <mxCell id="361" style="jumpStyle=gap;html=1;strokeColor=#66CC00;fontColor=#66CC00;startArrow=none;startFill=0;endArrow=halfCircle;endFill=0;endSize=6;targetPerimeterSpacing=0;exitX=0.25;exitY=0;exitDx=0;exitDy=0;entryX=-0.095;entryY=0.615;entryDx=0;entryDy=0;entryPerimeter=0;" parent="1" source="265" target="465" edge="1">
                    <mxGeometry relative="1" as="geometry">
                        <mxPoint x="775" y="484" as="targetPoint"/>
                        <Array as="points">
                            <mxPoint x="1468" y="476"/>
                        </Array>
                    </mxGeometry>
                </mxCell>
                <mxCell id="486" style="jumpStyle=none;html=1;entryX=0.422;entryY=1.173;entryDx=0;entryDy=0;entryPerimeter=0;strokeColor=#CC00CC;fontColor=#CC00CC;startArrow=none;startFill=0;endArrow=halfCircle;endFill=0;endSize=6;targetPerimeterSpacing=0;elbow=vertical;exitX=1;exitY=0.5;exitDx=0;exitDy=0;edgeStyle=orthogonalEdgeStyle;" parent="1" source="746" target="463" edge="1">
                    <mxGeometry relative="1" as="geometry"/>
                </mxCell>
                <mxCell id="491" value="" style="ellipse;html=1;fontSize=11;align=center;fillColor=none;points=[];aspect=fixed;resizable=0;verticalAlign=bottom;labelPosition=center;verticalLabelPosition=top;flipH=1;strokeColor=#CC00CC;fontColor=#66CC00;direction=south;" parent="1" vertex="1">
                    <mxGeometry x="981" y="183" width="8" height="8" as="geometry"/>
                </mxCell>
                <mxCell id="492" style="edgeStyle=elbowEdgeStyle;jumpStyle=none;html=1;exitX=0.75;exitY=0;exitDx=0;exitDy=0;strokeColor=#CC00CC;fontColor=#CC00CC;startArrow=none;startFill=0;endArrow=none;endFill=0;endSize=6;targetPerimeterSpacing=0;elbow=vertical;entryX=1;entryY=0.505;entryDx=0;entryDy=0;entryPerimeter=0;" parent="1" source="253" target="491" edge="1">
                    <mxGeometry relative="1" as="geometry">
                        <mxPoint x="985" y="187" as="targetPoint"/>
                        <Array as="points">
                            <mxPoint x="1122" y="555"/>
                        </Array>
                    </mxGeometry>
                </mxCell>
                <mxCell id="493" style="edgeStyle=orthogonalEdgeStyle;jumpStyle=none;html=1;entryX=0.007;entryY=0.588;entryDx=0;entryDy=0;entryPerimeter=0;strokeColor=#CC00CC;fontColor=#CC00CC;startArrow=none;startFill=0;endArrow=halfCircle;endFill=0;endSize=6;targetPerimeterSpacing=0;elbow=vertical;exitX=1;exitY=0.75;exitDx=0;exitDy=0;" parent="1" source="450" target="491" edge="1">
                    <mxGeometry relative="1" as="geometry"/>
                </mxCell>
                <mxCell id="495" style="edgeStyle=none;jumpStyle=none;html=1;strokeColor=#3333FF;fontColor=#000000;startArrow=none;startFill=0;endArrow=halfCircle;endFill=0;endSize=6;targetPerimeterSpacing=0;elbow=vertical;exitX=0.204;exitY=0.997;exitDx=0;exitDy=0;exitPerimeter=0;entryX=0.107;entryY=0.571;entryDx=0;entryDy=0;entryPerimeter=0;" parent="1" source="450" target="499" edge="1">
                    <mxGeometry relative="1" as="geometry">
                        <mxPoint x="-425" y="309" as="targetPoint"/>
                    </mxGeometry>
                </mxCell>
                <mxCell id="496" style="edgeStyle=none;jumpStyle=none;html=1;strokeColor=#3333FF;fontColor=#000000;startArrow=none;startFill=0;endArrow=none;endFill=0;endSize=6;targetPerimeterSpacing=0;elbow=vertical;entryX=-0.107;entryY=0.571;entryDx=0;entryDy=0;entryPerimeter=0;exitX=0.166;exitY=1.012;exitDx=0;exitDy=0;exitPerimeter=0;" parent="1" source="450" target="500" edge="1">
                    <mxGeometry relative="1" as="geometry">
                        <mxPoint x="-464" y="211" as="targetPoint"/>
                        <mxPoint x="-394" y="-39" as="sourcePoint"/>
                    </mxGeometry>
                </mxCell>
                <mxCell id="499" value="" style="ellipse;html=1;fontSize=11;align=center;fillColor=none;points=[];aspect=fixed;resizable=0;verticalAlign=bottom;labelPosition=center;verticalLabelPosition=top;flipH=1;strokeColor=#3333FF;fontColor=#66CC00;direction=south;" parent="1" vertex="1">
                    <mxGeometry x="-339" y="313" width="8" height="8" as="geometry"/>
                </mxCell>
                <mxCell id="500" value="" style="ellipse;html=1;fontSize=11;align=center;fillColor=none;points=[];aspect=fixed;resizable=0;verticalAlign=bottom;labelPosition=center;verticalLabelPosition=top;flipH=1;strokeColor=#3333FF;fontColor=#66CC00;direction=south;" parent="1" vertex="1">
                    <mxGeometry x="-399" y="123" width="8" height="8" as="geometry"/>
                </mxCell>
                <mxCell id="501" style="edgeStyle=elbowEdgeStyle;jumpStyle=none;html=1;entryX=0.893;entryY=0.357;entryDx=0;entryDy=0;entryPerimeter=0;strokeColor=#3333FF;fontColor=#000000;startArrow=none;startFill=0;endArrow=none;endFill=0;endSize=6;targetPerimeterSpacing=0;elbow=vertical;exitX=0.75;exitY=0;exitDx=0;exitDy=0;" parent="1" source="261" target="499" edge="1">
                    <mxGeometry relative="1" as="geometry">
                        <Array as="points">
                            <mxPoint x="-432" y="591"/>
                        </Array>
                    </mxGeometry>
                </mxCell>
                <mxCell id="502" style="edgeStyle=elbowEdgeStyle;jumpStyle=none;html=1;strokeColor=#3333FF;fontColor=#000000;startArrow=none;startFill=0;endArrow=halfCircle;endFill=0;endSize=6;targetPerimeterSpacing=0;exitX=0.25;exitY=0;exitDx=0;exitDy=0;elbow=vertical;entryX=0.893;entryY=0.429;entryDx=0;entryDy=0;entryPerimeter=0;" parent="1" source="261" target="500" edge="1">
                    <mxGeometry relative="1" as="geometry">
                        <mxPoint x="-396" y="280" as="targetPoint"/>
                        <Array as="points">
                            <mxPoint x="-496" y="572"/>
                            <mxPoint x="-519" y="547"/>
                        </Array>
                    </mxGeometry>
                </mxCell>
                <mxCell id="505" value="" style="shape=providedRequiredInterface;html=1;verticalLabelPosition=bottom;sketch=0;strokeColor=#00FFFF;fontColor=#3333FF;fillColor=none;rotation=-175;" parent="1" vertex="1">
                    <mxGeometry x="-1236" y="214.99999999999997" width="20" height="20" as="geometry"/>
                </mxCell>
                <mxCell id="507" value="&lt;font&gt;UserCredentials&lt;/font&gt;" style="text;html=1;align=center;verticalAlign=middle;resizable=0;points=[];autosize=1;strokeColor=none;fillColor=none;fontColor=#00FFFF;" parent="1" vertex="1">
                    <mxGeometry x="-1278" y="181" width="104" height="26" as="geometry"/>
                </mxCell>
                <mxCell id="508" value="&lt;font color=&quot;#ff8000&quot;&gt;User&lt;/font&gt;" style="text;html=1;align=center;verticalAlign=middle;resizable=0;points=[];autosize=1;strokeColor=none;fillColor=none;fontColor=#3333FF;" parent="1" vertex="1">
                    <mxGeometry x="-1120" y="519.5" width="43" height="26" as="geometry"/>
                </mxCell>
                <mxCell id="510" value="" style="edgeStyle=orthogonalEdgeStyle;html=1;exitX=0.75;exitY=0;exitDx=0;exitDy=0;strokeColor=#FF8000;endArrow=none;" parent="1" source="241" target="509" edge="1">
                    <mxGeometry relative="1" as="geometry">
                        <mxPoint x="-1131.75" y="658" as="sourcePoint"/>
                        <mxPoint x="-967" y="467.5" as="targetPoint"/>
                    </mxGeometry>
                </mxCell>
                <mxCell id="509" value="" style="shape=providedRequiredInterface;html=1;verticalLabelPosition=bottom;sketch=0;strokeColor=#FF8000;fontColor=#3333FF;fillColor=none;rotation=-90;" parent="1" vertex="1">
                    <mxGeometry x="-1142" y="519.5" width="20" height="20" as="geometry"/>
                </mxCell>
                <mxCell id="545" value="" style="edgeStyle=orthogonalEdgeStyle;html=1;entryX=0;entryY=0.5;entryDx=0;entryDy=0;strokeColor=#FF8000;fontColor=#18141D;exitX=1;exitY=0.75;exitDx=0;exitDy=0;endArrow=none;endFill=0;entryPerimeter=0;" parent="1" source="278" target="544" edge="1">
                    <mxGeometry relative="1" as="geometry">
                        <mxPoint x="-881" y="874.5" as="targetPoint"/>
                        <mxPoint x="-1156.36" y="871.5" as="sourcePoint"/>
                    </mxGeometry>
                </mxCell>
                <mxCell id="343" value="" style="rounded=0;orthogonalLoop=1;jettySize=auto;html=1;endArrow=halfCircle;endFill=0;endSize=6;strokeWidth=1;sketch=0;strokeColor=#3333FF;fontColor=#3333FF;targetPerimeterSpacing=0;jumpStyle=gap;exitX=0.5;exitY=0;exitDx=0;exitDy=0;" parent="1" source="582" target="465" edge="1">
                    <mxGeometry relative="1" as="geometry">
                        <mxPoint x="143.00000000000045" y="225" as="sourcePoint"/>
                        <mxPoint x="358" y="481" as="targetPoint"/>
                        <Array as="points">
                            <mxPoint x="-291" y="481"/>
                        </Array>
                    </mxGeometry>
                </mxCell>
                <mxCell id="184" style="edgeStyle=orthogonalEdgeStyle;html=1;entryX=1;entryY=0.25;entryDx=0;entryDy=0;strokeColor=#00FFFF;fontColor=#18141D;exitX=1;exitY=0.5;exitDx=0;exitDy=0;endArrow=none;endFill=0;startArrow=none;exitPerimeter=0;" parent="1" source="540" target="278" edge="1">
                    <mxGeometry relative="1" as="geometry">
                        <mxPoint x="-1063" y="-161" as="targetPoint"/>
                        <mxPoint x="-250" y="-161" as="sourcePoint"/>
                    </mxGeometry>
                </mxCell>
                <mxCell id="516" value="" style="html=1;strokeColor=#00FFFF;entryX=0;entryY=0.5;entryDx=0;entryDy=0;fontColor=#18141D;exitX=0;exitY=0.25;exitDx=0;exitDy=0;endArrow=none;endFill=0;entryPerimeter=0;" parent="1" source="762" target="505" edge="1">
                    <mxGeometry relative="1" as="geometry">
                        <mxPoint x="-1707.75" y="21" as="targetPoint"/>
                        <mxPoint x="-1707.75" y="-81" as="sourcePoint"/>
                    </mxGeometry>
                </mxCell>
                <mxCell id="191" style="html=1;strokeColor=#FF8000;fontColor=#18141D;endArrow=none;endFill=0;startArrow=none;exitX=1;exitY=0.5;exitDx=0;exitDy=0;exitPerimeter=0;entryX=0;entryY=0.75;entryDx=0;entryDy=0;edgeStyle=orthogonalEdgeStyle;" parent="1" source="509" target="762" edge="1">
                    <mxGeometry relative="1" as="geometry">
                        <mxPoint x="-954.8939999999998" y="292.3299999999999" as="targetPoint"/>
                        <mxPoint x="-1230" y="262" as="sourcePoint"/>
                    </mxGeometry>
                </mxCell>
                <mxCell id="815" style="edgeStyle=none;html=1;entryX=0;entryY=0.75;entryDx=0;entryDy=0;endArrow=none;endFill=0;exitX=1;exitY=0.5;exitDx=0;exitDy=0;exitPerimeter=0;strokeColor=#CC00CC;startArrow=none;" parent="1" source="820" target="798" edge="1">
                    <mxGeometry relative="1" as="geometry"/>
                </mxCell>
                <mxCell id="806" value="ses-mailer" style="outlineConnect=0;dashed=0;verticalLabelPosition=bottom;verticalAlign=top;align=center;html=1;shape=mxgraph.aws3.ses;fillColor=#D9A741;gradientColor=none;" parent="1" vertex="1">
                    <mxGeometry x="-43" y="619.5" width="79.5" height="83.5" as="geometry"/>
                </mxCell>
                <mxCell id="807" style="html=1;entryX=1;entryY=0.24;entryDx=0;entryDy=0;entryPerimeter=0;strokeColor=#CC00CC;exitX=1;exitY=0.5;exitDx=0;exitDy=0;endArrow=none;endFill=0;startArrow=none;exitPerimeter=0;" parent="1" source="816" target="806" edge="1">
                    <mxGeometry relative="1" as="geometry">
                        <mxPoint x="185" y="661.9999999999998" as="sourcePoint"/>
                    </mxGeometry>
                </mxCell>
                <mxCell id="817" value="" style="html=1;strokeColor=#CC00CC;exitX=0;exitY=0.25;exitDx=0;exitDy=0;endArrow=none;endFill=0;" parent="1" source="798" target="816" edge="1">
                    <mxGeometry relative="1" as="geometry">
                        <mxPoint x="213" y="639.4999999999998" as="sourcePoint"/>
                        <mxPoint x="66.5" y="639.5399999999997" as="targetPoint"/>
                    </mxGeometry>
                </mxCell>
                <mxCell id="816" value="" style="shape=providedRequiredInterface;html=1;verticalLabelPosition=bottom;sketch=0;strokeColor=#CC00CC;fontColor=#CC00CC;direction=west;" parent="1" vertex="1">
                    <mxGeometry x="90" y="630" width="20" height="20" as="geometry"/>
                </mxCell>
                <mxCell id="821" value="" style="edgeStyle=none;html=1;endArrow=none;endFill=0;exitX=1;exitY=0.79;exitDx=0;exitDy=0;exitPerimeter=0;strokeColor=#CC00CC;entryX=0;entryY=0.5;entryDx=0;entryDy=0;entryPerimeter=0;" parent="1" source="806" target="820" edge="1">
                    <mxGeometry relative="1" as="geometry">
                        <mxPoint x="36.5" y="685.4649999999999" as="sourcePoint"/>
                        <mxPoint x="92" y="685" as="targetPoint"/>
                    </mxGeometry>
                </mxCell>
                <mxCell id="820" value="" style="shape=providedRequiredInterface;html=1;verticalLabelPosition=bottom;sketch=0;strokeColor=#CC00CC;fontColor=#3333FF;fillColor=none;rotation=90;direction=north;" parent="1" vertex="1">
                    <mxGeometry x="90" y="675" width="20" height="20" as="geometry"/>
                </mxCell>
                <mxCell id="832" value="BSale" style="swimlane;whiteSpace=wrap;html=1;startSize=23;strokeColor=#FFFF00;fillColor=none;fontColor=#18141D;" parent="1" vertex="1">
                    <mxGeometry x="2195" y="716" width="260" height="218" as="geometry"/>
                </mxCell>
                <mxCell id="834" value="&lt;span style=&quot;color: rgb(24, 20, 29); font-size: 14px; font-weight: 700;&quot;&gt;api-bsale&lt;/span&gt;" style="html=1;dropTarget=0;fillColor=#fff2cc;strokeColor=#d6b656;" parent="832" vertex="1">
                    <mxGeometry x="14.5" y="85" width="231" height="90" as="geometry"/>
                </mxCell>
                <mxCell id="835" value="" style="shape=module;jettyWidth=8;jettyHeight=4;" parent="834" vertex="1">
                    <mxGeometry x="1" width="20" height="20" relative="1" as="geometry">
                        <mxPoint x="-27" y="7" as="offset"/>
                    </mxGeometry>
                </mxCell>
                <mxCell id="837" style="edgeStyle=none;html=1;exitX=0;exitY=0.5;exitDx=0;exitDy=0;entryX=0;entryY=0.25;entryDx=0;entryDy=0;strokeColor=#FFFF00;fontColor=#66CC00;endArrow=none;endFill=0;startArrow=none;exitPerimeter=0;" parent="1" source="843" target="834" edge="1">
                    <mxGeometry relative="1" as="geometry"/>
                </mxCell>
                <mxCell id="838" style="edgeStyle=none;html=1;exitX=0;exitY=0.5;exitDx=0;exitDy=0;entryX=1;entryY=0.75;entryDx=0;entryDy=0;strokeColor=#66CC00;fontColor=#66CC00;endArrow=none;endFill=0;startArrow=none;exitPerimeter=0;" parent="1" source="841" target="822" edge="1">
                    <mxGeometry relative="1" as="geometry"/>
                </mxCell>
                <mxCell id="842" value="" style="edgeStyle=none;html=1;exitX=0;exitY=0.75;exitDx=0;exitDy=0;entryX=1;entryY=0.5;entryDx=0;entryDy=0;strokeColor=#66CC00;fontColor=#66CC00;endArrow=none;endFill=0;entryPerimeter=0;" parent="1" source="834" target="841" edge="1">
                    <mxGeometry relative="1" as="geometry">
                        <mxPoint x="2209.5" y="873.5" as="sourcePoint"/>
                        <mxPoint x="1988" y="867.5" as="targetPoint"/>
                    </mxGeometry>
                </mxCell>
                <mxCell id="841" value="" style="shape=providedRequiredInterface;html=1;verticalLabelPosition=bottom;sketch=0;strokeColor=#66CC00;fontColor=#3333FF;fillColor=none;rotation=0;direction=east;" parent="1" vertex="1">
                    <mxGeometry x="2090" y="858" width="20" height="20" as="geometry"/>
                </mxCell>
                <mxCell id="844" value="" style="edgeStyle=none;html=1;exitX=1;exitY=0.25;exitDx=0;exitDy=0;entryX=1;entryY=0.5;entryDx=0;entryDy=0;strokeColor=#FFFF00;fontColor=#66CC00;endArrow=none;endFill=0;entryPerimeter=0;" parent="1" source="822" target="843" edge="1">
                    <mxGeometry relative="1" as="geometry">
                        <mxPoint x="1988" y="822.5" as="sourcePoint"/>
                        <mxPoint x="2209.5" y="828.5" as="targetPoint"/>
                    </mxGeometry>
                </mxCell>
                <mxCell id="843" value="" style="shape=providedRequiredInterface;html=1;verticalLabelPosition=bottom;sketch=0;strokeColor=#FFFF00;fontColor=#3333FF;fillColor=none;rotation=0;direction=west;" parent="1" vertex="1">
                    <mxGeometry x="2089" y="813" width="20" height="20" as="geometry"/>
                </mxCell>
            </root>
        </mxGraphModel>
    </diagram>
</mxfile>